<svg width="204" height="163" viewBox="0 0 204 163" fill="none" xmlns="http://www.w3.org/2000/svg">
<path d="M204.001 136.032H0.283691V136.134H204.001V136.032Z" fill="#EBEBEB"/>
<path d="M35.1524 139.894H21.6582V139.996H35.1524V139.894Z" fill="#EBEBEB"/>
<path d="M73.5536 138.794H59.4971V138.896H73.5536V138.794Z" fill="#EBEBEB"/>
<path d="M53.8618 141.853H31.2817V141.955H53.8618V141.853Z" fill="#EBEBEB"/>
<path d="M183.153 142.227H165.556V142.328H183.153V142.227Z" fill="#EBEBEB"/>
<path d="M160.541 139.692H151.21V139.794H160.541V139.692Z" fill="#EBEBEB"/>
<path d="M118.159 141.317H79.9907V141.419H118.159V141.317Z" fill="#EBEBEB"/>
<path d="M96.846 117.94H18.1744C17.5581 117.939 16.9674 117.695 16.532 117.26C16.0966 116.826 15.852 116.238 15.8521 115.624V5.51791C15.8574 4.90782 16.1043 4.32448 16.5392 3.89458C16.974 3.46469 17.5616 3.22297 18.1744 3.22192H96.846C97.463 3.22192 98.0547 3.46596 98.491 3.90034C98.9273 4.33473 99.1724 4.92388 99.1724 5.5382V115.624C99.1724 116.238 98.9273 116.828 98.491 117.262C98.0547 117.696 97.463 117.94 96.846 117.94ZM18.1744 3.30305C17.5851 3.30413 17.0203 3.53795 16.604 3.9532C16.1877 4.36845 15.9539 4.9312 15.9539 5.51791V115.624C15.9539 116.211 16.1877 116.774 16.604 117.189C17.0203 117.604 17.5851 117.838 18.1744 117.839H96.846C97.4356 117.838 98.0008 117.604 98.4178 117.189C98.8348 116.774 99.0695 116.211 99.0706 115.624V5.51791C99.0695 4.93083 98.8348 4.36809 98.4178 3.95296C98.0008 3.53782 97.4356 3.30413 96.846 3.30305H18.1744Z" fill="#EBEBEB"/>
<path d="M184.979 117.94H106.303C105.686 117.939 105.095 117.695 104.659 117.261C104.223 116.827 103.978 116.238 103.977 115.624V5.51791C103.983 4.90745 104.231 4.32411 104.666 3.89433C105.102 3.46455 105.69 3.22296 106.303 3.22192H184.979C185.591 3.22404 186.177 3.46623 186.611 3.89601C187.045 4.32579 187.292 4.90852 187.297 5.51791V115.624C187.297 116.237 187.053 116.825 186.618 117.259C186.184 117.693 185.594 117.938 184.979 117.94ZM106.303 3.30305C105.713 3.30413 105.148 3.53782 104.731 3.95296C104.314 4.36809 104.079 4.93083 104.078 5.51791V115.624C104.079 116.211 104.314 116.774 104.731 117.189C105.148 117.604 105.713 117.838 106.303 117.839H184.979C185.568 117.838 186.134 117.604 186.55 117.189C186.967 116.774 187.202 116.211 187.203 115.624V5.51791C187.202 4.93083 186.967 4.36809 186.55 3.95296C186.134 3.53782 185.568 3.30413 184.979 3.30305H106.303Z" fill="#EBEBEB"/>
<path d="M127.306 82.9692H115.759V132.824H127.306V82.9692Z" fill="#F0F0F0"/>
<path d="M174.915 132.823H117.976V135.983H174.915V132.823Z" fill="#F0F0F0"/>
<path d="M127.306 132.823H177.131V82.9684H127.306V132.823Z" fill="#F5F5F5"/>
<path d="M131.845 105.454H172.592V89.102H131.845V105.454Z" fill="#F0F0F0"/>
<path d="M131.845 126.69H172.592V110.338H131.845V126.69Z" fill="#F0F0F0"/>
<path d="M156.792 90.4854H147.645C147.346 90.4844 147.059 90.3657 146.848 90.1552C146.636 89.9447 146.517 89.6595 146.516 89.3618C146.517 89.0645 146.637 88.7797 146.848 88.5699C147.06 88.36 147.346 88.2422 147.645 88.2422H156.792C157.09 88.2422 157.377 88.36 157.588 88.5699C157.8 88.7797 157.919 89.0645 157.92 89.3618C157.919 89.6595 157.8 89.9447 157.588 90.1552C157.377 90.3657 157.091 90.4844 156.792 90.4854Z" fill="#F5F5F5"/>
<path d="M156.792 111.713H147.645C147.346 111.713 147.06 111.595 146.848 111.385C146.637 111.175 146.517 110.891 146.516 110.593C146.517 110.296 146.637 110.011 146.848 109.801C147.06 109.591 147.346 109.474 147.645 109.474H156.792C157.09 109.474 157.377 109.591 157.588 109.801C157.8 110.011 157.919 110.296 157.92 110.593C157.919 110.891 157.8 111.175 157.588 111.385C157.377 111.595 157.09 111.713 156.792 111.713Z" fill="#F5F5F5"/>
<path d="M151.972 14.2063H131.209V36.7524H151.972V14.2063Z" fill="#E0E0E0"/>
<path d="M153.214 14.2063H131.91V36.7524H153.214V14.2063Z" fill="#F5F5F5"/>
<path d="M151.426 34.9758V15.9832L133.695 15.9832V34.9758H151.426Z" fill="white"/>
<path d="M144.732 28.8668L146.834 25.2403C147.055 24.8611 147.171 24.4309 147.171 23.9929C147.171 23.5549 147.056 23.1245 146.836 22.745C146.617 22.3656 146.3 22.0503 145.92 21.8311C145.539 21.6119 145.107 21.4963 144.667 21.4961H140.442C140.002 21.4968 139.57 21.6126 139.189 21.8319C138.808 22.0511 138.492 22.3661 138.272 22.7453C138.052 23.1245 137.936 23.5546 137.936 23.9925C137.936 24.4303 138.051 24.8606 138.27 25.2403L140.376 28.8668C140.595 29.2497 140.912 29.568 141.295 29.7895C141.677 30.0109 142.112 30.1276 142.554 30.1276C142.997 30.1276 143.431 30.0109 143.814 29.7895C144.196 29.568 144.513 29.2497 144.732 28.8668Z" fill="#F5F5F5"/>
<path d="M51.7351 53.47H38.9131V136.032H51.7351V53.47Z" fill="#E0E0E0"/>
<path d="M84.4114 136.032H41.48L36.9697 34.4119H79.9011L84.4114 136.032Z" fill="#E6E6E6"/>
<path d="M90.6731 136.032H43.1866L38.6763 34.4119H86.1628L90.6731 136.032Z" fill="#F0F0F0"/>
<path d="M47.836 131.051L44.0347 39.394H81.5146L85.3159 131.051H47.836Z" fill="white"/>
<path d="M63.9373 131.051L51.1968 39.394H55.1937L67.9342 131.051H63.9373Z" fill="#FAFAFA"/>
<path d="M69.6296 131.051L56.8892 39.394H63.7055L76.446 131.051H69.6296Z" fill="#FAFAFA"/>
<path d="M154.58 80.9125H155.517C155.517 78.9897 155.517 74.1097 155.615 62.9258C155.782 42.6432 156.108 41.4263 156.108 41.4263L153.887 50.7806C152.457 61.141 154.295 71.5541 154.58 80.9125Z" fill="#E6E6E6"/>
<path d="M152.725 49.3846C149.511 45.5715 142.641 44.46 135.613 43.5108C132.855 43.1376 142.869 49.4171 147.763 53.8792C151.568 57.3435 153.996 58.3008 155.039 61.7529C155.581 57.449 155.492 52.6704 152.725 49.3846Z" fill="#E6E6E6"/>
<path d="M156.987 56.1997C160.202 52.3866 167.067 51.2751 174.1 50.3259C176.862 49.9567 166.847 56.2362 161.95 60.6943C158.149 64.1627 155.716 65.12 154.673 68.5721C154.131 64.2641 154.217 59.4855 156.987 56.1997Z" fill="#E6E6E6"/>
<path d="M155.61 40.5412C158.022 35.9817 164.085 31.6899 170.889 30.0633C173.562 29.4223 164.7 38.4805 161.335 44.3219C158.719 48.8409 155.248 54.1712 154.702 57.9843C153.887 50.4148 153.202 45.0846 155.61 40.5412Z" fill="#E6E6E6"/>
<path d="M155.325 83.0985C152.473 83.0985 150.082 81.6666 149.919 79.8533L149.442 76.7217H161.221L160.744 79.8533C160.569 81.6666 158.198 83.0985 155.325 83.0985Z" fill="#F0F0F0"/>
<path d="M161.975 77.9056H148.676L148.297 74.417H162.358L161.975 77.9056Z" fill="#F0F0F0"/>
<path d="M101.61 154.351C145.239 154.351 180.607 152.295 180.607 149.759C180.607 147.223 145.239 145.167 101.61 145.167C57.9807 145.167 22.6123 147.223 22.6123 149.759C22.6123 152.295 57.9807 154.351 101.61 154.351Z" fill="#F5F5F5"/>
<path d="M145.386 43.584C145.386 32.2875 140.879 21.4536 132.856 13.4658C124.833 5.47799 113.952 0.990479 102.606 0.990479C91.2597 0.990479 80.3783 5.47799 72.3554 13.4658C64.3324 21.4536 59.8252 32.2875 59.8252 43.584C59.8252 62.0533 71.2823 77.1517 88.1378 83.6786L117.534 95.0369L111.956 85.1633C121.444 83.0438 129.923 77.7714 135.999 70.214C142.076 62.6565 145.386 53.2645 145.386 43.584Z" fill="#1676AD"/>
<path d="M101.648 82.3236C93.7643 82.3228 86.0576 79.9944 79.5026 75.6328C72.9476 71.2712 67.8389 65.0724 64.8223 57.8201C61.8058 50.5678 61.0169 42.5878 62.5555 34.8892C64.0941 27.1905 67.8911 20.119 73.4662 14.5688C79.0414 9.01858 86.1444 5.23897 93.877 3.70789C101.61 2.17681 109.625 2.96302 116.908 5.96711C124.192 8.9712 130.418 14.0582 134.798 20.585C139.178 27.1117 141.516 34.785 141.516 42.6346C141.504 53.1578 137.3 63.2466 129.826 70.6873C122.351 78.128 112.218 82.3129 101.648 82.3236ZM101.648 3.35123C93.8449 3.35203 86.2169 5.65664 79.729 9.97364C73.241 14.2906 68.1845 20.4261 65.1988 27.6043C62.213 34.7825 61.4323 42.6809 62.9551 50.3009C64.478 57.9208 68.2362 64.9201 73.7543 70.4135C79.2725 75.907 86.3029 79.648 93.9565 81.1634C101.61 82.6788 109.543 81.9007 116.753 78.9273C123.962 75.9539 130.124 70.9189 134.459 64.4588C138.794 57.9988 141.108 50.4039 141.108 42.6346C141.091 32.2206 136.928 22.238 129.532 14.8746C122.135 7.51112 112.108 3.36732 101.648 3.35123Z" fill="white"/>
<path d="M73.6777 45.5185C73.6777 40.0179 74.8009 35.6138 77.0472 32.3064C78.08 30.7208 79.463 29.3912 81.0906 28.4189C82.7182 27.4466 84.5474 26.8574 86.4386 26.6963C90.5482 26.2527 93.7167 27.417 95.944 30.1889C98.1713 32.9609 99.2836 37.058 99.2809 42.4802C99.2809 46.4204 98.7947 49.7021 97.8223 52.3254C96.9804 54.759 95.5307 56.9394 93.6094 58.6616C91.6751 60.3015 89.2722 61.2948 86.7401 61.5012C83.9532 61.8014 81.6444 61.4444 79.8137 60.4303C77.983 59.4162 76.5026 57.6583 75.3727 55.1568C74.2427 52.6688 73.6777 49.456 73.6777 45.5185ZM81.3131 44.7397C81.3131 48.1444 81.7762 50.5391 82.7024 51.9238C83.0827 52.5651 83.6449 53.0802 84.3183 53.4043C84.9918 53.7283 85.7465 53.8469 86.4875 53.7451C87.2892 53.6618 88.0573 53.3807 88.7225 52.9274C89.3877 52.4741 89.9288 51.8629 90.297 51.149C91.1906 49.594 91.6374 46.9329 91.6374 43.1657C91.6374 39.9935 91.1689 37.7273 90.2318 36.367C89.8389 35.7309 89.2679 35.223 88.5889 34.9059C87.9098 34.5888 87.1525 34.4762 86.4101 34.5821C84.8727 34.7498 83.6368 35.626 82.7024 37.2108C81.768 38.7955 81.3049 41.3051 81.3131 44.7397Z" fill="white"/>
<path d="M103.429 25.4388L111.064 24.6275V37.3609L119.062 23.7675L129.219 22.6682L120.203 36.359L129.623 56.3211L120.219 57.3352L115.008 44.042L111.064 50.1025V58.3088L103.429 59.1201V25.4388Z" fill="white"/>
<path d="M65.8145 11.1148C65.1994 11.1156 64.598 10.9348 64.0862 10.5952C63.5745 10.2556 63.1754 9.77244 62.9395 9.20695C62.7036 8.64146 62.6414 8.01901 62.7609 7.41835C62.8804 6.81769 63.1761 6.26581 63.6107 5.83254C64.0453 5.39927 64.5993 5.10409 65.2024 4.98433C65.8056 4.86458 66.4308 4.92563 66.9991 5.15978C67.5674 5.39392 68.0531 5.79063 68.3949 6.29971C68.7367 6.80878 68.9191 7.40736 68.9191 8.01969C68.918 8.83953 68.5907 9.62556 68.0088 10.2057C67.427 10.7858 66.6379 11.1127 65.8145 11.1148ZM65.8145 5.33427C65.2799 5.33347 64.757 5.49062 64.3122 5.78584C63.8673 6.08105 63.5205 6.50105 63.3155 6.99265C63.1105 7.48425 63.0567 8.02535 63.1608 8.54743C63.2649 9.06952 63.5223 9.54911 63.9003 9.92548C64.2783 10.3019 64.76 10.5581 65.2844 10.6617C65.8088 10.7654 66.3522 10.7118 66.846 10.5077C67.3398 10.3037 67.7616 9.9583 68.0581 9.5154C68.3546 9.0725 68.5125 8.55196 68.5117 8.01969C68.5106 7.3078 68.2261 6.62537 67.7205 6.12199C67.2149 5.61861 66.5295 5.33534 65.8145 5.33427Z" fill="#1676AD"/>
<path d="M96.034 93.5195C95.6228 93.5195 95.2209 93.3981 94.8791 93.1706C94.5373 92.943 94.271 92.6197 94.1138 92.2414C93.9567 91.8632 93.9158 91.447 93.9963 91.0456C94.0768 90.6441 94.2751 90.2755 94.5661 89.9864C94.8571 89.6972 95.2277 89.5005 95.6311 89.4211C96.0344 89.3417 96.4524 89.3833 96.832 89.5405C97.2116 89.6977 97.5358 89.9635 97.7637 90.3042C97.9915 90.645 98.1127 91.0454 98.1119 91.4547C98.1108 92.0027 97.8914 92.5279 97.5018 92.915C97.1123 93.3021 96.5844 93.5195 96.034 93.5195ZM96.034 89.7916C95.7036 89.7916 95.3806 89.8891 95.1059 90.0718C94.8312 90.2546 94.6171 90.5144 94.4906 90.8183C94.3642 91.1222 94.3311 91.4566 94.3956 91.7792C94.46 92.1018 94.6191 92.3982 94.8528 92.6308C95.0864 92.8634 95.384 93.0218 95.7081 93.0859C96.0321 93.1501 96.368 93.1172 96.6732 92.9913C96.9785 92.8654 97.2394 92.6522 97.4229 92.3787C97.6065 92.1052 97.7044 91.7837 97.7044 91.4547C97.7044 91.0136 97.5284 90.5906 97.2152 90.2787C96.9019 89.9668 96.477 89.7916 96.034 89.7916Z" fill="#1676AD"/>
<path d="M134.752 10.1664C134.752 10.3143 134.708 10.459 134.625 10.5819C134.542 10.7048 134.425 10.8004 134.287 10.8567C134.15 10.9129 133.998 10.9272 133.853 10.8978C133.707 10.8683 133.574 10.7964 133.469 10.6912C133.365 10.586 133.294 10.4523 133.266 10.3069C133.238 10.1616 133.254 10.0113 133.312 9.87507C133.37 9.73883 133.467 9.62283 133.592 9.5418C133.716 9.46076 133.862 9.41836 134.01 9.41997C134.208 9.4221 134.396 9.50168 134.535 9.64143C134.674 9.78118 134.752 9.96981 134.752 10.1664Z" fill="#1676AD"/>
<path d="M88.4676 90.7083C88.4676 90.8561 88.4235 91.0006 88.341 91.1234C88.2584 91.2463 88.1411 91.3419 88.0039 91.3983C87.8667 91.4547 87.7157 91.4692 87.5702 91.4401C87.4246 91.4109 87.2911 91.3395 87.1864 91.2347C87.0817 91.1299 87.0106 90.9965 86.9822 90.8514C86.9537 90.7064 86.9691 90.5562 87.0265 90.4199C87.0839 90.2836 87.1806 90.1673 87.3044 90.0857C87.4282 90.0042 87.5736 89.9611 87.722 89.9619C87.9201 89.963 88.1098 90.0421 88.2495 90.182C88.3892 90.3218 88.4676 90.5111 88.4676 90.7083Z" fill="#1676AD"/>
<path d="M160.716 150.644L163.169 160.201L167.769 159.078L165.312 149.517L160.716 150.644Z" fill="#FF8B7B"/>
<path d="M167.878 157.126L162.667 158.238C162.586 158.253 162.514 158.299 162.465 158.365C162.416 158.431 162.394 158.513 162.402 158.595L162.761 162.392C162.772 162.487 162.804 162.579 162.853 162.662C162.902 162.744 162.968 162.816 163.047 162.872C163.125 162.927 163.215 162.966 163.309 162.986C163.404 163.005 163.502 163.004 163.596 162.984C165.226 162.578 165.719 162.359 167.78 161.913C170.192 161.386 171.04 161.527 173.892 160.911C175.603 160.538 175.522 158.753 174.76 158.749C172.732 158.752 170.739 158.223 168.982 157.215C168.639 157.046 168.244 157.014 167.878 157.126Z" fill="#263238"/>
<path opacity="0.2" d="M160.712 150.649L161.979 155.573L166.579 154.45L165.312 149.521L160.712 150.649Z" fill="black"/>
<path d="M152.518 113.827C147.042 97.7838 142.703 78.8601 142.703 78.8601L158.328 77.8784C158.328 77.8784 160.63 102.445 161.832 113.771C163.079 125.534 166.962 152.125 166.962 152.125L159.913 153.549C159.913 153.549 153.3 128.508 152.518 113.827Z" fill="#1676AD"/>
<path opacity="0.2" d="M149.91 87.7764L146.117 92.4454C147.083 96.0476 148.215 100.096 149.454 104.238C150.166 98.7802 150.319 93.2647 149.91 87.7764Z" fill="black"/>
<path d="M166.856 153.111L160.394 154.523C160.265 154.55 160.131 154.53 160.016 154.465C159.901 154.401 159.814 154.298 159.77 154.174L159.057 152.097C159.034 152.027 159.025 151.953 159.032 151.879C159.039 151.805 159.061 151.733 159.097 151.669C159.133 151.604 159.182 151.547 159.241 151.502C159.3 151.457 159.368 151.425 159.44 151.408L166.456 149.765C166.532 149.747 166.611 149.746 166.687 149.761C166.763 149.777 166.835 149.808 166.897 149.854C166.959 149.9 167.011 149.959 167.048 150.027C167.085 150.095 167.107 150.17 167.112 150.247L167.275 152.556C167.285 152.683 167.248 152.81 167.171 152.912C167.093 153.014 166.981 153.085 166.856 153.111Z" fill="#263238"/>
<path opacity="0.1" d="M166.856 153.111L160.394 154.523C160.265 154.55 160.131 154.53 160.016 154.465C159.901 154.401 159.814 154.298 159.77 154.174L159.057 152.097C159.034 152.027 159.025 151.953 159.032 151.879C159.039 151.805 159.061 151.733 159.097 151.669C159.133 151.604 159.182 151.547 159.241 151.502C159.3 151.457 159.368 151.425 159.44 151.408L166.456 149.765C166.532 149.747 166.611 149.746 166.687 149.761C166.763 149.777 166.835 149.808 166.897 149.854C166.959 149.9 167.011 149.959 167.048 150.027C167.085 150.095 167.107 150.17 167.112 150.247L167.275 152.556C167.285 152.683 167.248 152.81 167.171 152.912C167.093 153.014 166.981 153.085 166.856 153.111Z" fill="white"/>
<path d="M134.942 150.312L134.652 160.173L139.391 160.108L139.68 150.247L134.942 150.312Z" fill="#FF8B7B"/>
<path d="M139.504 158.084L134.468 158.157C134.386 158.156 134.307 158.186 134.246 158.241C134.185 158.296 134.147 158.371 134.138 158.453L133.731 162.246C133.724 162.341 133.736 162.438 133.768 162.528C133.8 162.619 133.851 162.702 133.917 162.772C133.983 162.842 134.062 162.898 134.151 162.936C134.24 162.974 134.335 162.993 134.432 162.992C136.106 162.939 136.636 162.801 138.747 162.769C141.216 162.728 141.749 163.037 144.642 162.992C146.394 162.964 146.679 161.199 145.926 161.045C143.942 160.644 142.099 159.732 140.58 158.4C140.276 158.161 139.89 158.047 139.504 158.084Z" fill="#263238"/>
<path opacity="0.2" d="M134.941 150.316L134.791 155.399L139.533 155.33L139.68 150.247L134.941 150.316Z" fill="black"/>
<path d="M136.123 113.503C137.459 96.6236 136.331 87.5208 138.299 79.136L152.518 78.2598C152.518 78.2598 148.106 103.069 145.665 114.29C143.225 125.51 140.609 152.766 140.609 152.766L133.621 152.851C133.621 152.851 132.766 126.67 136.123 113.503Z" fill="#1676AD"/>
<path d="M140.58 154.015L133.972 154.117C133.834 154.118 133.701 154.067 133.6 153.975C133.498 153.882 133.436 153.754 133.426 153.618L133.283 151.443C133.279 151.372 133.289 151.301 133.313 151.233C133.336 151.166 133.373 151.104 133.422 151.051C133.47 150.998 133.528 150.955 133.593 150.925C133.658 150.895 133.729 150.878 133.801 150.875L141 150.652C141.08 150.65 141.16 150.666 141.234 150.699C141.307 150.732 141.372 150.78 141.424 150.841C141.476 150.903 141.514 150.975 141.534 151.052C141.555 151.129 141.557 151.211 141.542 151.289L141.098 153.581C141.075 153.702 141.011 153.811 140.917 153.89C140.823 153.969 140.704 154.013 140.58 154.015Z" fill="#263238"/>
<path opacity="0.1" d="M140.58 154.015L133.972 154.117C133.834 154.118 133.701 154.067 133.6 153.975C133.498 153.882 133.436 153.754 133.426 153.618L133.283 151.443C133.279 151.372 133.289 151.301 133.313 151.233C133.336 151.166 133.373 151.104 133.422 151.051C133.47 150.998 133.528 150.955 133.593 150.925C133.658 150.895 133.729 150.878 133.801 150.875L141 150.652C141.08 150.65 141.16 150.666 141.234 150.699C141.307 150.732 141.372 150.78 141.424 150.841C141.476 150.903 141.514 150.975 141.534 151.052C141.555 151.129 141.557 151.211 141.542 151.289L141.098 153.581C141.075 153.702 141.011 153.811 140.917 153.89C140.823 153.969 140.704 154.013 140.58 154.015Z" fill="white"/>
<path d="M158.014 49.6652L158.829 50.9958L159.73 52.3628C160.312 53.2593 160.919 54.1355 161.526 54.9915C162.134 55.8474 162.777 56.6587 163.425 57.4254C164.001 58.1085 164.645 58.7311 165.348 59.2833L163.356 58.9871C164.164 58.8216 164.955 58.577 165.715 58.257C166.55 57.9021 167.366 57.504 168.159 57.0643C168.974 56.6222 169.789 56.1313 170.604 55.6202C171.419 55.1091 172.234 54.5533 173.004 54.0341L173.069 53.9936C173.348 53.7985 173.688 53.7096 174.027 53.743C174.366 53.7765 174.682 53.93 174.917 54.1757C175.151 54.4214 175.29 54.7429 175.307 55.0818C175.324 55.4206 175.218 55.7542 175.008 56.0218C174.369 56.8775 173.673 57.6905 172.926 58.4557C172.185 59.2208 171.4 59.9427 170.576 60.6179C169.723 61.3148 168.82 61.948 167.874 62.5122C166.859 63.1242 165.774 63.6144 164.643 63.9726C164.339 64.0657 164.019 64.0954 163.703 64.0598C163.387 64.0242 163.081 63.9241 162.806 63.7657L162.651 63.6765C161.483 62.9827 160.411 62.1385 159.465 61.1655C159.022 60.722 158.597 60.273 158.19 59.8187C157.782 59.3644 157.395 58.9006 157.028 58.4273C156.279 57.4943 155.59 56.537 154.934 55.5594C154.608 55.0726 154.286 54.5817 153.981 54.0787C153.675 53.5757 153.382 53.0889 153.072 52.5291C152.777 51.8902 152.731 51.1649 152.942 50.4939C153.153 49.8228 153.607 49.2537 154.216 48.8967C154.824 48.5397 155.544 48.4203 156.236 48.5615C156.928 48.7027 157.543 49.0946 157.961 49.6612L158.014 49.6652Z" fill="#FF8B7B"/>
<path d="M135.859 59.729L135.041 61.0579L134.23 62.4792C133.694 63.4044 133.188 64.3419 132.7 65.2702C132.212 66.1985 131.78 67.1389 131.39 68.0626C131.042 68.8841 130.78 69.739 130.607 70.6139L129.963 68.7136C130.48 69.3545 131.059 69.943 131.692 70.4707C132.39 71.0488 133.118 71.5902 133.873 72.0927C134.64 72.613 135.45 73.1111 136.278 73.6C137.107 74.0889 137.975 74.5574 138.791 75.0028L138.857 75.0421C139.158 75.2001 139.393 75.4607 139.517 75.7764C139.642 76.092 139.649 76.4418 139.537 76.7621C139.424 77.0823 139.2 77.3517 138.905 77.5212C138.61 77.6907 138.263 77.749 137.928 77.6856C136.872 77.5089 135.828 77.2635 134.803 76.951C133.781 76.6432 132.778 76.277 131.798 75.8542C130.787 75.417 129.809 74.9059 128.873 74.3249C127.863 73.7044 126.93 72.9671 126.094 72.1283C125.872 71.9013 125.7 71.6312 125.587 71.3348C125.475 71.0385 125.425 70.7222 125.441 70.4058L125.45 70.2279C125.537 68.8763 125.803 67.542 126.241 66.2596C126.436 65.6651 126.643 65.0836 126.863 64.5154C127.083 63.9472 127.321 63.3927 127.577 62.8519C128.069 61.7621 128.611 60.7154 129.185 59.6883C129.472 59.1775 129.764 58.6684 130.074 58.1682C130.384 57.668 130.686 57.1861 131.045 56.6564C131.481 56.1036 132.108 55.7317 132.805 55.6128C133.501 55.4939 134.216 55.6365 134.813 56.0129C135.41 56.3893 135.845 56.9727 136.034 57.6502C136.224 58.3277 136.154 59.0511 135.838 59.6802L135.859 59.729Z" fill="#FF8B7B"/>
<path d="M151.837 44.25C157.358 44.8747 161.534 53.3853 161.534 53.3853L155.83 59.4174C155.83 59.4174 153.296 56.4074 150.57 52.5984C147.608 48.4607 147.469 43.7592 151.837 44.25Z" fill="#263238"/>
<path d="M151.402 45.5356C149.279 44.7852 142.63 45.9088 142.63 45.9088C144.492 48.2819 145.73 67.9398 145.889 79.2453C147.906 79.5212 152.698 79.4847 154.494 79.0709C154.27 74.6331 152.804 53.4256 151.402 45.5356Z" fill="white"/>
<path d="M158.654 51.4909C158.403 49.4464 157.408 47.5644 155.856 46.2021C154.305 44.8397 152.305 44.0917 150.236 44.0999C146.264 44.1329 142.305 44.5679 138.421 45.398C137.818 45.528 137.247 45.7766 136.742 46.1291C136.237 46.4817 135.808 46.9311 135.48 47.451C135.151 47.9709 134.931 48.5509 134.831 49.1568C134.73 49.7628 134.753 50.3826 134.896 50.9798C137.822 63.2021 137.052 74.7956 137.834 80.1867C141.022 80.9773 144.299 81.3523 147.584 81.3023C147.584 81.3023 147.466 79.8014 147.319 77.3715C147.266 76.4223 146.04 47.9698 144.129 45.5238C144.129 45.5238 148.228 45.1181 150.35 45.8564C151.927 54.7158 153.402 81.3145 153.402 81.3185C156.755 81.0792 159.106 79.132 159.061 78.5763C159.73 67.7008 159.404 57.8556 158.654 51.4909Z" fill="#263238"/>
<path d="M141.945 35.5203C142.569 37.9096 143.298 42.1121 142.153 44.4081C142.036 44.6319 142 44.8893 142.052 45.1363C142.104 45.3834 142.241 45.6048 142.438 45.763C143.909 46.8947 145.8 47.9454 148.55 47.7912C151.439 47.6168 151.223 45.8968 150.489 44.7488C150.414 44.6273 150.315 44.5221 150.198 44.4398C150.081 44.3575 149.949 44.2998 149.809 44.2702C147.079 43.7104 147.046 41.5483 147.438 39.4713L141.945 35.5203Z" fill="#FF8B7B"/>
<path opacity="0.2" d="M144.182 37.1265L147.441 39.4549C147.339 39.9573 147.281 40.4677 147.27 40.9802C146.092 40.9274 144.418 39.8078 144.214 38.603C144.114 38.1168 144.103 37.6166 144.182 37.1265Z" fill="black"/>
<path d="M150.958 32.4858C151.695 31.999 152.086 28.6443 150.958 27.5571C152.123 26.5349 151.451 24.2592 149.854 23.8738C148.256 23.4884 147.083 24.535 145.025 23.2207C144.671 23.6994 144.875 24.3119 145.49 24.6689C146.378 25.1841 150.958 32.4858 150.958 32.4858Z" fill="#263238"/>
<path d="M140.943 31.4632C141.497 35.114 141.632 37.3005 143.669 39.0124C146.737 41.5883 151.158 39.4586 151.716 35.6941C152.221 32.3069 151.231 26.8834 147.479 25.7638C146.647 25.5161 145.766 25.4826 144.917 25.6664C144.069 25.8503 143.282 26.2455 142.629 26.815C141.976 27.3845 141.478 28.1096 141.184 28.9226C140.889 29.7356 140.806 30.6097 140.943 31.4632Z" fill="#FF8B7B"/>
<path d="M142.067 34.5623C143.049 34.1039 142.511 30.1853 142.271 29.4146C144.85 29.7715 152.102 27.8447 149.715 25.0376C147.971 23.0093 142.882 25.3297 140.715 23.5813C140.071 24.2669 140.967 25.0782 140.967 25.0782C140.967 25.0782 137.524 25.8895 138.93 28.3234C136.135 28.1976 138.05 34.968 142.067 34.5623Z" fill="#263238"/>
<path d="M139.578 26.7746C138.221 27.8333 137.687 27.3587 136.901 26.6448C136.713 28.7258 138.376 28.9935 139.146 28.7785C139.651 28.1295 139.578 26.7746 139.578 26.7746Z" fill="#263238"/>
<path d="M139.737 34.8306C140.19 35.593 140.919 36.1544 141.774 36.4005C142.854 36.6804 143.261 35.5892 142.85 34.5142C142.479 33.5284 141.468 32.1979 140.438 32.4048C139.407 32.6117 139.15 33.8651 139.737 34.8306Z" fill="#FF8B7B"/>
<path d="M146.003 31.7882C146.031 32.0884 146.211 32.3156 146.41 32.2953C146.61 32.275 146.744 32.0194 146.716 31.7193C146.687 31.4191 146.508 31.1919 146.309 31.2122C146.109 31.2325 145.978 31.488 146.003 31.7882Z" fill="#263238"/>
<path d="M149.397 31.2081C149.426 31.5083 149.605 31.7355 149.804 31.7193C150.004 31.703 150.139 31.4394 150.11 31.1392C150.081 30.839 149.902 30.6118 149.703 30.6321C149.503 30.6524 149.373 30.908 149.397 31.2081Z" fill="#263238"/>
<path d="M148.187 31.561C148.187 31.561 149.026 33.2283 149.853 33.9949C149.364 34.5426 148.436 34.4006 148.436 34.4006L148.187 31.561Z" fill="#FF5652"/>
<path d="M147.507 35.8616C147.169 35.8898 146.829 35.8477 146.508 35.738C146.188 35.6284 145.894 35.4536 145.645 35.2247C145.634 35.2172 145.625 35.2074 145.618 35.196C145.611 35.1845 145.607 35.1718 145.606 35.1586C145.605 35.1455 145.607 35.1322 145.612 35.1199C145.616 35.1075 145.624 35.0963 145.633 35.0871C145.643 35.0779 145.654 35.071 145.667 35.0667C145.679 35.0625 145.693 35.0611 145.706 35.0626C145.719 35.0641 145.732 35.0685 145.743 35.0755C145.754 35.0825 145.764 35.0919 145.771 35.103C146.053 35.3498 146.39 35.5268 146.754 35.6198C147.118 35.7129 147.498 35.7193 147.865 35.6385C147.888 35.6337 147.913 35.6382 147.933 35.6512C147.952 35.6641 147.966 35.6843 147.971 35.7075C147.975 35.731 147.969 35.7551 147.956 35.7747C147.942 35.7943 147.921 35.808 147.898 35.8129C147.768 35.8366 147.638 35.8529 147.507 35.8616Z" fill="#263238"/>
<path d="M144.732 31.2926C144.702 31.3008 144.671 31.3008 144.642 31.2926C144.599 31.2731 144.565 31.2376 144.548 31.1938C144.53 31.1499 144.53 31.101 144.548 31.0574C144.657 30.7961 144.826 30.5643 145.042 30.381C145.258 30.1976 145.515 30.0679 145.791 30.0027C145.814 29.9986 145.838 29.9992 145.86 30.0044C145.883 30.0096 145.905 30.0193 145.924 30.0329C145.943 30.0465 145.959 30.0637 145.971 30.0836C145.983 30.1035 145.991 30.1256 145.995 30.1487C146.002 30.1954 145.991 30.243 145.963 30.2816C145.936 30.3201 145.895 30.3467 145.848 30.3556C145.63 30.4094 145.428 30.514 145.259 30.6607C145.09 30.8074 144.958 30.992 144.874 31.1993C144.86 31.2257 144.84 31.2481 144.815 31.2644C144.79 31.2808 144.761 31.2905 144.732 31.2926Z" fill="#263238"/>
<path d="M150.689 29.5985C150.66 29.6054 150.631 29.6057 150.603 29.5994C150.575 29.593 150.548 29.5803 150.526 29.562C150.363 29.4134 150.168 29.3053 149.955 29.2467C149.743 29.1882 149.519 29.1809 149.303 29.2253C149.258 29.2379 149.209 29.2322 149.168 29.2094C149.127 29.1866 149.097 29.1486 149.083 29.1036C149.072 29.0585 149.078 29.0107 149.101 28.9699C149.123 28.9292 149.161 28.8987 149.206 28.8846C149.48 28.8225 149.765 28.8269 150.037 28.8975C150.31 28.9681 150.561 29.1028 150.77 29.2902C150.802 29.3242 150.821 29.3692 150.821 29.416C150.821 29.4628 150.802 29.5078 150.77 29.5417C150.748 29.5668 150.72 29.5863 150.689 29.5985Z" fill="#263238"/>
<path d="M137.948 45.5273C131.792 47.0728 130.081 54.91 130.081 54.91L137.728 60.3701C137.728 60.3701 139.623 58.3946 140.193 53.758C140.466 51.5512 139.195 45.4665 137.948 45.5273Z" fill="#263238"/>
<path d="M137.007 74.0588L140.564 75.3813L137.842 79.0321C137.842 79.0321 134.766 77.446 135.345 75.6814L137.007 74.0588Z" fill="#FF8B7B"/>
<path d="M142.219 78.9388L141.049 80.0543C140.824 80.2688 140.53 80.3967 140.218 80.4153C139.907 80.4339 139.6 80.3419 139.35 80.1557L137.831 79.0159L140.552 75.365L142.243 77.0525C142.369 77.1761 142.469 77.3238 142.537 77.4868C142.604 77.6497 142.637 77.8246 142.635 78.0008C142.633 78.1771 142.595 78.351 142.523 78.5122C142.452 78.6734 142.348 78.8185 142.219 78.9388Z" fill="#FF8B7B"/>
<path d="M177.424 55.3326L176.989 53.353C176.943 53.1488 176.824 52.968 176.655 52.8442C176.486 52.7203 176.277 52.6619 176.068 52.6796C175.436 52.7327 174.825 52.9268 174.279 53.2475L171.834 54.6917L172.05 56.9877C173.065 58.5454 176.235 57.1499 176.235 57.1499L176.496 57.0485C176.831 56.9201 177.109 56.6765 177.279 56.3617C177.449 56.047 177.501 55.6819 177.424 55.3326Z" fill="#FF8B7B"/>
<path d="M171.521 55.576C171.37 54.8012 171.708 54.1765 171.631 53.4463C171.565 52.8094 171.737 52.0955 171.533 51.2274C171.777 50.8217 172.661 51.1544 172.674 52.2293C172.947 53.3327 174.165 53.1745 174.65 53.0406C174.65 53.0528 173.004 55.9046 171.521 55.576Z" fill="#FF8B7B"/>
</svg>
