<svg width="193" height="144" viewBox="0 0 193 144" fill="none" xmlns="http://www.w3.org/2000/svg">
<path d="M192.278 126.374H0.738281V126.469H192.278V126.374Z" fill="#EBEBEB"/>
<path d="M121.664 128.982H111.911V129.078H121.664V128.982Z" fill="#EBEBEB"/>
<path d="M175.208 131.055H152.097V131.151H175.208V131.055Z" fill="#EBEBEB"/>
<path d="M109.835 129.029H85.958V129.125H109.835V129.029Z" fill="#EBEBEB"/>
<path d="M70.4748 131.894H65.4795V131.989H70.4748V131.894Z" fill="#EBEBEB"/>
<path d="M98.0743 131.894H75.3271V131.989H98.0743V131.894Z" fill="#EBEBEB"/>
<path d="M35.5634 130.277H20.834V130.373H35.5634V130.277Z" fill="#EBEBEB"/>
<path d="M91.5282 109.288H17.5595C16.9801 109.287 16.4247 109.056 16.0153 108.646C15.6059 108.236 15.376 107.68 15.376 107.101V3.12184C15.381 2.5457 15.6132 1.99481 16.022 1.58884C16.4309 1.18287 16.9834 0.9546 17.5595 0.953613H91.5282C92.1083 0.953613 92.6647 1.18407 93.0749 1.59428C93.4851 2.00449 93.7155 2.56086 93.7155 3.14099V107.101C93.7155 107.681 93.4851 108.237 93.0749 108.648C92.6647 109.058 92.1083 109.288 91.5282 109.288ZM17.5595 1.03023C17.0055 1.03124 16.4744 1.25206 16.083 1.6442C15.6916 2.03634 15.4717 2.56777 15.4717 3.12184V107.101C15.4717 107.655 15.6916 108.186 16.083 108.578C16.4744 108.971 17.0055 109.191 17.5595 109.192H91.5282C92.0826 109.191 92.614 108.971 93.006 108.579C93.3981 108.187 93.6188 107.655 93.6198 107.101V3.12184C93.6188 2.56742 93.3981 2.036 93.006 1.64397C92.614 1.25193 92.0826 1.03124 91.5282 1.03023H17.5595Z" fill="#EBEBEB"/>
<path d="M174.392 109.288H100.42C99.84 109.287 99.2842 109.056 98.8742 108.646C98.4642 108.236 98.2334 107.681 98.2324 107.101V3.12184C98.2385 2.54535 98.4715 1.99447 98.8809 1.5886C99.2904 1.18274 99.8433 0.954589 100.42 0.953613H174.392C174.968 0.955607 175.519 1.18432 175.927 1.59019C176.335 1.99605 176.567 2.54636 176.572 3.12184V107.101C176.572 107.68 176.343 108.235 175.934 108.645C175.525 109.055 174.971 109.286 174.392 109.288ZM100.42 1.03023C99.8654 1.03124 99.334 1.25193 98.9419 1.64397C98.5499 2.036 98.3292 2.56742 98.3282 3.12184V107.101C98.3292 107.655 98.5499 108.187 98.9419 108.579C99.334 108.971 99.8654 109.191 100.42 109.192H174.392C174.947 109.191 175.478 108.971 175.87 108.579C176.262 108.187 176.483 107.655 176.484 107.101V3.12184C176.483 2.56742 176.262 2.036 175.87 1.64397C175.478 1.25193 174.947 1.03124 174.392 1.03023H100.42Z" fill="#EBEBEB"/>
<path d="M103.384 11.5918H34.7021V35.5151H103.384V11.5918Z" fill="#F0F0F0"/>
<path d="M102.078 34.2091V12.8984L36.0086 12.8984V34.2091H102.078Z" fill="#E6E6E6"/>
<path d="M58.4538 11.8604H57.1475V35.2435H58.4538V11.8604Z" fill="#F0F0F0"/>
<path d="M49.9111 34.2051H57.1475V12.8944H49.9111V34.2051Z" fill="#E0E0E0"/>
<path d="M72.3476 34.2051H79.584V12.8944H72.3476V34.2051Z" fill="#E0E0E0"/>
<path d="M94.8418 34.2051H102.078V12.8944H94.8418V34.2051Z" fill="#E0E0E0"/>
<path d="M80.8942 11.8604H79.5879V35.2435H80.8942V11.8604Z" fill="#F0F0F0"/>
<path d="M28.1975 35.5117H34.7021V11.5885H28.1975L28.1975 35.5117Z" fill="#E6E6E6"/>
<path d="M52.6612 34.2089H40.6172L43.4443 16.0356H55.4883L52.6612 34.2089Z" fill="#EBEBEB"/>
<path d="M76.1963 34.2089H64.1523L66.244 16.0356H78.2879L76.1963 34.2089Z" fill="#F5F5F5"/>
<path d="M70.4434 34.209H59.4873L64.0957 17.6792H75.0518L70.4434 34.209Z" fill="#E0E0E0"/>
<path d="M48.0528 14.5688H36.0088V34.2093H48.0528V14.5688Z" fill="#F5F5F5"/>
<path d="M99.4385 14.5688H87.3945V34.2093H99.4385V14.5688Z" fill="#F5F5F5"/>
<path d="M90.9109 34.209H81.5791L84.8238 17.6792H94.1556L90.9109 34.209Z" fill="#E0E0E0"/>
<path d="M86.2643 34.2087H80.8936V18.8779H91.3976L86.2643 34.2087Z" fill="#F5F5F5"/>
<path d="M99.4382 14.5688H96.6953V34.2093H99.4382V14.5688Z" fill="#FAFAFA"/>
<path d="M44.5818 32.7491C44.4863 32.7491 44.3947 32.7112 44.3272 32.6437C44.2596 32.5761 44.2217 32.4845 44.2217 32.389V16.3993C44.2212 16.3517 44.2301 16.3045 44.248 16.2603C44.2659 16.2162 44.2923 16.1761 44.3258 16.1422C44.3593 16.1084 44.3992 16.0815 44.4431 16.0632C44.487 16.0448 44.5342 16.0354 44.5818 16.0354C44.6313 16.0322 44.6809 16.0393 44.7276 16.0562C44.7742 16.0732 44.8169 16.0995 44.8528 16.1337C44.8888 16.1679 44.9173 16.2091 44.9366 16.2548C44.9559 16.3005 44.9655 16.3497 44.9649 16.3993V32.366C44.9683 32.4172 44.9607 32.4685 44.9426 32.5166C44.9246 32.5646 44.8965 32.6082 44.8602 32.6444C44.8239 32.6807 44.7803 32.7088 44.7323 32.7269C44.6843 32.7449 44.633 32.7525 44.5818 32.7491Z" fill="#F0F0F0"/>
<path d="M125.875 35.5151H57.1924V59.4384H125.875V35.5151Z" fill="#F0F0F0"/>
<path d="M124.572 58.1319V36.8213L58.5027 36.8213V58.1319H124.572Z" fill="#E6E6E6"/>
<path d="M80.943 35.7832H79.6367V59.1663H80.943V35.7832Z" fill="#F0F0F0"/>
<path d="M72.4004 58.1284H79.6367V36.8178H72.4004V58.1284Z" fill="#E0E0E0"/>
<path d="M94.8369 58.1284H102.073V36.8178H94.8369V58.1284Z" fill="#E0E0E0"/>
<path d="M117.332 58.1284H124.568V36.8178H117.332V58.1284Z" fill="#E0E0E0"/>
<path d="M103.388 35.7832H102.082V59.1663H103.388V35.7832Z" fill="#F0F0F0"/>
<path d="M50.6877 59.4346H57.1924V35.5113H50.6877V59.4346Z" fill="#E6E6E6"/>
<path d="M97.5459 58.1283H85.502L88.3329 39.9551H100.373L97.5459 58.1283Z" fill="#EBEBEB"/>
<path d="M121.183 58.1283H109.139L111.23 39.9551H123.274L121.183 58.1283Z" fill="#F5F5F5"/>
<path d="M115.425 58.128H104.473L109.081 41.5981H120.037L115.425 58.128Z" fill="#E0E0E0"/>
<path d="M92.9375 38.4878H80.8936V58.1282H92.9375V38.4878Z" fill="#F5F5F5"/>
<path d="M77.044 38.4878H65V58.1282H77.044V38.4878Z" fill="#F5F5F5"/>
<path d="M68.5163 58.128H59.1807L62.4253 41.5981H71.761L68.5163 58.128Z" fill="#E0E0E0"/>
<path d="M63.8698 58.1282H58.499V42.8013H68.9992L63.8698 58.1282Z" fill="#F5F5F5"/>
<path d="M77.0446 38.4878H74.3018V58.1282H77.0446V38.4878Z" fill="#FAFAFA"/>
<path d="M89.4714 56.6611C89.4234 56.6616 89.3759 56.6526 89.3315 56.6345C89.2871 56.6164 89.2468 56.5896 89.2129 56.5557C89.179 56.5218 89.1522 56.4815 89.1341 56.4371C89.116 56.3927 89.1069 56.3451 89.1074 56.2972V40.319C89.1121 40.224 89.1519 40.1341 89.2192 40.0668C89.2865 39.9996 89.3764 39.9597 89.4714 39.9551C89.5657 39.9606 89.6547 40.0009 89.7211 40.0681C89.7876 40.1352 89.8269 40.2246 89.8315 40.319V56.2972C89.832 56.3448 89.823 56.3921 89.8052 56.4362C89.7873 56.4803 89.7608 56.5205 89.7274 56.5543C89.6939 56.5882 89.654 56.615 89.6101 56.6334C89.5661 56.6517 89.519 56.6611 89.4714 56.6611Z" fill="#F0F0F0"/>
<path d="M108.291 25.1719V30.0676C108.3 31.5109 108.878 32.8923 109.899 33.9122C110.921 34.932 112.303 35.508 113.746 35.515C115.193 35.513 116.58 34.9393 117.605 33.9189C118.631 32.8985 119.211 31.5142 119.22 30.0676V25.1719H108.291Z" fill="#EBEBEB"/>
<path d="M74.0099 89.9736H39.8584V93.9538H74.0099V89.9736Z" fill="#E6E6E6"/>
<path d="M74.0106 93.9536H42.127V120.022H74.0106V93.9536Z" fill="#EBEBEB"/>
<path d="M74.0096 120.022L150.89 120.022V93.954L74.0096 93.954V120.022Z" fill="#F5F5F5"/>
<path d="M42.126 95.4287L150.89 95.4287V93.9577L42.126 93.9577V95.4287Z" fill="#E0E0E0"/>
<path d="M74.0103 93.9536L153.158 93.9536V89.9734L74.0103 89.9734V93.9536Z" fill="#F0F0F0"/>
<path d="M42.127 120.022V126.374L48.4784 120.022H42.127Z" fill="#EBEBEB"/>
<path d="M74.0098 120.022V126.374L80.3612 120.022H74.0098Z" fill="#F5F5F5"/>
<path d="M150.89 120.022V126.374L144.539 120.022H150.89Z" fill="#F5F5F5"/>
<path d="M74.0096 120.022V126.374L67.6582 120.022H74.0096Z" fill="#EBEBEB"/>
<path d="M119.006 120.022V126.374L112.654 120.022H119.006Z" fill="#E0E0E0"/>
<path d="M119.006 120.022V126.374L125.357 120.022H119.006Z" fill="#E0E0E0"/>
<path d="M94.6278 75.8569L92.3101 89.008H82.285L81.9287 89.9734H92.1378H98.3819H115.341L117.831 75.8569H94.6278Z" fill="#E0E0E0"/>
<path d="M164.026 19.188H136.919V64.0082H164.026V19.188Z" fill="#E0E0E0"/>
<path d="M164.857 19.188H137.75V64.0082H164.857V19.188Z" fill="#F0F0F0"/>
<path d="M151.388 50.8922H148.967L151.215 32.3091H153.637L151.388 50.8922Z" fill="#FAFAFA"/>
<path d="M157.793 50.8922H155.372L157.621 32.3091H160.042L157.793 50.8922Z" fill="#FAFAFA"/>
<path d="M144.986 50.8922H142.565L144.814 32.3091H147.235L144.986 50.8922Z" fill="#FAFAFA"/>
<path d="M96.5075 143.673C137.529 143.673 170.783 141.732 170.783 139.337C170.783 136.942 137.529 135 96.5075 135C55.4865 135 22.2324 136.942 22.2324 139.337C22.2324 141.732 55.4865 143.673 96.5075 143.673Z" fill="#F5F5F5"/>
<path d="M57.6562 135.755H60.5025L60.6251 129.163H57.7788L57.6562 135.755Z" fill="#B55B52"/>
<path d="M40.5703 135.755H43.4166L44.6846 129.163H41.8383L40.5703 135.755Z" fill="#B55B52"/>
<path d="M43.6081 135.415H40.4132C40.3575 135.414 40.3031 135.432 40.2597 135.467C40.2162 135.502 40.1865 135.551 40.1757 135.606L39.6739 138.138C39.6626 138.201 39.6652 138.265 39.6816 138.326C39.6981 138.387 39.7279 138.444 39.7689 138.493C39.8099 138.541 39.8612 138.58 39.9189 138.606C39.9767 138.632 40.0395 138.645 40.1029 138.644C41.2177 138.644 41.7578 138.56 43.1676 138.56C44.0333 138.56 45.8185 138.648 46.9984 138.648C48.1782 138.648 48.32 137.468 47.8258 137.361C45.6231 136.882 44.7612 136.211 44.064 135.587C43.9367 135.478 43.7755 135.417 43.6081 135.415Z" fill="#263238"/>
<path d="M60.4749 135.415H57.3681C57.3123 135.414 57.258 135.432 57.2145 135.467C57.1711 135.502 57.1414 135.551 57.1306 135.606L56.6288 138.138C56.6169 138.2 56.6188 138.264 56.6345 138.325C56.6503 138.386 56.6793 138.443 56.7197 138.491C56.76 138.539 56.8105 138.578 56.8677 138.605C56.9249 138.631 56.9872 138.645 57.0502 138.644C58.1726 138.644 59.7892 138.56 61.1989 138.56C62.8461 138.56 63.0185 138.648 64.9531 138.648C66.1215 138.648 66.4164 137.468 65.9223 137.361C63.6851 136.874 63.1181 136.82 61.1644 135.637C60.9597 135.5 60.7209 135.423 60.4749 135.415Z" fill="#263238"/>
<path d="M59.7324 45.7396L63.6168 44.4946C63.6168 44.4946 67.6277 53.7881 68.9799 54.3666C70.8111 55.1327 73.3662 57.6342 75.1782 59.1474C75.2394 59.6262 75.0134 60.8866 74.7299 61.216C71.4508 60.4498 67.371 58.5728 66.0302 57.3354C62.9771 54.5121 59.7324 45.7396 59.7324 45.7396Z" fill="#B55B52"/>
<path d="M58.828 43.6017C57.7362 46.0917 62.1187 53.9985 62.1187 53.9985L67.9261 51.3169C67.2111 48.907 66.2469 46.578 65.0492 44.3679C63.2219 41.1768 60.0271 40.8665 58.828 43.6017Z" fill="#407BFF"/>
<path opacity="0.2" d="M64.291 49.5394C63.023 47.7887 60.9659 47.2946 59.1348 47.2026C60.0848 50.3324 62.1228 53.9985 62.1228 53.9985L65.4364 52.4661C65.3257 51.4051 64.9299 50.3938 64.291 49.5394Z" fill="black"/>
<path d="M74.7879 58.8716L78.1705 59.4117L77.297 62.9858C76.112 62.4794 75.0113 61.7947 74.0332 60.9555L74.7879 58.8716Z" fill="#B55B52"/>
<path d="M81.1047 60.9248L79.8673 62.8938L77.2969 62.9857L78.1703 59.4116L81.1047 60.9248Z" fill="#B55B52"/>
<path opacity="0.2" d="M60.6253 129.166L60.5601 132.564H57.7139L57.779 129.166H60.6253Z" fill="black"/>
<path opacity="0.2" d="M41.8348 129.166H44.6849L44.0298 132.564H41.1797L41.8348 129.166Z" fill="black"/>
<path d="M62.5472 41.9851C62.5472 41.9851 65.6961 50.9109 63.3133 67.7701H48.0936C47.9327 65.4334 49.1203 52.8492 46.5996 41.8396C48.2794 41.5137 49.9789 41.2987 51.6869 41.196C53.8418 41.0714 56.0022 41.0714 58.1571 41.196C59.6384 41.3466 61.1061 41.6104 62.5472 41.9851Z" fill="#407BFF"/>
<path opacity="0.2" d="M55.6907 52.486H51.293L51.1934 49.7163H55.5911L55.6907 52.486Z" fill="black"/>
<path d="M55.7941 52.3749H51.3964L51.1934 49.7163H55.5911L55.7941 52.3749Z" fill="white"/>
<path d="M52.8973 51.3591H51.6983L51.6025 50.1562H52.8054L52.8973 51.3591Z" fill="#407BFF"/>
<path d="M55.3418 50.7385H53.1813L53.1621 50.501H55.3227L55.3418 50.7385Z" fill="#E0E0E0"/>
<path d="M54.924 51.2062H53.2194L53.2002 50.9648H54.9049L54.924 51.2062Z" fill="#E0E0E0"/>
<path d="M52.9399 51.8917H51.737L51.7217 51.6504H52.9207L52.9399 51.8917Z" fill="#E0E0E0"/>
<path d="M53.2692 51.8917H55.4298L55.4106 51.6504H53.2539L53.2692 51.8917Z" fill="#E0E0E0"/>
<path d="M53.4333 50.2099C53.3701 50.2092 53.3095 50.1847 53.2634 50.1415C53.2173 50.0982 53.1891 50.0393 53.1843 49.9763L53.1421 49.4515C53.1401 49.4218 53.144 49.3921 53.1538 49.3641C53.1636 49.336 53.179 49.3103 53.1991 49.2884C53.2192 49.2666 53.2435 49.249 53.2706 49.2369C53.2977 49.2247 53.327 49.2182 53.3567 49.2178C53.4199 49.2185 53.4805 49.243 53.5266 49.2862C53.5727 49.3295 53.6009 49.3884 53.6057 49.4515L53.6478 49.9763C53.6511 50.0061 53.648 50.0364 53.6386 50.0649C53.6293 50.0934 53.6139 50.1197 53.5936 50.1418C53.5733 50.1639 53.5484 50.1815 53.5208 50.1932C53.4932 50.205 53.4633 50.2107 53.4333 50.2099Z" fill="#263238"/>
<path opacity="0.2" d="M49.9705 44.5594C50.2693 46.3714 49.8058 50.6887 48.2007 55.7147C48.123 51.423 47.6667 47.1466 46.8369 42.9352V42.9122C47.8559 42.8126 49.687 42.8586 49.9705 44.5594Z" fill="black"/>
<path d="M52.3759 35.1436C52.8356 37.2275 53.0999 39.8056 51.6787 41.1962C51.6787 41.1962 52.5675 43.307 56.4365 43.307C59.9685 43.307 58.1489 41.1962 58.1489 41.1962C55.8121 40.6407 55.8504 37.7715 56.2335 36.1549L52.3759 35.1436Z" fill="#B55B52"/>
<path d="M56.4336 42.9355L57.5483 44.1729L57.2648 45.0387C57.2422 45.1079 57.1988 45.1686 57.1406 45.2124C57.0823 45.2562 57.0121 45.2812 56.9392 45.2838L56.1731 45.3221C56.1104 45.3237 56.0482 45.3099 55.9921 45.2818C55.936 45.2537 55.8876 45.2123 55.8513 45.1612L55.2422 44.2648L56.4336 42.9355Z" fill="#263238"/>
<path d="M56.434 42.9355C55.9495 43.7031 55.5207 44.5046 55.1507 45.3335C55.1507 45.3335 50.5078 43.6901 50.6764 41.1886C51.1795 40.9451 51.6647 40.666 52.1282 40.3535C52.1282 40.3535 52.3313 41.9433 56.434 42.9355Z" fill="white"/>
<path d="M56.4336 42.9357C57.0138 43.6064 57.4985 44.3541 57.874 45.1576C58.3907 44.6545 58.7574 44.0176 58.9333 43.3182C59.1092 42.6188 59.0872 41.8842 58.87 41.1966C58.4645 41.036 58.0469 40.9079 57.6211 40.8135C57.6211 40.8135 57.9468 42.3994 56.4336 42.9357Z" fill="white"/>
<path d="M56.8507 44.8625C56.9656 44.8165 58.8695 54.5275 59.1491 56.9065C59.7046 60.0745 58.2144 63.572 58.2106 63.5644C57.4373 61.3642 56.9769 59.0662 56.843 56.7379C56.6247 52.6926 56.5289 47.1954 56.1611 44.8625H56.8507Z" fill="#263238"/>
<path opacity="0.2" d="M56.231 36.1549C55.9457 37.281 55.9802 38.4644 56.3306 39.5719C55.9684 39.5175 55.616 39.4104 55.2848 39.254C53.9632 38.6372 53.2928 37.668 52.6033 36.2238C52.542 35.8408 52.4692 35.496 52.3926 35.1436L56.231 36.1549Z" fill="black"/>
<path d="M57.0508 28.834L58.1042 32.2166C58.3465 31.9522 58.5152 31.6289 58.5935 31.279C58.6717 30.9291 58.6568 30.5647 58.5502 30.2224C58.4435 29.88 58.249 29.5716 57.9859 29.328C57.7227 29.0843 57.4003 28.914 57.0508 28.834Z" fill="#263238"/>
<path d="M50.6259 32.6079C51.4457 35.3354 51.7751 36.975 53.5105 38.0936C56.0924 39.7753 59.1647 37.7756 59.1609 34.8719C59.1609 32.2593 57.8163 28.237 54.8781 27.716C54.2346 27.5981 53.5715 27.6498 52.9541 27.8661C52.3367 28.0824 51.7863 28.4558 51.3572 28.9496C50.928 29.4433 50.6349 30.0403 50.5067 30.6818C50.3784 31.3233 50.4195 31.9871 50.6259 32.6079Z" fill="#B55B52"/>
<path d="M51.7329 34.6649C52.499 34.1669 52.817 31.6003 52.116 30.7039C54.5715 30.5928 55.7859 29.7615 55.851 29.3133C56.7129 29.6964 58.8658 29.842 58.5938 28.754C58.469 28.3175 58.2227 27.9255 57.8836 27.6237C57.5444 27.3218 57.1265 27.1226 56.6784 27.0493C55.8318 26.1529 53.7096 25.4021 52.2117 26.6165C49.5915 26.6165 48.2047 28.7234 48.9364 29.5547C48.6273 29.7357 48.3709 29.9945 48.1928 30.3053C48.0146 30.6161 47.9209 30.9682 47.9209 31.3264C47.9209 31.6846 48.0146 32.0367 48.1928 32.3475C48.3709 32.6583 48.6273 32.9171 48.9364 33.0981C48.2392 34.1554 51.2694 36.5114 51.7329 34.6649Z" fill="#263238"/>
<path d="M50.1125 35.925C50.3628 36.1792 50.6608 36.3815 50.9895 36.5202C51.3182 36.6589 51.6711 36.7313 52.0279 36.7333C52.9664 36.7333 53.1771 35.833 52.6829 35.0745C52.2462 34.3888 51.2311 33.5614 50.3845 33.9253C49.5379 34.2892 49.4957 35.2929 50.1125 35.925Z" fill="#B55B52"/>
<path d="M53.3115 67.7705C53.3115 67.7705 53.6142 71.3485 54.0011 76.1982C54.4378 81.6954 54.9779 88.8398 55.3035 94.268C55.3035 94.2987 55.3035 94.3217 55.3035 94.3447C55.3648 95.3752 55.4185 96.3443 55.4606 97.2293C55.8935 106.098 56.7822 131.906 56.7822 131.906H61.6013C61.6013 131.906 64.0301 105.569 64.1297 96.5435C64.2293 87.863 63.3137 67.7705 63.3137 67.7705H53.3115Z" fill="#263238"/>
<path d="M56.43 130.435C56.407 130.435 56.4683 132.009 56.4683 132.009H62.0306L62.2183 130.239L56.43 130.435Z" fill="#407BFF"/>
<path opacity="0.2" d="M53.9854 76.198C54.4221 81.6951 54.9622 88.8396 55.2878 94.2678C55.2878 94.2984 55.2878 94.3214 55.2878 94.3444C56.4677 89.1882 56.9427 82.7754 56.778 72.2178L53.9854 76.198Z" fill="black"/>
<path d="M57.9152 67.7705C57.9152 67.7705 55.2336 88.3342 53.6477 96.5014C51.9238 105.423 45.3387 131.925 45.3387 131.925H40.125C40.125 131.925 44.2393 106.143 45.128 97.3097C46.0972 87.7327 48.093 67.7897 48.093 67.7897L57.9152 67.7705Z" fill="#263238"/>
<path d="M40.0923 130.546L39.8701 132.001H45.5971L46.0645 130.331L40.0923 130.546Z" fill="#407BFF"/>
<path d="M54.9512 32.4775C55.0048 32.7035 55.1657 32.8606 55.3113 32.83C55.4568 32.7993 55.5334 32.5886 55.4798 32.3664C55.4262 32.1442 55.2653 31.9834 55.1197 32.014C54.9742 32.0446 54.9014 32.2553 54.9512 32.4775Z" fill="#263238"/>
<path d="M57.4687 31.9336C57.5223 32.1558 57.6832 32.3167 57.8288 32.2822C57.9744 32.2477 58.0472 32.0447 57.9974 31.8187C57.9476 31.5926 57.7828 31.4356 57.6373 31.4662C57.4917 31.4969 57.4342 31.7076 57.4687 31.9336Z" fill="#263238"/>
<path d="M56.6943 32.2168C57.1269 32.8485 57.6423 33.4192 58.2267 33.9138C58.1 34.0565 57.9432 34.1694 57.7677 34.2442C57.5921 34.3191 57.4022 34.3541 57.2115 34.3467L56.6943 32.2168Z" fill="#A02724"/>
<path d="M56.7784 35.2203C56.7955 35.215 56.8099 35.2032 56.8185 35.1875C56.827 35.1717 56.8292 35.1533 56.8244 35.136C56.8222 35.1277 56.8183 35.1199 56.8131 35.113C56.8078 35.1062 56.8012 35.1005 56.7938 35.0962C56.7863 35.0919 56.778 35.0892 56.7695 35.0881C56.7609 35.0871 56.7522 35.0877 56.7439 35.09C56.4674 35.1631 56.1776 35.1707 55.8977 35.1122C55.6177 35.0537 55.3553 34.9307 55.1312 34.7529C55.1251 34.7463 55.1177 34.741 55.1094 34.7374C55.1012 34.7338 55.0923 34.7319 55.0833 34.7319C55.0743 34.7319 55.0654 34.7338 55.0571 34.7374C55.0489 34.741 55.0415 34.7463 55.0354 34.7529C55.0289 34.7587 55.0237 34.7657 55.0201 34.7737C55.0165 34.7816 55.0146 34.7902 55.0146 34.7989C55.0146 34.8076 55.0165 34.8162 55.0201 34.8241C55.0237 34.832 55.0289 34.8391 55.0354 34.8449C55.2747 35.0424 55.5579 35.1795 55.8612 35.2449C56.1645 35.3102 56.479 35.3018 56.7784 35.2203Z" fill="#263238"/>
<path d="M53.9859 31.8224C54.0057 31.818 54.0243 31.8092 54.0402 31.7966C54.0561 31.784 54.069 31.7679 54.0778 31.7496C54.1403 31.5942 54.2395 31.4563 54.367 31.3475C54.4944 31.2388 54.6462 31.1625 54.8095 31.1252C54.8445 31.1195 54.8758 31.1002 54.8967 31.0715C54.9175 31.0428 54.9261 31.007 54.9206 30.9719C54.9149 30.9367 54.8957 30.905 54.8672 30.8835C54.8386 30.8621 54.8028 30.8526 54.7673 30.857C54.5605 30.8978 54.3669 30.9891 54.2038 31.1228C54.0407 31.2564 53.9132 31.4283 53.8326 31.6232C53.8183 31.6562 53.8175 31.6936 53.8304 31.7273C53.8433 31.7609 53.8688 31.7882 53.9016 31.8032C53.9267 31.819 53.9564 31.8258 53.9859 31.8224Z" fill="#263238"/>
<path d="M58.3837 30.7841C58.4042 30.7792 58.4228 30.7686 58.4374 30.7535C58.45 30.7413 58.4601 30.7268 58.4669 30.7106C58.4738 30.6945 58.4773 30.6772 58.4773 30.6596C58.4773 30.6421 58.4738 30.6248 58.4669 30.6086C58.4601 30.5925 58.45 30.5779 58.4374 30.5658C58.2974 30.4011 58.12 30.2724 57.9201 30.1904C57.7201 30.1084 57.5034 30.0756 57.2881 30.0946C57.2706 30.0969 57.2537 30.1028 57.2384 30.1118C57.2232 30.1209 57.21 30.1329 57.1996 30.1473C57.1892 30.1616 57.1818 30.1779 57.178 30.1952C57.1741 30.2125 57.1738 30.2304 57.1771 30.2478C57.1794 30.2655 57.1852 30.2825 57.1942 30.2979C57.2033 30.3133 57.2152 30.3268 57.2295 30.3375C57.2438 30.3482 57.2601 30.3559 57.2774 30.3603C57.2947 30.3646 57.3126 30.3655 57.3303 30.3628C57.5006 30.35 57.6715 30.3781 57.8287 30.4448C57.986 30.5114 58.125 30.6146 58.2343 30.7458C58.2526 30.7664 58.2766 30.781 58.3032 30.7878C58.3298 30.7946 58.3579 30.7934 58.3837 30.7841Z" fill="#263238"/>
<path d="M44.8834 45.0728L48.7142 46.6587C48.7142 46.6587 45.8871 54.8183 45.6802 56.1169C47.2317 56.6915 48.9364 59.0015 51.005 60.5108C50.9514 60.9782 50.055 62.1274 49.6949 62.3764C46.6073 60.8786 41.8724 58.8061 41.6503 57.0133C41.1063 52.991 44.8834 45.0728 44.8834 45.0728Z" fill="#B55B52"/>
<path d="M50.0817 60.3311H53.288L52.3725 63.4876C52.3725 63.4876 50.3919 63.3689 49.2197 61.917L50.0817 60.3311Z" fill="#B55B52"/>
<path d="M55.2078 60.9631L54.2348 63.7787L52.373 63.5106L53.2886 60.354L55.2078 60.9631Z" fill="#B55B52"/>
<path d="M46.5999 41.8396C43.9183 42.2227 41.0605 51.5621 41.0605 51.5621L47.2396 53.9027C48.4152 51.6759 49.4391 49.3721 50.3042 47.0073C51.5263 43.5711 49.4768 41.4182 46.5999 41.8396Z" fill="#407BFF"/>
<path d="M44.5617 135.92C44.7539 135.936 44.9458 135.886 45.1057 135.778C45.1571 135.735 45.1961 135.679 45.219 135.616C45.2419 135.552 45.2477 135.484 45.2359 135.418C45.2356 135.379 45.2243 135.341 45.2033 135.307C45.1823 135.274 45.1525 135.248 45.1172 135.23C44.803 135.07 43.8951 135.633 43.7917 135.698C43.7801 135.705 43.7709 135.715 43.7654 135.727C43.7599 135.74 43.7584 135.754 43.7611 135.767C43.7652 135.779 43.7722 135.791 43.7815 135.8C43.7908 135.809 43.8022 135.816 43.8147 135.82C44.0594 135.88 44.3098 135.914 44.5617 135.92ZM44.9716 135.334C45.0006 135.327 45.0307 135.327 45.0597 135.334C45.0731 135.342 45.084 135.354 45.0914 135.369C45.0988 135.383 45.1024 135.398 45.1018 135.414C45.1097 135.459 45.106 135.505 45.0913 135.548C45.0766 135.591 45.0512 135.629 45.0176 135.66C44.6989 135.803 44.3375 135.821 44.0062 135.709C44.3 135.522 44.6281 135.394 44.9716 135.334Z" fill="#407BFF"/>
<path d="M43.8304 135.821C43.8403 135.824 43.8512 135.824 43.8611 135.821C44.1522 135.66 44.7077 135.054 44.6272 134.721C44.616 134.671 44.5883 134.627 44.5487 134.595C44.5091 134.563 44.4598 134.545 44.4089 134.545C44.3583 134.537 44.3067 134.541 44.2577 134.555C44.2087 134.57 44.1636 134.595 44.1254 134.629C43.7998 134.901 43.7423 135.721 43.7423 135.755C43.7416 135.768 43.7444 135.78 43.7506 135.791C43.7567 135.802 43.7658 135.811 43.7768 135.817C43.7846 135.822 43.7937 135.825 43.8031 135.826C43.8125 135.826 43.8219 135.825 43.8304 135.821ZM44.3782 134.671H44.4089C44.497 134.671 44.5046 134.721 44.5085 134.736C44.5468 134.924 44.1982 135.395 43.9108 135.617C43.9216 135.295 44.0312 134.983 44.225 134.725C44.2673 134.688 44.3218 134.667 44.3782 134.667V134.671Z" fill="#407BFF"/>
<path d="M61.6702 135.92C61.913 135.943 62.1562 135.882 62.3598 135.748C62.4036 135.706 62.4369 135.654 62.4569 135.597C62.4769 135.539 62.483 135.478 62.4747 135.418C62.4725 135.381 62.4609 135.345 62.4407 135.313C62.4206 135.282 62.3927 135.256 62.3598 135.238C62.0112 135.047 60.8811 135.621 60.7547 135.694C60.7419 135.7 60.7315 135.71 60.7252 135.722C60.7189 135.735 60.7172 135.749 60.7202 135.763C60.7222 135.777 60.7284 135.79 60.738 135.8C60.7476 135.81 60.7601 135.817 60.7738 135.82C61.069 135.88 61.369 135.914 61.6702 135.92ZM62.172 135.334C62.2154 135.332 62.2586 135.34 62.2985 135.357C62.3112 135.364 62.3219 135.375 62.3293 135.388C62.3367 135.4 62.3406 135.415 62.3406 135.43C62.3473 135.469 62.3441 135.51 62.3314 135.548C62.3187 135.586 62.2969 135.62 62.2678 135.648C62.0954 135.801 61.6281 135.828 60.996 135.725C61.3629 135.528 61.7606 135.396 62.172 135.334Z" fill="#407BFF"/>
<path d="M60.7855 135.82H60.8162C61.1533 135.663 61.8198 135.054 61.7585 134.729C61.7585 134.652 61.6896 134.556 61.5057 134.541C61.4373 134.53 61.3674 134.535 61.301 134.555C61.2347 134.574 61.1737 134.609 61.1226 134.656C60.7664 134.951 60.7089 135.717 60.7051 135.751C60.7054 135.763 60.7083 135.775 60.7136 135.786C60.7189 135.796 60.7264 135.805 60.7357 135.813C60.7509 135.821 60.7685 135.824 60.7855 135.82ZM61.4521 134.671H61.4942C61.6168 134.671 61.6245 134.729 61.6283 134.744C61.6628 134.939 61.2107 135.422 60.8621 135.633C60.8853 135.31 61.01 135.003 61.2184 134.755C61.2829 134.699 61.3661 134.667 61.4521 134.667V134.671Z" fill="#407BFF"/>
<path d="M110.741 33.4087H108.952V33.7918H110.741V33.4087Z" fill="#407BFF"/>
<path d="M107.358 33.4087H99.9834V33.7918H107.358V33.4087Z" fill="#407BFF"/>
<path d="M123.083 101.945H76.7653C75.7442 101.927 74.766 101.531 74.0202 100.833C73.2743 100.136 72.8138 99.186 72.7277 98.1683L68.6287 38.5268C68.5893 38.0428 68.6512 37.5559 68.8105 37.0972C68.9698 36.6384 69.223 36.2179 69.5539 35.8625C69.8848 35.5071 70.2861 35.2246 70.7323 35.033C71.1785 34.8414 71.6598 34.7449 72.1454 34.7497H118.46C119.481 34.7661 120.46 35.1619 121.207 35.8599C121.953 36.558 122.413 37.5085 122.497 38.5268L126.596 98.1683C126.637 98.6523 126.576 99.1393 126.417 99.5983C126.259 100.057 126.006 100.478 125.675 100.834C125.344 101.189 124.943 101.472 124.497 101.663C124.05 101.855 123.569 101.951 123.083 101.945Z" fill="#407BFF"/>
<path d="M76.6772 100.685C75.9976 100.673 75.3468 100.408 74.8512 99.9432C74.3556 99.4781 74.0507 98.8453 73.9956 98.1678L69.8852 38.5263C69.8579 38.2035 69.8985 37.8785 70.0043 37.5723C70.1102 37.2661 70.2789 36.9855 70.4997 36.7484C70.7206 36.5114 70.9886 36.3232 71.2865 36.1959C71.5844 36.0686 71.9057 36.0051 72.2296 36.0095H118.548C119.227 36.0224 119.877 36.2869 120.373 36.7519C120.868 37.2169 121.173 37.8492 121.229 38.5263L125.332 98.1678C125.359 98.4906 125.319 98.8156 125.213 99.1218C125.107 99.428 124.938 99.7087 124.717 99.9457C124.497 100.183 124.229 100.371 123.931 100.498C123.633 100.626 123.312 100.689 122.988 100.685H76.6772Z" fill="white"/>
<g opacity="0.2">
<path d="M120.456 65.5336H78.3438L76.7617 42.4761H118.87L120.456 65.5336ZM78.6388 65.2194H120.119L118.586 42.7902H77.095L78.6388 65.2194Z" fill="#407BFF"/>
<path d="M118.958 46.0387H77.1646L77.1416 45.7246H118.935L118.958 46.0387Z" fill="#407BFF"/>
<path d="M119.18 49.2873H77.3863L77.3633 48.9731H119.161L119.18 49.2873Z" fill="#407BFF"/>
<path d="M119.407 52.5396H77.6089L77.5859 52.2217H119.384L119.407 52.5396Z" fill="#407BFF"/>
<path d="M119.628 55.7882H77.8345L77.8115 55.4702H119.605L119.628 55.7882Z" fill="#407BFF"/>
<path d="M119.85 59.0363H78.0562L78.0332 58.7222H119.831L119.85 59.0363Z" fill="#407BFF"/>
<path d="M120.078 62.2848H78.2798L78.2568 61.9707H120.055L120.078 62.2848Z" fill="#407BFF"/>
<path d="M76.1605 44.4142H72.9273L72.9043 44.1001H76.1375L76.1605 44.4142Z" fill="#407BFF"/>
<path d="M76.3831 47.6628H73.1499L73.127 47.3486H76.364L76.3831 47.6628Z" fill="#407BFF"/>
<path d="M76.6049 50.9118H73.3717L73.3525 50.5977H76.5857L76.6049 50.9118Z" fill="#407BFF"/>
<path d="M76.8304 54.1641H73.5972L73.5742 53.8462H76.8074L76.8304 54.1641Z" fill="#407BFF"/>
<path d="M77.054 57.4123H73.8208L73.7979 57.0981H77.0349L77.054 57.4123Z" fill="#407BFF"/>
<path d="M77.2758 60.6608H74.0426L74.0234 60.3467H77.2566L77.2758 60.6608Z" fill="#407BFF"/>
<path d="M77.5013 63.9093H74.2681L74.2451 63.5952H77.4783L77.5013 63.9093Z" fill="#407BFF"/>
</g>
<path d="M78.5805 65.5107L78.4043 65.2387L83.3881 62.2239L84.932 60.6801L88.3337 57.6806L91.8542 58.9945L95.4206 53.0415L100.343 54.3325L106.66 50.1646L109.821 51.4977L118.107 47.3643L118.264 47.6477L109.851 51.8424L106.71 50.5208L100.416 54.6734L95.5854 53.4016L92.0036 59.3814L88.418 58.0407L85.1541 60.9176L83.5797 62.4882L78.5805 65.5107Z" fill="#E0E0E0"/>
<path d="M78.6124 65.4837L78.3711 65.2692L83.1864 59.795L84.5616 56.6767L89.1969 59.3468L91.277 54.2633L95.3032 50.5628L100.429 53.4512L106.485 47.6821L110.806 50.2525L117.805 43.5142L118.031 43.7478L110.868 50.6433L106.547 48.0728L100.494 53.842L95.3645 50.9497L91.5222 54.4779L89.3655 59.795L84.7187 57.1211L83.4469 59.9942L78.6124 65.4837Z" fill="#407BFF"/>
<path d="M91.1465 82.0596L94.5942 70.4141C97.0491 71.2881 99.1997 72.8516 100.788 74.9172C102.377 76.9827 103.336 79.4627 103.551 82.0596C103.788 84.9004 102.956 87.7273 101.216 89.986C99.4772 92.2446 96.9569 93.772 94.1498 94.2684L91.1465 82.0596Z" fill="#E0E0E0"/>
<path d="M91.1457 82.0599L94.1375 94.2686C93.4305 94.3929 92.714 94.4557 91.9961 94.4563C85.2003 94.4563 79.2205 88.8595 78.7531 82.0599C78.6284 80.4728 78.8347 78.8772 79.359 77.3741C79.8834 75.871 80.7143 74.4932 81.7991 73.3281C82.8839 72.163 84.1989 71.236 85.6608 70.6058C87.1227 69.9756 88.6995 69.656 90.2914 69.6673C91.7537 69.6698 93.2048 69.9224 94.5819 70.4143L91.1457 82.0599Z" fill="#407BFF"/>
<path d="M112.04 81.0371H108.362L109.286 94.4564H112.963L112.04 81.0371Z" fill="#E0E0E0"/>
<path d="M112.04 81.0366H108.362L107.799 72.8579H111.476L112.04 81.0366Z" fill="#407BFF"/>
<path d="M118.464 83.481H114.786L115.541 94.4562H119.218L118.464 83.481Z" fill="#E0E0E0"/>
<path d="M118.464 83.4805H114.786L114.441 78.4507H118.119L118.464 83.4805Z" fill="#407BFF"/>
<path d="M139.555 40.438C139.172 42.3151 138.82 45.7589 140.134 47.0116C139.07 48.7371 137.484 50.0789 135.606 50.8424C133.093 49.2679 134.296 47.0116 134.296 47.0116C136.391 46.5098 136.337 44.9583 135.97 43.4988L139.555 40.438Z" fill="#FF8B7B"/>
<path d="M140.809 48.1225C142.176 47.1802 142.276 45.3912 142.276 45.3912C142.276 45.3912 137.296 44.1155 134.583 44.8817C133.752 45.5176 132.427 46.7013 132.427 46.7013C132.427 46.7013 132.764 47.4675 134.296 47.9502C135.828 48.4328 140.809 48.1225 140.809 48.1225Z" fill="#263238"/>
<path d="M146.596 49.5742C147.531 50.9227 148.37 52.2558 149.166 53.6693C149.981 55.072 150.717 56.5184 151.373 58.0019C151.534 58.385 151.699 58.7681 151.844 59.1512L151.955 59.4423L152.013 59.5879L152.039 59.6607L152.085 59.7948C152.199 60.1469 152.247 60.517 152.227 60.8865C152.185 61.4595 152.029 62.0182 151.767 62.5299C151.559 62.9526 151.31 63.3541 151.024 63.729C149.983 65.0579 148.733 66.2093 147.324 67.1384L146.282 65.9202C147.257 64.8074 148.125 63.6057 148.875 62.3307C149.025 62.0511 149.153 61.7604 149.258 61.4611C149.337 61.2602 149.371 61.0445 149.358 60.8291C149.358 60.7716 149.335 60.7486 149.323 60.7563L149.297 60.695L149.235 60.5686L149.12 60.3119C148.967 59.9748 148.791 59.6415 148.626 59.3044C148.287 58.6302 147.925 57.9611 147.542 57.2971C147.159 56.6305 146.776 55.9678 146.393 55.3127C145.592 54.0064 144.757 52.681 143.93 51.4245L146.596 49.5742Z" fill="#FF8B7B"/>
<path d="M146.834 65.5906L143.425 65.334L145.31 67.9427C145.31 67.9427 147.328 67.6938 147.803 66.4679L146.834 65.5906Z" fill="#FF8B7B"/>
<path d="M141.211 66.8127L142.912 68.9119L145.816 67.8431L143.425 65.334L141.211 66.8127Z" fill="#FF8B7B"/>
<path d="M145.344 47.6895L143.176 50.6468L143.333 54.2976L147.014 57.638C147.014 57.638 148.903 56.2934 150.546 54.9335C148.485 50.2101 146.623 48.0725 145.344 47.6895Z" fill="#407BFF"/>
<path opacity="0.2" d="M144.558 50.4937L143.409 54.3474L144.647 55.4698C144.466 52.773 144.558 50.4937 144.558 50.4937Z" fill="black"/>
<path d="M128.573 49.9418C128.523 52.2403 128.845 57.0096 130.458 66.9313H143.314C143.099 61.6985 142.843 58.4193 145.344 47.6778C143.626 47.328 141.885 47.1052 140.134 47.0113C138.191 46.8732 136.24 46.8732 134.296 47.0113C133.04 47.1262 131.695 47.3292 130.672 47.5054C130.094 47.6042 129.568 47.9014 129.185 48.3461C128.801 48.7907 128.585 49.355 128.573 49.9418Z" fill="#407BFF"/>
<path opacity="0.2" d="M131.086 50.8345L128.787 54.5618C128.906 55.8873 129.082 57.4771 129.331 59.3771L131.204 58.2662C131.978 52.6273 131.086 50.8345 131.086 50.8345Z" fill="black"/>
<path d="M131.461 51.8308C130.944 53.6121 130.392 55.3819 129.821 57.1441C129.251 58.9062 128.672 60.6722 128.078 62.4267L127.963 62.7562L127.78 63.1852C127.656 63.4488 127.517 63.7046 127.362 63.9514C127.061 64.4252 126.709 64.8646 126.312 65.2615C125.564 66.0036 124.704 66.6252 123.765 67.1041C121.992 67.9929 120.07 68.5449 118.095 68.7322L117.831 67.1501C118.666 66.8945 119.483 66.5861 120.279 66.2269C121.061 65.883 121.81 65.4675 122.516 64.9857C123.183 64.5503 123.783 64.0199 124.297 63.4112C124.534 63.1346 124.737 62.8311 124.903 62.5072C124.985 62.3567 125.057 62.2006 125.117 62.0398L125.194 61.8253L125.286 61.4959C125.761 59.7145 126.251 57.9447 126.772 56.1787C127.293 54.4127 127.799 52.6506 128.362 50.8999L131.461 51.8308Z" fill="#FF8B7B"/>
<path d="M131.852 50.0839C131.312 48.7891 129.611 47.9502 129.611 47.9502C127.783 49.1416 127.029 50.3866 125.814 56.4392C127.76 57.3126 130.657 57.305 130.657 57.305L132.235 53.2329C132.235 53.2329 132.396 51.3788 131.852 50.0839Z" fill="#407BFF"/>
<path d="M118.49 66.9814L115.295 66.9316L117.329 69.4255C117.329 69.4255 119.329 69.0424 119.731 67.8051L118.49 66.9814Z" fill="#FF8B7B"/>
<path d="M113.173 68.5367L114.989 70.5326L117.329 69.4255L115.295 66.9316L113.173 68.5367Z" fill="#FF8B7B"/>
<path d="M132.867 36.5226C132.825 36.7716 132.653 36.9516 132.484 36.9248C132.316 36.898 132.224 36.6681 132.27 36.4153C132.316 36.1625 132.484 35.9824 132.653 36.0322C132.821 36.082 132.902 36.2697 132.867 36.5226Z" fill="#263238"/>
<path d="M132.721 36.0399L132.146 35.7603C132.146 35.7603 132.373 36.2851 132.721 36.0399Z" fill="#263238"/>
<path d="M132.76 34.9483C132.733 34.937 132.709 34.9178 132.693 34.8933C132.677 34.8688 132.668 34.8399 132.668 34.8104C132.668 34.7809 132.677 34.7521 132.693 34.7276C132.709 34.703 132.733 34.6839 132.76 34.6725C132.972 34.5633 133.207 34.5063 133.446 34.5063C133.684 34.5063 133.919 34.5633 134.131 34.6725C134.165 34.6938 134.189 34.7273 134.198 34.7659C134.207 34.8045 134.201 34.8452 134.181 34.8794C134.172 34.8965 134.159 34.9116 134.143 34.9236C134.128 34.9357 134.11 34.9444 134.091 34.9495C134.072 34.9545 134.052 34.9556 134.033 34.9528C134.013 34.9499 133.995 34.9432 133.978 34.933C133.81 34.8467 133.625 34.8016 133.436 34.8016C133.247 34.8016 133.062 34.8467 132.894 34.933C132.875 34.9465 132.852 34.955 132.829 34.9577C132.805 34.9603 132.782 34.9571 132.76 34.9483Z" fill="#263238"/>
<path d="M132.848 37.3462C132.523 37.8808 132.126 38.3681 131.668 38.7942C131.78 38.9084 131.915 38.9966 132.065 39.0529C132.214 39.1091 132.374 39.132 132.534 39.1198L132.848 37.3462Z" fill="#FF5652"/>
<path d="M141.536 36.9906C140.8 40.0552 140.555 41.3538 138.712 42.6639C135.943 44.633 132.353 43.047 132.162 39.8445C131.993 36.9522 133.223 32.4434 136.464 31.75C137.177 31.5938 137.919 31.6226 138.619 31.8337C139.318 32.0448 139.952 32.4313 140.46 32.9564C140.969 33.4814 141.334 34.1277 141.522 34.8337C141.71 35.5398 141.715 36.2822 141.536 36.9906Z" fill="#FF8B7B"/>
<path d="M144.458 38.4351C144.756 35.8478 142.899 33.5091 140.312 33.2116C137.725 32.914 135.386 34.7703 135.089 37.3576C134.791 39.945 136.647 42.2837 139.235 42.5812C141.822 42.8788 144.161 41.0225 144.458 38.4351Z" fill="#263238"/>
<path d="M136.56 37.1241C140.007 34.8563 145.294 33.6227 144.145 30.0984C143.217 27.2598 138.977 27.1257 135.717 28.455C131.246 30.2631 133.116 39.3881 136.56 37.1241Z" fill="#263238"/>
<path d="M140.946 32.0906C140.916 32.0908 140.886 32.0836 140.859 32.0695C140.833 32.0555 140.81 32.0351 140.793 32.0102L137.161 26.9573C137.139 26.9156 137.133 26.8674 137.144 26.8215C137.155 26.7756 137.182 26.7352 137.22 26.7077C137.258 26.6802 137.305 26.6674 137.352 26.6717C137.399 26.6761 137.443 26.6972 137.475 26.7313L141.103 31.788C141.132 31.8288 141.144 31.8793 141.136 31.9287C141.128 31.9781 141.101 32.0225 141.061 32.0523C141.028 32.0779 140.988 32.0915 140.946 32.0906Z" fill="#407BFF"/>
<path d="M143.163 33.3664C143.124 33.3662 143.085 33.3542 143.052 33.3319C143.032 33.3174 143.014 33.2989 143 33.2776C142.987 33.2562 142.978 33.2324 142.973 33.2074C142.969 33.1825 142.97 33.157 142.976 33.1323C142.981 33.1077 142.992 33.0844 143.006 33.0638L146.634 28.011C146.664 27.9693 146.708 27.9411 146.759 27.9325C146.809 27.9238 146.861 27.9355 146.902 27.965C146.944 27.9945 146.972 28.0393 146.981 28.0896C146.989 28.1399 146.978 28.1915 146.948 28.2332L143.317 33.2898C143.299 33.3138 143.276 33.3333 143.249 33.3466C143.223 33.3599 143.193 33.3667 143.163 33.3664Z" fill="#407BFF"/>
<path d="M145.028 38.6898C147.594 37.0951 148.632 34.1256 147.346 32.0573C146.061 29.9891 142.939 29.6052 140.373 31.1999C137.807 32.7946 136.769 35.7641 138.054 37.8323C139.339 39.9006 142.462 40.2845 145.028 38.6898Z" fill="#263238"/>
<path d="M130.458 66.9316C130.458 66.9316 131.542 90.7706 131.753 100.424C131.967 110.469 132.063 133.921 132.063 133.921H134.599C134.599 133.921 138.641 114.43 137.445 100.424C139.253 89.6712 140.476 66.9316 140.476 66.9316H130.458Z" fill="#FF8B7B"/>
<path d="M133.817 66.9316C133.817 66.9316 139.855 91.8969 142.326 101.232C144.919 111.035 148.42 133.193 148.455 133.921H150.646C150.646 133.921 151.336 108.323 147.869 99.6197C147.869 88.7135 143.329 66.9316 143.329 66.9316H133.817Z" fill="#FF8B7B"/>
<path d="M149.186 133.308C151.055 132.997 151.051 133.909 151.208 134.89C151.321 135.479 151.234 136.088 150.959 136.621C150.335 137.717 150.959 139.337 148.849 139.337C146.738 139.337 146.531 138.878 147.067 137.897C147.566 136.907 147.905 135.844 148.071 134.748C148.178 134.181 148.354 133.446 149.186 133.308Z" fill="#263238"/>
<path d="M151.093 135.154C151.139 136.418 151.262 139.337 151.262 139.337H150.928C150.928 139.337 150.545 136.226 150.319 135.387L151.093 135.154Z" fill="#263238"/>
<path d="M136.173 38.0744C135.938 38.6332 135.492 39.0765 134.932 39.308C134.166 39.6106 133.722 38.9632 133.856 38.2123C133.975 37.5343 134.511 36.5651 135.296 36.5843C135.467 36.5927 135.634 36.6435 135.781 36.7322C135.927 36.821 136.05 36.9448 136.137 37.0926C136.224 37.2404 136.273 37.4075 136.279 37.5789C136.286 37.7503 136.249 37.9206 136.173 38.0744Z" fill="#FF8B7B"/>
<g opacity="0.2">
<path d="M131.726 99.2398C131.726 99.6535 131.745 100.048 131.752 100.424C131.787 101.956 131.818 103.844 131.844 105.898L137.652 104.519C137.625 103.12 137.556 101.745 137.445 100.424C137.56 99.7302 137.675 98.987 137.79 98.2017L131.726 99.2398Z" fill="black"/>
<path d="M147.842 99.6192C147.842 98.6577 147.804 97.6119 147.739 96.501L141.368 97.5889C141.721 98.9603 142.039 100.194 142.314 101.232C142.483 101.868 142.654 102.552 142.828 103.285L148.574 101.922C148.377 101.14 148.133 100.371 147.842 99.6192Z" fill="black"/>
</g>
<path d="M130.458 66.9316L130.841 104.895L148.846 101.064C149.129 79.4008 147.44 71.9078 143.322 66.9316H130.458Z" fill="#263238"/>
<path opacity="0.2" d="M142.582 76.3018C142.582 76.3018 139.081 79.2132 134.79 80.1785C139.261 79.8376 141.528 78.5811 142.582 76.3018Z" fill="black"/>
<path d="M129.971 64.5448C130.008 65.3618 130.089 66.1764 130.212 66.985C130.235 67.2148 130.3 68.9693 130.373 69.3677C130.446 69.7661 145.148 69.5324 144.857 68.9234C144.566 68.3143 143.62 67.0693 143.62 66.8011C143.62 66.5329 143.52 64.5524 143.398 64.3877C143.275 64.223 130.043 63.9242 129.971 64.5448Z" fill="#407BFF"/>
<path opacity="0.2" d="M129.971 64.5448C130.008 65.3618 130.089 66.1764 130.212 66.985C130.235 67.2148 130.3 68.9693 130.373 69.3677C130.446 69.7661 145.148 69.5324 144.857 68.9234C144.566 68.3143 143.62 67.0693 143.62 66.8011C143.62 66.5329 143.52 64.5524 143.398 64.3877C143.275 64.223 130.043 63.9242 129.971 64.5448Z" fill="white"/>
<path d="M132.051 132.998C131.392 134.894 129.484 138.273 129.484 138.273L133.104 137.273L134.882 134.48L134.499 133.745L132.051 132.998Z" fill="#FF8B7B"/>
<path d="M135.04 133.533C135.194 133.857 135.268 134.213 135.254 134.571C135.231 135.87 135.086 139.322 135.086 139.322H134.783C134.785 138.26 134.731 137.198 134.622 136.142C134.469 135.284 134.097 136.797 133.523 137.648C132.948 138.498 131.822 139.276 129.837 139.322C127.516 139.379 126.577 139.276 127.252 138.713C127.926 138.149 129.454 137.789 129.454 137.789C130.084 137.773 130.699 137.591 131.237 137.262C131.775 136.933 132.217 136.469 132.519 135.916C133.208 134.671 134.051 133.434 134.622 133.143C134.717 133.171 134.805 133.221 134.877 133.288C134.95 133.356 135.005 133.44 135.04 133.533Z" fill="#263238"/>
</svg>
