<svg width="447" height="483" viewBox="0 0 447 483" fill="none" xmlns="http://www.w3.org/2000/svg">
<rect x="478.066" width="314" height="425" rx="40" transform="rotate(60.5452 478.066 0)" fill="#1676AD" fill-opacity="0.44"/>
<rect x="506.492" y="253" width="143.179" height="188.911" rx="40" transform="rotate(60.5452 506.492 253)" fill="#83B3CE"/>
<path d="M398.376 343.449H369.049V343.671H398.376V343.449Z" fill="#EBEBEB"/>
<path d="M293.288 345.857H285.593V346.079H293.288V345.857Z" fill="#EBEBEB"/>
<path d="M368.164 335.231H351.171V335.453H368.164V335.231Z" fill="#EBEBEB"/>
<path d="M84.6959 336.719H46.4521V336.941H84.6959V336.719Z" fill="#EBEBEB"/>
<path d="M98.1905 336.719H92.5854V336.941H98.1905V336.719Z" fill="#EBEBEB"/>
<path d="M199.366 340.456H116.414V340.677H199.366V340.456Z" fill="#EBEBEB"/>
<path d="M209.858 289.709H38.8901C37.5491 289.709 36.2631 289.177 35.3149 288.228C34.3667 287.28 33.834 285.994 33.834 284.653V44.3082C33.8457 42.9749 34.3835 41.7002 35.3304 40.7616C36.2774 39.8229 37.5567 39.2963 38.8901 39.2964H209.858C211.199 39.2964 212.485 39.8291 213.433 40.7773C214.381 41.7255 214.914 43.0115 214.914 44.3525V284.653C214.914 285.994 214.381 287.28 213.433 288.228C212.485 289.177 211.199 289.709 209.858 289.709ZM38.8901 39.4735C37.6085 39.4758 36.3802 39.9859 35.474 40.8921C34.5678 41.7983 34.0577 43.0267 34.0554 44.3082V284.653C34.0577 285.935 34.5678 287.163 35.474 288.069C36.3802 288.976 37.6085 289.486 38.8901 289.488H209.858C211.14 289.486 212.368 288.976 213.274 288.069C214.18 287.163 214.69 285.935 214.693 284.653V44.3082C214.69 43.0267 214.18 41.7983 213.274 40.8921C212.368 39.9859 211.14 39.4758 209.858 39.4735H38.8901Z" fill="#EBEBEB"/>
<path d="M401.396 289.709H230.41C229.07 289.707 227.785 289.174 226.837 288.226C225.89 287.278 225.356 285.994 225.354 284.653V44.3082C225.368 42.9756 225.907 41.7023 226.853 40.7641C227.799 39.826 229.077 39.2986 230.41 39.2964H401.396C402.726 39.301 404.001 39.8297 404.944 40.7678C405.887 41.706 406.422 42.978 406.434 44.3082V284.653C406.434 285.991 405.904 287.275 404.959 288.222C404.015 289.17 402.734 289.705 401.396 289.709ZM230.41 39.4735C229.129 39.4758 227.9 39.9859 226.994 40.8921C226.088 41.7983 225.578 43.0267 225.575 44.3082V284.653C225.578 285.935 226.088 287.163 226.994 288.069C227.9 288.976 229.129 289.486 230.41 289.488H401.396C402.677 289.486 403.906 288.976 404.812 288.069C405.718 287.163 406.228 285.935 406.23 284.653V44.3082C406.228 43.0267 405.718 41.7983 404.812 40.8921C403.906 39.9859 402.677 39.4758 401.396 39.4735H230.41Z" fill="#EBEBEB"/>
<path d="M442.739 329.202H0V329.423H442.739V329.202Z" fill="#EBEBEB"/>
<path d="M369.2 206.687H291.605V323.419H369.2V206.687Z" fill="#F5F5F5"/>
<path d="M385.935 206.687H369.2V323.419H385.935V206.687Z" fill="#EBEBEB"/>
<path d="M363.506 215.347H297.75V243.7H363.506V215.347Z" fill="#FAFAFA"/>
<path d="M325.802 215.347L326.13 219.128C326.187 219.727 326.465 220.284 326.91 220.69C327.356 221.096 327.936 221.322 328.538 221.324H332.718C333.32 221.322 333.901 221.096 334.346 220.69C334.791 220.284 335.069 219.727 335.126 219.128L335.454 215.347H325.802Z" fill="#EBEBEB"/>
<path d="M363.506 246.791H297.75V275.144H363.506V246.791Z" fill="#FAFAFA"/>
<path d="M325.802 246.791L326.13 250.572C326.185 251.173 326.462 251.732 326.908 252.14C327.353 252.547 327.935 252.774 328.538 252.776H332.718C333.322 252.774 333.903 252.547 334.348 252.14C334.794 251.732 335.071 251.173 335.126 250.572L335.454 246.791H325.802Z" fill="#EBEBEB"/>
<path d="M363.506 278.233H297.75V306.586H363.506V278.233Z" fill="#FAFAFA"/>
<path d="M325.802 278.233L326.13 282.014C326.184 282.611 326.458 283.167 326.898 283.574C327.338 283.981 327.913 284.211 328.512 284.219H332.691C333.295 284.217 333.877 283.99 334.322 283.583C334.767 283.175 335.045 282.616 335.1 282.014L335.427 278.233H325.802Z" fill="#EBEBEB"/>
<path d="M363.506 329.246H298.671L297.75 323.411H363.506V329.246Z" fill="#E6E6E6"/>
<path d="M379.17 329.246H363.506V323.411H380.091L379.17 329.246Z" fill="#E0E0E0"/>
<path d="M329.947 206.811H357.034L354.032 172.455H326.945L329.947 206.811Z" fill="#FAFAFA"/>
<path d="M329.946 206.811H328.654L325.643 172.455H326.945L329.946 206.811Z" fill="#EBEBEB"/>
<path d="M332.4 203.304H353.97L351.57 175.961H330.009L332.4 203.304Z" fill="#F0F0F0"/>
<path d="M333.984 201.055H351.995L349.994 178.21H331.983L333.984 201.055Z" fill="#E6E6E6"/>
<path d="M351.243 206.811L349.613 188.172H373.247L374.885 206.811H351.243Z" fill="#F0F0F0"/>
<path d="M351.242 206.811L349.612 188.172H348.337L349.976 206.811H351.242Z" fill="#E0E0E0"/>
<path d="M353.492 204.907L352.19 190.075H371.006L372.308 204.907H353.492Z" fill="#EBEBEB"/>
<path d="M354.935 203.685L353.846 191.297H369.563L370.652 203.685H354.935Z" fill="#F5F5F5"/>
<path d="M56.5291 296.306H137.223V268.449H56.5291V296.306Z" fill="#EBEBEB"/>
<path d="M56.5291 324.163H137.223V296.306H56.5291V324.163Z" fill="#EBEBEB"/>
<path d="M140.047 296.306H220.741V268.449H140.047V296.306Z" fill="#EBEBEB"/>
<path d="M140.047 324.163H220.741V296.306H140.047V324.163Z" fill="#EBEBEB"/>
<path d="M190.067 296.306L180.035 268.458H195.486L205.519 296.306H190.067Z" fill="#F0F0F0"/>
<path d="M172.553 268.458H175.945L185.986 296.306H182.595L172.553 268.458Z" fill="#F0F0F0"/>
<path d="M200.109 324.163L190.068 296.306H205.519L215.561 324.163H200.109Z" fill="#F0F0F0"/>
<path d="M182.595 296.306H185.986L196.027 324.163H192.636L182.595 296.306Z" fill="#F0F0F0"/>
<path d="M74.654 296.306L64.6216 268.458H80.0732L90.1145 296.306H74.654Z" fill="#F0F0F0"/>
<path d="M57.1401 268.458H60.5315L70.5728 296.306H67.1815L57.1401 268.458Z" fill="#F0F0F0"/>
<path d="M84.6961 324.163L74.6548 296.306H90.1152L100.148 324.163H84.6961Z" fill="#F0F0F0"/>
<path d="M67.1816 296.306H70.573L80.6143 324.163H77.2229L67.1816 296.306Z" fill="#F0F0F0"/>
<path d="M220.732 272.735V269.919H140.038V272.735H220.732Z" fill="#E0E0E0"/>
<path d="M220.732 300.37V297.555H140.038V300.37H220.732Z" fill="#E0E0E0"/>
<path d="M178.326 285.946C178.159 285.961 177.99 285.94 177.831 285.886C177.672 285.831 177.526 285.745 177.402 285.631C177.279 285.518 177.18 285.379 177.112 285.226C177.045 285.072 177.01 284.906 177.01 284.738C177.01 284.569 177.045 284.403 177.112 284.249C177.18 284.096 177.279 283.957 177.402 283.844C177.526 283.73 177.672 283.644 177.831 283.589C177.99 283.535 178.159 283.514 178.326 283.529H182.453C182.62 283.514 182.789 283.535 182.948 283.589C183.107 283.644 183.253 283.73 183.377 283.844C183.5 283.957 183.599 284.096 183.667 284.249C183.734 284.403 183.769 284.569 183.769 284.738C183.769 284.906 183.734 285.072 183.667 285.226C183.599 285.379 183.5 285.518 183.377 285.631C183.253 285.745 183.107 285.831 182.948 285.886C182.789 285.94 182.62 285.961 182.453 285.946H178.326Z" fill="#E6E6E6"/>
<path d="M178.326 285.521C178.159 285.535 177.99 285.515 177.831 285.46C177.672 285.406 177.526 285.32 177.402 285.206C177.279 285.092 177.18 284.954 177.112 284.8C177.045 284.646 177.01 284.48 177.01 284.312C177.01 284.144 177.045 283.978 177.112 283.824C177.18 283.67 177.279 283.532 177.402 283.419C177.526 283.305 177.672 283.218 177.831 283.164C177.99 283.11 178.159 283.089 178.326 283.104H182.453C182.62 283.089 182.789 283.11 182.948 283.164C183.107 283.218 183.253 283.305 183.377 283.419C183.5 283.532 183.599 283.67 183.667 283.824C183.734 283.978 183.769 284.144 183.769 284.312C183.769 284.48 183.734 284.646 183.667 284.8C183.599 284.954 183.5 285.092 183.377 285.206C183.253 285.32 183.107 285.406 182.948 285.46C182.789 285.515 182.62 285.535 182.453 285.521H178.326Z" fill="#E0E0E0"/>
<path d="M178.326 311.661C178.159 311.675 177.99 311.654 177.831 311.6C177.672 311.546 177.526 311.459 177.402 311.346C177.279 311.232 177.18 311.094 177.112 310.94C177.045 310.786 177.01 310.62 177.01 310.452C177.01 310.284 177.045 310.118 177.112 309.964C177.18 309.81 177.279 309.672 177.402 309.558C177.526 309.445 177.672 309.358 177.831 309.304C177.99 309.249 178.159 309.229 178.326 309.243H182.453C182.62 309.229 182.789 309.249 182.948 309.304C183.107 309.358 183.253 309.445 183.377 309.558C183.5 309.672 183.599 309.81 183.667 309.964C183.734 310.118 183.769 310.284 183.769 310.452C183.769 310.62 183.734 310.786 183.667 310.94C183.599 311.094 183.5 311.232 183.377 311.346C183.253 311.459 183.107 311.546 182.948 311.6C182.789 311.654 182.62 311.675 182.453 311.661H178.326Z" fill="#E6E6E6"/>
<path d="M178.326 311.235C178.005 311.235 177.696 311.107 177.469 310.88C177.241 310.652 177.113 310.344 177.113 310.022C177.113 309.7 177.241 309.392 177.469 309.164C177.696 308.937 178.005 308.809 178.326 308.809H182.453C182.774 308.809 183.083 308.937 183.311 309.164C183.538 309.392 183.666 309.7 183.666 310.022C183.666 310.344 183.538 310.652 183.311 310.88C183.083 311.107 182.774 311.235 182.453 311.235H178.326Z" fill="#E0E0E0"/>
<path d="M138.631 267.209V325.376H222.149V267.209H138.631ZM141.456 297.785H219.324V322.578H141.456V297.785ZM141.456 270.185H219.324V294.978H141.456V270.185Z" fill="#F5F5F5"/>
<path d="M137.223 272.735V269.919H56.5291V272.735H137.223Z" fill="#E0E0E0"/>
<path d="M137.223 300.371V297.555H56.5291V300.371H137.223Z" fill="#E0E0E0"/>
<path d="M94.8078 285.946C94.5051 285.92 94.2231 285.782 94.0177 285.558C93.8122 285.334 93.6982 285.041 93.6982 284.737C93.6982 284.434 93.8122 284.141 94.0177 283.917C94.2231 283.693 94.5051 283.555 94.8078 283.529H98.943C99.2457 283.555 99.5276 283.693 99.7331 283.917C99.9385 284.141 100.053 284.434 100.053 284.737C100.053 285.041 99.9385 285.334 99.7331 285.558C99.5276 285.782 99.2457 285.92 98.943 285.946H94.8078Z" fill="#E6E6E6"/>
<path d="M94.8078 285.521C94.5051 285.495 94.2231 285.356 94.0177 285.133C93.8122 284.909 93.6982 284.616 93.6982 284.312C93.6982 284.008 93.8122 283.716 94.0177 283.492C94.2231 283.268 94.5051 283.129 94.8078 283.104H98.943C99.2457 283.129 99.5276 283.268 99.7331 283.492C99.9385 283.716 100.053 284.008 100.053 284.312C100.053 284.616 99.9385 284.909 99.7331 285.133C99.5276 285.356 99.2457 285.495 98.943 285.521H94.8078Z" fill="#E0E0E0"/>
<path d="M94.8078 311.66C94.5051 311.634 94.2231 311.496 94.0177 311.272C93.8122 311.048 93.6982 310.755 93.6982 310.451C93.6982 310.148 93.8122 309.855 94.0177 309.631C94.2231 309.407 94.5051 309.269 94.8078 309.243H98.943C99.2457 309.269 99.5276 309.407 99.7331 309.631C99.9385 309.855 100.053 310.148 100.053 310.451C100.053 310.755 99.9385 311.048 99.7331 311.272C99.5276 311.496 99.2457 311.634 98.943 311.66H94.8078Z" fill="#E6E6E6"/>
<path d="M94.8083 311.235C94.4866 311.235 94.178 311.107 93.9505 310.88C93.723 310.652 93.5952 310.344 93.5952 310.022C93.5952 309.7 93.723 309.392 93.9505 309.164C94.178 308.937 94.4866 308.809 94.8083 308.809H98.9435C99.2652 308.809 99.5738 308.937 99.8013 309.164C100.029 309.392 100.157 309.7 100.157 310.022C100.157 310.344 100.029 310.652 99.8013 310.88C99.5738 311.107 99.2652 311.235 98.9435 311.235H94.8083Z" fill="#E0E0E0"/>
<path d="M55.1206 267.209V325.376H138.63V267.209H55.1206ZM57.9364 297.785H135.814V322.578H57.9364V297.785ZM57.9364 270.185H135.814V294.978H57.9364V270.185Z" fill="#F5F5F5"/>
<path d="M66.26 329.246H58.8574L57.9365 325.376H67.1809L66.26 329.246Z" fill="#E0E0E0"/>
<path d="M218.049 329.246H210.655L209.725 325.376H218.969L218.049 329.246Z" fill="#E0E0E0"/>
<path d="M81.2686 241.097C81.2686 238.848 83.925 236.935 87.5909 236.28L83.9604 231.95H105.513L101.882 236.28C105.548 236.935 108.205 238.848 108.205 241.097C108.205 243.585 104.99 261.764 100.74 265.766L101.316 266.448C101.372 266.53 101.406 266.626 101.413 266.725C101.421 266.824 101.402 266.924 101.359 267.013C101.316 267.103 101.25 267.18 101.168 267.236C101.086 267.292 100.99 267.326 100.891 267.333H88.5915C88.4914 267.327 88.3947 267.295 88.3113 267.239C88.2278 267.184 88.1606 267.107 88.1165 267.017C88.0724 266.927 88.053 266.827 88.0602 266.727C88.0674 266.627 88.101 266.531 88.1576 266.448L88.7331 265.766C84.4917 261.764 81.2686 243.585 81.2686 241.097Z" fill="#F0F0F0"/>
<path d="M122.001 256.929H92.4175C92.4175 259.904 95.1447 262.517 99.2534 264.013L98.3679 267.369H115.998L115.157 264.013C119.274 262.517 122.001 259.904 122.001 256.929Z" fill="#E6E6E6"/>
<path d="M217.101 365.781C311.92 365.781 388.786 361.293 388.786 355.757C388.786 350.221 311.92 345.733 217.101 345.733C122.282 345.733 45.416 350.221 45.416 355.757C45.416 361.293 122.282 365.781 217.101 365.781Z" fill="#F5F5F5"/>
<path d="M294.942 57.2363H92.2211C88.7049 57.2363 85.8545 60.0867 85.8545 63.6029V204.305C85.8545 207.821 88.7049 210.672 92.2211 210.672H294.942C298.458 210.672 301.309 207.821 301.309 204.305V63.6029C301.309 60.0867 298.458 57.2363 294.942 57.2363Z" fill="#1676AD"/>
<path opacity="0.5" d="M294.942 57.2363H92.2211C88.7049 57.2363 85.8545 60.0867 85.8545 63.6029V204.305C85.8545 207.821 88.7049 210.672 92.2211 210.672H294.942C298.458 210.672 301.309 207.821 301.309 204.305V63.6029C301.309 60.0867 298.458 57.2363 294.942 57.2363Z" fill="white"/>
<path opacity="0.5" d="M294.163 79.1167H93.0088C91.8058 79.1167 90.8306 80.0919 90.8306 81.295V203.526C90.8306 204.729 91.8058 205.705 93.0088 205.705H294.163C295.366 205.705 296.341 204.729 296.341 203.526V81.295C296.341 80.0919 295.366 79.1167 294.163 79.1167Z" fill="white"/>
<path opacity="0.3" d="M265.881 63.2046H261.825C260.382 63.2046 259.213 64.3741 259.213 65.8167V69.8722C259.213 71.3149 260.382 72.4844 261.825 72.4844H265.881C267.323 72.4844 268.493 71.3149 268.493 69.8722V65.8167C268.493 64.3741 267.323 63.2046 265.881 63.2046Z" fill="white"/>
<path opacity="0.5" d="M279.8 63.2046H275.745C274.302 63.2046 273.133 64.3741 273.133 65.8167V69.8722C273.133 71.3149 274.302 72.4844 275.745 72.4844H279.8C281.243 72.4844 282.413 71.3149 282.413 69.8722V65.8167C282.413 64.3741 281.243 63.2046 279.8 63.2046Z" fill="white"/>
<path opacity="0.8" d="M293.729 63.2046H289.673C288.231 63.2046 287.061 64.3741 287.061 65.8167V69.8722C287.061 71.3149 288.231 72.4844 289.673 72.4844H293.729C295.171 72.4844 296.341 71.3149 296.341 69.8722V65.8167C296.341 64.3741 295.171 63.2046 293.729 63.2046Z" fill="white"/>
<path d="M100.509 61.3804H94.0803C92.2855 61.3804 90.8306 62.8353 90.8306 64.6301V71.0586C90.8306 72.8534 92.2855 74.3083 94.0803 74.3083H100.509C102.304 74.3083 103.759 72.8534 103.759 71.0586V64.6301C103.759 62.8353 102.304 61.3804 100.509 61.3804Z" fill="#1676AD"/>
<path opacity="0.8" d="M281.182 87.0684H137.814C135.848 87.0684 134.254 88.6621 134.254 90.628V98.7567C134.254 100.723 135.848 102.316 137.814 102.316H281.182C283.148 102.316 284.741 100.723 284.741 98.7567V90.628C284.741 88.6621 283.148 87.0684 281.182 87.0684Z" fill="white"/>
<path opacity="0.8" d="M281.182 107.292H137.814C135.848 107.292 134.254 108.886 134.254 110.852V118.981C134.254 120.947 135.848 122.54 137.814 122.54H281.182C283.148 122.54 284.741 120.947 284.741 118.981V110.852C284.741 108.886 283.148 107.292 281.182 107.292Z" fill="white"/>
<path opacity="0.8" d="M281.182 130.811H137.814C135.848 130.811 134.254 132.404 134.254 134.37V193.626C134.254 195.592 135.848 197.186 137.814 197.186H281.182C283.148 197.186 284.741 195.592 284.741 193.626V134.37C284.741 132.404 283.148 130.811 281.182 130.811Z" fill="white"/>
<path d="M280.748 130.811H138.248C136.042 130.811 134.254 132.598 134.254 134.804V140.135C134.254 142.34 136.042 144.128 138.248 144.128H280.748C282.953 144.128 284.741 142.34 284.741 140.135V134.804C284.741 132.598 282.953 130.811 280.748 130.811Z" fill="#1676AD"/>
<path opacity="0.5" d="M280.748 130.811H138.248C136.042 130.811 134.254 132.598 134.254 134.804V140.135C134.254 142.34 136.042 144.128 138.248 144.128H280.748C282.953 144.128 284.741 142.34 284.741 140.135V134.804C284.741 132.598 282.953 130.811 280.748 130.811Z" fill="white"/>
<path opacity="0.5" d="M191.288 132.892H185.462C184.557 132.892 183.824 133.625 183.824 134.53V140.356C183.824 141.261 184.557 141.994 185.462 141.994H191.288C192.193 141.994 192.926 141.261 192.926 140.356V134.53C192.926 133.625 192.193 132.892 191.288 132.892Z" fill="white"/>
<path opacity="0.5" d="M204.296 132.892H198.47C197.565 132.892 196.832 133.625 196.832 134.53V140.356C196.832 141.261 197.565 141.994 198.47 141.994H204.296C205.201 141.994 205.934 141.261 205.934 140.356V134.53C205.934 133.625 205.201 132.892 204.296 132.892Z" fill="white"/>
<path opacity="0.5" d="M217.471 132.892H211.645C210.74 132.892 210.007 133.625 210.007 134.53V140.356C210.007 141.261 210.74 141.994 211.645 141.994H217.471C218.376 141.994 219.11 141.261 219.11 140.356V134.53C219.11 133.625 218.376 132.892 217.471 132.892Z" fill="white"/>
<path d="M102.466 92.7529H101.129V91.9648H104.768V92.7529H103.431V96.1443H102.466V92.7529Z" fill="#263238"/>
<path d="M106.079 95.9669C105.826 95.8279 105.604 95.6395 105.425 95.4129C105.247 95.1862 105.115 94.9259 105.039 94.6475C104.963 94.3691 104.944 94.0783 104.983 93.7923C105.022 93.5063 105.117 93.231 105.265 92.9828C105.462 92.6553 105.743 92.3863 106.079 92.2036C106.443 92.0253 106.843 91.9326 107.248 91.9326C107.653 91.9326 108.053 92.0253 108.417 92.2036C108.755 92.3861 109.04 92.6549 109.24 92.9828C109.432 93.3202 109.533 93.7016 109.533 94.0896C109.533 94.4777 109.432 94.8591 109.24 95.1965C109.042 95.5239 108.757 95.7904 108.417 95.9669C108.056 96.1532 107.655 96.2505 107.248 96.2505C106.841 96.2505 106.441 96.1532 106.079 95.9669ZM107.921 95.2496C108.119 95.1406 108.281 94.9779 108.39 94.7803C108.506 94.5689 108.564 94.3306 108.559 94.0896C108.565 93.8485 108.507 93.6101 108.39 93.399C108.279 93.2009 108.117 93.0359 107.921 92.9208C107.715 92.8065 107.483 92.7485 107.248 92.7526C107.016 92.7484 106.786 92.8064 106.584 92.9208C106.386 93.0334 106.224 93.199 106.115 93.399C105.998 93.6101 105.94 93.8485 105.946 94.0896C105.941 94.3306 105.999 94.5689 106.115 94.7803C106.221 94.9798 106.385 95.1431 106.584 95.2496C106.786 95.3667 107.015 95.4278 107.248 95.4267C107.487 95.4174 107.72 95.344 107.921 95.2142V95.2496Z" fill="#263238"/>
<path d="M102.015 116.333C101.746 116.266 101.493 116.145 101.271 115.979L101.599 115.253C101.794 115.39 102.009 115.498 102.236 115.572C102.477 115.649 102.728 115.687 102.98 115.687C103.19 115.702 103.401 115.662 103.591 115.572C103.649 115.539 103.698 115.491 103.732 115.434C103.766 115.376 103.785 115.311 103.786 115.244C103.787 115.196 103.778 115.149 103.758 115.106C103.738 115.063 103.708 115.025 103.671 114.996C103.58 114.927 103.478 114.873 103.37 114.837L102.883 114.704C102.616 114.645 102.353 114.571 102.094 114.482C101.895 114.402 101.717 114.278 101.572 114.119C101.423 113.928 101.347 113.689 101.36 113.446C101.356 113.213 101.424 112.985 101.554 112.791C101.7 112.579 101.907 112.415 102.148 112.322C102.454 112.197 102.782 112.137 103.113 112.145C103.378 112.145 103.643 112.178 103.901 112.242C104.135 112.299 104.359 112.392 104.565 112.517L104.273 113.252C103.921 113.043 103.521 112.93 103.113 112.924C102.903 112.909 102.694 112.955 102.511 113.057C102.451 113.092 102.401 113.143 102.367 113.203C102.333 113.264 102.315 113.333 102.316 113.402C102.317 113.471 102.338 113.539 102.378 113.596C102.417 113.652 102.473 113.696 102.537 113.721C102.76 113.811 102.992 113.879 103.228 113.925C103.492 113.985 103.752 114.062 104.007 114.155C104.208 114.228 104.387 114.35 104.53 114.509C104.681 114.696 104.756 114.933 104.742 115.173C104.744 115.406 104.677 115.634 104.547 115.828C104.395 116.039 104.186 116.202 103.945 116.298C103.635 116.419 103.304 116.476 102.971 116.466C102.648 116.466 102.326 116.422 102.015 116.333Z" fill="#263238"/>
<path d="M105.866 115.935C105.526 115.561 105.348 115.067 105.371 114.562V112.224H106.336V114.527C106.336 115.279 106.646 115.651 107.221 115.651C107.351 115.66 107.481 115.639 107.602 115.592C107.722 115.544 107.831 115.471 107.921 115.377C108.11 115.123 108.195 114.806 108.16 114.491V112.189H109.107V114.562C109.136 114.818 109.108 115.077 109.024 115.32C108.939 115.564 108.802 115.785 108.621 115.969C108.44 116.152 108.221 116.293 107.978 116.38C107.736 116.468 107.477 116.5 107.221 116.475C106.716 116.481 106.229 116.286 105.866 115.935Z" fill="#263238"/>
<path d="M113.738 114.562C113.876 114.752 113.948 114.983 113.942 115.217C113.956 115.389 113.924 115.562 113.849 115.718C113.775 115.873 113.66 116.006 113.517 116.103C113.139 116.321 112.704 116.422 112.268 116.395H110.108V112.216H112.153C112.564 112.191 112.972 112.293 113.322 112.508C113.455 112.592 113.562 112.711 113.634 112.851C113.706 112.991 113.739 113.148 113.73 113.305C113.735 113.495 113.685 113.682 113.588 113.845C113.486 114.004 113.346 114.135 113.181 114.226C113.395 114.281 113.589 114.398 113.738 114.562ZM111.082 112.915V113.898H112.038C112.227 113.91 112.414 113.867 112.578 113.774C112.638 113.733 112.686 113.677 112.719 113.612C112.751 113.547 112.767 113.475 112.764 113.402C112.769 113.329 112.754 113.257 112.721 113.191C112.689 113.126 112.639 113.07 112.578 113.03C112.413 112.941 112.226 112.901 112.038 112.915H111.082ZM112.782 115.51C112.847 115.468 112.899 115.41 112.933 115.342C112.967 115.273 112.983 115.196 112.977 115.12C112.977 114.775 112.72 114.598 112.206 114.598H111.082V115.634H112.206C112.403 115.643 112.599 115.6 112.773 115.51H112.782Z" fill="#263238"/>
<path d="M114.668 116.271C114.438 116.172 114.237 116.017 114.083 115.819L114.624 115.182C114.705 115.315 114.818 115.425 114.952 115.504C115.087 115.583 115.238 115.627 115.394 115.634C115.792 115.634 115.987 115.403 115.987 114.943V112.959H114.517V112.18H116.944V114.89C116.96 115.099 116.935 115.309 116.87 115.508C116.805 115.707 116.7 115.891 116.563 116.05C116.412 116.185 116.236 116.288 116.044 116.354C115.852 116.419 115.649 116.445 115.447 116.43C115.179 116.434 114.913 116.38 114.668 116.271Z" fill="#263238"/>
<path d="M121.132 115.581V116.333H117.9V112.154H121.061V112.933H118.865V113.819H120.804V114.571H118.865V115.536L121.132 115.581Z" fill="#263238"/>
<path d="M122.735 116.156C122.4 115.979 122.121 115.712 121.929 115.386C121.724 115.05 121.62 114.663 121.628 114.27C121.621 113.877 121.726 113.49 121.929 113.154C122.119 112.828 122.399 112.564 122.735 112.393C123.092 112.203 123.49 112.105 123.895 112.109C124.233 112.103 124.568 112.169 124.878 112.304C125.164 112.424 125.416 112.613 125.613 112.853L124.993 113.42C124.865 113.266 124.706 113.143 124.525 113.059C124.344 112.975 124.147 112.932 123.948 112.933C123.707 112.93 123.469 112.988 123.257 113.101C123.057 113.213 122.891 113.379 122.779 113.579C122.669 113.793 122.611 114.03 122.611 114.27C122.611 114.51 122.669 114.747 122.779 114.961C122.891 115.161 123.057 115.327 123.257 115.439C123.544 115.601 123.878 115.658 124.202 115.598C124.526 115.538 124.819 115.365 125.028 115.111L125.648 115.687C125.452 115.927 125.199 116.116 124.913 116.236C124.603 116.371 124.268 116.437 123.93 116.43C123.515 116.444 123.103 116.349 122.735 116.156Z" fill="#263238"/>
<path d="M127.091 112.968H125.736V112.18H129.375V112.968H128.038V116.333H127.073L127.091 112.968Z" fill="#263238"/>
<path d="M105.229 155.666C105.367 155.856 105.439 156.086 105.433 156.321C105.448 156.493 105.416 156.666 105.341 156.822C105.267 156.978 105.151 157.111 105.008 157.207C104.632 157.433 104.196 157.538 103.759 157.508H101.599V153.328H103.644C104.054 153.303 104.463 153.405 104.813 153.621C104.945 153.705 105.053 153.824 105.125 153.964C105.196 154.104 105.229 154.26 105.22 154.418C105.225 154.607 105.176 154.795 105.079 154.958C104.977 155.117 104.837 155.248 104.671 155.338C104.887 155.386 105.082 155.501 105.229 155.666ZM102.573 154.01V154.993H103.529C103.72 155.008 103.912 154.965 104.078 154.869C104.137 154.83 104.185 154.776 104.216 154.712C104.247 154.648 104.261 154.577 104.255 154.506C104.261 154.434 104.248 154.361 104.217 154.296C104.186 154.231 104.138 154.175 104.078 154.134C103.91 154.043 103.72 154 103.529 154.01H102.573ZM104.273 156.605C104.337 156.565 104.389 156.508 104.423 156.441C104.457 156.374 104.473 156.299 104.468 156.224C104.468 155.879 104.211 155.701 103.697 155.701H102.573V156.737H103.697C103.895 156.75 104.092 156.704 104.264 156.605H104.273Z" fill="#263238"/>
<path d="M107.017 157.251C106.677 157.074 106.393 156.808 106.194 156.481C106.002 156.143 105.901 155.762 105.901 155.374C105.901 154.986 106.002 154.604 106.194 154.267C106.393 153.939 106.677 153.673 107.017 153.497C107.379 153.31 107.78 153.213 108.186 153.213C108.593 153.213 108.994 153.31 109.355 153.497C109.693 153.676 109.977 153.941 110.179 154.267C110.37 154.604 110.471 154.986 110.471 155.374C110.471 155.762 110.37 156.143 110.179 156.481C109.977 156.806 109.693 157.072 109.355 157.251C108.994 157.437 108.593 157.535 108.186 157.535C107.78 157.535 107.379 157.437 107.017 157.251ZM108.859 156.543C109.055 156.428 109.217 156.263 109.328 156.064C109.439 155.851 109.496 155.614 109.496 155.374C109.496 155.133 109.439 154.897 109.328 154.683C109.217 154.485 109.055 154.32 108.859 154.205C108.654 154.091 108.421 154.033 108.186 154.037C107.954 154.031 107.724 154.089 107.522 154.205C107.324 154.317 107.162 154.483 107.053 154.683C106.943 154.897 106.885 155.133 106.885 155.374C106.885 155.614 106.943 155.851 107.053 156.064C107.162 156.264 107.324 156.43 107.522 156.543C107.726 156.654 107.954 156.712 108.186 156.711C108.421 156.711 108.652 156.653 108.859 156.543Z" fill="#263238"/>
<path d="M111.197 153.284H113.101C113.517 153.278 113.928 153.366 114.305 153.541C114.638 153.705 114.917 153.96 115.111 154.276C115.311 154.607 115.412 154.987 115.403 155.374C115.411 155.76 115.31 156.14 115.111 156.472C114.917 156.785 114.637 157.037 114.305 157.198C113.93 157.38 113.518 157.471 113.101 157.463H111.197V153.284ZM113.048 156.667C113.414 156.685 113.772 156.561 114.049 156.321C114.174 156.198 114.271 156.05 114.335 155.887C114.399 155.724 114.428 155.549 114.42 155.374C114.43 155.198 114.401 155.023 114.337 154.86C114.273 154.696 114.174 154.549 114.049 154.426C113.772 154.186 113.414 154.062 113.048 154.081H112.162V156.667H113.048Z" fill="#263238"/>
<path d="M117.953 155.985V157.463H116.988V155.967L115.367 153.311H116.394L117.51 155.17L118.626 153.311H119.538L117.953 155.985Z" fill="#263238"/>
<path d="M143.012 138.116C143.155 138.304 143.227 138.536 143.215 138.771C143.222 138.936 143.187 139.1 143.113 139.247C143.038 139.394 142.927 139.52 142.79 139.612C142.415 139.83 141.984 139.932 141.551 139.905H139.39V135.734H141.427C141.84 135.708 142.251 135.81 142.604 136.026C142.736 136.11 142.842 136.227 142.914 136.366C142.985 136.504 143.019 136.659 143.012 136.814C143.013 137.008 142.961 137.198 142.861 137.363C142.764 137.524 142.623 137.653 142.454 137.735C142.675 137.801 142.87 137.934 143.012 138.116ZM140.355 136.46V137.443H141.32C141.509 137.454 141.696 137.411 141.861 137.319C141.92 137.278 141.969 137.222 142.001 137.157C142.034 137.092 142.049 137.02 142.047 136.947C142.05 136.876 142.035 136.804 142.002 136.741C141.97 136.677 141.921 136.623 141.861 136.584C141.698 136.486 141.509 136.443 141.32 136.46H140.355ZM142.064 139.055C142.127 139.011 142.178 138.953 142.212 138.885C142.246 138.817 142.262 138.741 142.259 138.665C142.259 138.32 141.993 138.143 141.489 138.143H140.346V139.179H141.48C141.679 139.189 141.878 139.146 142.055 139.055H142.064Z" fill="#263238"/>
<path d="M144.8 139.701C144.459 139.52 144.176 139.247 143.98 138.914C143.785 138.582 143.686 138.201 143.693 137.815C143.689 137.426 143.79 137.044 143.985 136.708C144.181 136.381 144.463 136.115 144.8 135.938C145.163 135.748 145.568 135.65 145.978 135.654C146.385 135.649 146.787 135.747 147.147 135.938C147.484 136.115 147.766 136.381 147.961 136.708C148.16 137.043 148.264 137.426 148.262 137.815C148.266 138.205 148.162 138.588 147.961 138.922C147.766 139.251 147.484 139.521 147.147 139.701C146.786 139.889 146.384 139.983 145.978 139.976C145.569 139.983 145.164 139.888 144.8 139.701ZM146.642 138.984C146.838 138.872 147 138.71 147.111 138.515C147.222 138.299 147.279 138.061 147.279 137.819C147.279 137.578 147.222 137.339 147.111 137.124C147.005 136.925 146.841 136.762 146.642 136.655C146.44 136.538 146.211 136.477 145.978 136.478C145.742 136.477 145.51 136.538 145.305 136.655C145.107 136.764 144.945 136.927 144.836 137.124C144.725 137.339 144.668 137.578 144.668 137.819C144.668 138.061 144.725 138.299 144.836 138.515C144.951 138.714 145.118 138.879 145.319 138.991C145.52 139.103 145.748 139.159 145.978 139.152C146.21 139.156 146.44 139.098 146.642 138.984Z" fill="#263238"/>
<path d="M148.989 135.734H150.884C151.3 135.724 151.712 135.812 152.088 135.991C152.423 136.151 152.705 136.403 152.903 136.717C153.094 137.051 153.192 137.43 153.186 137.815C153.194 138.2 153.096 138.58 152.903 138.913C152.706 139.23 152.423 139.484 152.088 139.648C151.711 139.824 151.299 139.912 150.884 139.905H148.989V135.734ZM150.839 139.117C151.206 139.132 151.565 139.005 151.84 138.762C151.966 138.64 152.064 138.492 152.128 138.329C152.193 138.166 152.221 137.99 152.212 137.815C152.221 137.641 152.192 137.467 152.128 137.305C152.064 137.143 151.966 136.997 151.84 136.876C151.705 136.754 151.547 136.66 151.375 136.599C151.203 136.539 151.021 136.512 150.839 136.522H149.954V139.117H150.839Z" fill="#263238"/>
<path d="M155.745 138.47V139.949H154.771V138.461L153.16 135.805H154.187L155.303 137.655L156.418 135.805H157.366L155.745 138.47Z" fill="#263238"/>
<path d="M173.88 135.734V139.904H172.915V136.504H172.083V135.734H173.88Z" fill="#263238"/>
<path d="M177.731 139.117V139.905H174.579V139.276L176.208 137.762C176.347 137.639 176.466 137.495 176.562 137.337C176.617 137.229 176.647 137.112 176.651 136.991C176.655 136.917 176.64 136.843 176.609 136.775C176.579 136.707 176.532 136.648 176.474 136.602C176.329 136.502 176.154 136.455 175.978 136.469C175.808 136.46 175.638 136.493 175.483 136.566C175.329 136.639 175.194 136.748 175.093 136.885L174.393 136.434C174.561 136.186 174.794 135.99 175.066 135.867C175.372 135.72 175.709 135.647 176.049 135.654C176.329 135.648 176.607 135.702 176.864 135.814C177.084 135.899 177.275 136.047 177.413 136.239C177.539 136.434 177.603 136.662 177.599 136.894C177.602 137.115 177.554 137.333 177.457 137.532C177.32 137.792 177.133 138.024 176.908 138.213L175.943 139.099L177.731 139.117Z" fill="#263238"/>
<path d="M190.181 138.001C190.074 137.864 189.938 137.752 189.783 137.673C189.884 137.594 189.971 137.498 190.04 137.39C190.148 137.205 190.204 136.993 190.199 136.779C190.202 136.605 190.162 136.432 190.081 136.278C190.001 136.123 189.883 135.991 189.739 135.893C189.366 135.667 188.934 135.559 188.499 135.584H186.33V140.011H188.605C189.067 140.039 189.526 139.928 189.925 139.692C190.08 139.589 190.205 139.448 190.289 139.282C190.373 139.116 190.412 138.931 190.403 138.745C190.414 138.479 190.336 138.217 190.181 138.001ZM187.525 138.231H188.526C189.172 138.231 189.172 138.523 189.172 138.63C189.176 138.684 189.166 138.739 189.143 138.789C189.119 138.838 189.084 138.881 189.039 138.913C188.881 138.994 188.703 139.03 188.526 139.019H187.543L187.525 138.231ZM188.835 137.177C188.689 137.257 188.524 137.294 188.357 137.284H187.525V136.549H188.357C188.522 136.54 188.687 136.573 188.835 136.646C188.875 136.678 188.906 136.719 188.927 136.765C188.949 136.811 188.96 136.861 188.96 136.912C188.96 136.962 188.949 137.013 188.927 137.058C188.906 137.104 188.875 137.145 188.835 137.177Z" fill="#263238"/>
<path d="M201.338 135.698H202.312L201.427 139.869H200.461L201.338 135.698Z" fill="#263238"/>
<path d="M213.169 138.603C212.994 138.413 212.861 138.189 212.775 137.945C212.69 137.702 212.655 137.444 212.673 137.186V134.848H213.638V137.151C213.638 137.894 213.948 138.275 214.524 138.275C214.652 138.282 214.78 138.261 214.899 138.214C215.018 138.167 215.126 138.094 215.214 138.001C215.403 137.747 215.489 137.43 215.453 137.115V134.813H216.41V137.151C216.425 137.408 216.389 137.666 216.304 137.909C216.219 138.152 216.086 138.376 215.914 138.567C215.725 138.739 215.505 138.871 215.264 138.957C215.024 139.042 214.769 139.078 214.515 139.063C214.023 139.09 213.541 138.925 213.169 138.603Z" fill="#263238"/>
<path d="M266.111 137.292L267.431 135.964C267.716 135.679 267.876 135.292 267.876 134.888C267.876 134.485 267.716 134.098 267.431 133.812L267.006 133.387C266.72 133.102 266.333 132.942 265.93 132.942C265.526 132.942 265.139 133.102 264.854 133.387L263.526 134.707C263.266 134.973 263.112 135.325 263.092 135.696C263.073 136.068 263.189 136.434 263.419 136.726L262.614 137.54C262.323 137.306 261.956 137.187 261.584 137.207C261.211 137.227 260.859 137.383 260.595 137.647L259.267 138.966C258.981 139.253 258.821 139.641 258.821 140.046C258.821 140.451 258.981 140.839 259.267 141.126L259.692 141.551C259.979 141.837 260.367 141.997 260.772 141.997C261.177 141.997 261.565 141.837 261.852 141.551L263.172 140.223C263.434 139.96 263.59 139.61 263.61 139.239C263.63 138.868 263.511 138.502 263.278 138.213L264.092 137.399C264.384 137.629 264.75 137.745 265.122 137.726C265.493 137.706 265.845 137.552 266.111 137.292ZM264.199 135.38L265.527 134.06C265.634 133.955 265.779 133.896 265.93 133.896C266.08 133.896 266.225 133.955 266.333 134.06L266.758 134.485C266.863 134.593 266.922 134.738 266.922 134.888C266.922 135.039 266.863 135.184 266.758 135.291L265.438 136.619C265.351 136.702 265.24 136.755 265.122 136.773C265.003 136.79 264.882 136.771 264.774 136.717L264.978 136.513L264.305 135.84L264.101 136.044C264.047 135.937 264.028 135.815 264.045 135.696C264.063 135.578 264.116 135.467 264.199 135.38ZM262.499 139.55L261.179 140.879C261.07 140.985 260.924 141.044 260.772 141.044C260.62 141.044 260.474 140.985 260.365 140.879L259.94 140.453C259.834 140.344 259.774 140.198 259.774 140.046C259.774 139.894 259.834 139.748 259.94 139.639L261.268 138.319C261.353 138.237 261.462 138.183 261.58 138.165C261.697 138.148 261.817 138.168 261.923 138.222L261.666 138.479L262.339 139.152L262.596 138.895C262.651 139.001 262.67 139.121 262.653 139.238C262.636 139.356 262.581 139.465 262.499 139.55Z" fill="#263238"/>
<path d="M251.925 133.458H245.213V134.45H251.925V133.458Z" fill="#263238"/>
<path d="M253.909 135.805H243.221V136.796H253.909V135.805Z" fill="#263238"/>
<path d="M251.925 138.143H245.213V139.134H251.925V138.143Z" fill="#263238"/>
<path d="M252.917 140.48H244.213V141.472H252.917V140.48Z" fill="#263238"/>
<path d="M227.141 133.954C227.142 134.145 227.087 134.333 226.982 134.492C226.877 134.652 226.727 134.777 226.551 134.852C226.375 134.926 226.181 134.947 225.993 134.91C225.805 134.874 225.632 134.783 225.496 134.648C225.36 134.514 225.268 134.342 225.23 134.154C225.192 133.967 225.21 133.772 225.283 133.595C225.356 133.419 225.48 133.267 225.638 133.161C225.797 133.054 225.984 132.998 226.176 132.998C226.43 132.998 226.674 133.098 226.855 133.277C227.036 133.456 227.138 133.699 227.141 133.954Z" fill="#263238"/>
<path d="M227.141 137.469C227.141 137.66 227.084 137.847 226.978 138.005C226.872 138.164 226.721 138.288 226.545 138.361C226.369 138.434 226.175 138.453 225.987 138.416C225.8 138.379 225.628 138.287 225.493 138.152C225.358 138.017 225.266 137.845 225.229 137.657C225.192 137.47 225.211 137.276 225.284 137.1C225.357 136.923 225.481 136.773 225.639 136.667C225.798 136.561 225.985 136.504 226.176 136.504C226.303 136.503 226.429 136.527 226.546 136.575C226.664 136.623 226.771 136.694 226.861 136.784C226.951 136.874 227.022 136.981 227.07 137.098C227.118 137.216 227.142 137.342 227.141 137.469Z" fill="#263238"/>
<path d="M227.141 140.976C227.142 141.167 227.087 141.355 226.982 141.514C226.877 141.674 226.727 141.799 226.551 141.874C226.375 141.948 226.181 141.969 225.993 141.932C225.805 141.896 225.632 141.805 225.496 141.67C225.36 141.536 225.268 141.364 225.23 141.176C225.192 140.989 225.21 140.794 225.283 140.617C225.356 140.441 225.48 140.289 225.638 140.183C225.797 140.076 225.984 140.02 226.176 140.02C226.43 140.02 226.674 140.12 226.855 140.299C227.036 140.478 227.138 140.721 227.141 140.976Z" fill="#263238"/>
<path d="M235.872 133.458H229.16V134.45H235.872V133.458Z" fill="#263238"/>
<path d="M235.872 136.974H229.16V137.965H235.872V136.974Z" fill="#263238"/>
<path d="M235.872 140.48H229.16V141.472H235.872V140.48Z" fill="#263238"/>
<path d="M169.258 137.505L167.399 139.356L165.539 137.505H169.258Z" fill="#263238"/>
<path d="M216.453 139.648H212.672V140.392H216.453V139.648Z" fill="#263238"/>
<path d="M138.894 154.152H176.739C177.019 154.127 177.28 153.998 177.469 153.791C177.659 153.584 177.764 153.313 177.764 153.032C177.764 152.751 177.659 152.48 177.469 152.273C177.28 152.065 177.019 151.937 176.739 151.912H138.894C138.614 151.937 138.354 152.065 138.164 152.273C137.974 152.48 137.869 152.751 137.869 153.032C137.869 153.313 137.974 153.584 138.164 153.791C138.354 153.998 138.614 154.127 138.894 154.152Z" fill="#263238"/>
<path d="M182.646 154.152H212.514C212.793 154.127 213.054 153.998 213.244 153.791C213.433 153.584 213.538 153.313 213.538 153.032C213.538 152.751 213.433 152.48 213.244 152.273C213.054 152.065 212.793 151.937 212.514 151.912H182.646C182.367 151.937 182.106 152.065 181.916 152.273C181.727 152.48 181.622 152.751 181.622 153.032C181.622 153.313 181.727 153.584 181.916 153.791C182.106 153.998 182.367 154.127 182.646 154.152Z" fill="#263238"/>
<path d="M218.579 154.152H244.496C244.776 154.127 245.037 153.998 245.226 153.791C245.416 153.584 245.521 153.313 245.521 153.032C245.521 152.751 245.416 152.48 245.226 152.273C245.037 152.065 244.776 151.937 244.496 151.912H218.579C218.299 151.937 218.038 152.065 217.849 152.273C217.659 152.48 217.554 152.751 217.554 153.032C217.554 153.313 217.659 153.584 217.849 153.791C218.038 153.998 218.299 154.127 218.579 154.152Z" fill="#263238"/>
<path d="M250.27 154.152H276.18C276.459 154.127 276.72 153.998 276.91 153.791C277.099 153.584 277.204 153.313 277.204 153.032C277.204 152.751 277.099 152.48 276.91 152.273C276.72 152.065 276.459 151.937 276.18 151.912H250.27C249.991 151.937 249.73 152.065 249.541 152.273C249.351 152.48 249.246 152.751 249.246 153.032C249.246 153.313 249.351 153.584 249.541 153.791C249.73 153.998 249.991 154.127 250.27 154.152Z" fill="#263238"/>
<path d="M138.895 165.114H166.3C166.596 165.114 166.88 164.997 167.089 164.787C167.298 164.578 167.416 164.294 167.416 163.999C167.416 163.703 167.298 163.419 167.089 163.21C166.88 163 166.596 162.883 166.3 162.883H138.895C138.599 162.883 138.315 163 138.106 163.21C137.896 163.419 137.779 163.703 137.779 163.999C137.779 164.294 137.896 164.578 138.106 164.787C138.315 164.997 138.599 165.114 138.895 165.114Z" fill="#263238"/>
<path d="M172.207 165.114H202.906C203.202 165.114 203.486 164.997 203.695 164.787C203.904 164.578 204.022 164.294 204.022 163.999C204.022 163.703 203.904 163.419 203.695 163.21C203.486 163 203.202 162.883 202.906 162.883H172.207C171.911 162.883 171.627 163 171.418 163.21C171.208 163.419 171.091 163.703 171.091 163.999C171.091 164.294 171.208 164.578 171.418 164.787C171.627 164.997 171.911 165.114 172.207 165.114Z" fill="#263238"/>
<path d="M208.971 165.114H234.163C234.459 165.114 234.743 164.997 234.952 164.787C235.161 164.578 235.279 164.294 235.279 163.999C235.279 163.703 235.161 163.419 234.952 163.21C234.743 163 234.459 162.883 234.163 162.883H208.971C208.675 162.883 208.391 163 208.182 163.21C207.973 163.419 207.855 163.703 207.855 163.999C207.855 164.294 207.973 164.578 208.182 164.787C208.391 164.997 208.675 165.114 208.971 165.114Z" fill="#263238"/>
<path d="M239.963 165.114H276.179C276.475 165.114 276.759 164.997 276.968 164.787C277.178 164.578 277.295 164.294 277.295 163.999C277.295 163.703 277.178 163.419 276.968 163.21C276.759 163 276.475 162.883 276.179 162.883H239.963C239.667 162.883 239.384 163 239.174 163.21C238.965 163.419 238.848 163.703 238.848 163.999C238.848 164.294 238.965 164.578 239.174 164.787C239.384 164.997 239.667 165.114 239.963 165.114Z" fill="#263238"/>
<path d="M138.894 176.085H173.782C174.062 176.06 174.322 175.931 174.512 175.724C174.701 175.517 174.807 175.246 174.807 174.965C174.807 174.684 174.701 174.413 174.512 174.206C174.322 173.998 174.062 173.87 173.782 173.845H138.894C138.614 173.87 138.354 173.998 138.164 174.206C137.974 174.413 137.869 174.684 137.869 174.965C137.869 175.246 137.974 175.517 138.164 175.724C138.354 175.931 138.614 176.06 138.894 176.085Z" fill="#263238"/>
<path d="M179.688 176.085H212.513C212.793 176.06 213.053 175.931 213.243 175.724C213.432 175.517 213.538 175.246 213.538 174.965C213.538 174.684 213.432 174.413 213.243 174.206C213.053 173.998 212.793 173.87 212.513 173.845H179.662C179.382 173.87 179.121 173.998 178.932 174.206C178.742 174.413 178.637 174.684 178.637 174.965C178.637 175.246 178.742 175.517 178.932 175.724C179.121 175.931 179.382 176.06 179.662 176.085H179.688Z" fill="#263238"/>
<path d="M218.579 176.085H255.769C256.049 176.06 256.309 175.931 256.499 175.724C256.688 175.517 256.793 175.246 256.793 174.965C256.793 174.684 256.688 174.413 256.499 174.206C256.309 173.998 256.049 173.87 255.769 173.845H218.579C218.299 173.87 218.038 173.998 217.849 174.206C217.659 174.413 217.554 174.684 217.554 174.965C217.554 175.246 217.659 175.517 217.849 175.724C218.038 175.931 218.299 176.06 218.579 176.085Z" fill="#263238"/>
<path d="M261.56 176.085H276.179C276.459 176.06 276.72 175.931 276.909 175.724C277.099 175.517 277.204 175.246 277.204 174.965C277.204 174.684 277.099 174.413 276.909 174.206C276.72 173.998 276.459 173.87 276.179 173.845H261.56C261.28 173.87 261.02 173.998 260.83 174.206C260.64 174.413 260.535 174.684 260.535 174.965C260.535 175.246 260.64 175.517 260.83 175.724C261.02 175.931 261.28 176.06 261.56 176.085Z" fill="#263238"/>
<path d="M138.894 187.047H168.115C168.395 187.022 168.655 186.894 168.845 186.686C169.034 186.479 169.14 186.208 169.14 185.927C169.14 185.646 169.034 185.375 168.845 185.168C168.655 184.961 168.395 184.832 168.115 184.807H138.894C138.614 184.832 138.354 184.961 138.164 185.168C137.974 185.375 137.869 185.646 137.869 185.927C137.869 186.208 137.974 186.479 138.164 186.686C138.354 186.894 138.614 187.022 138.894 187.047Z" fill="#263238"/>
<path d="M174.04 187.047H202.906C203.186 187.022 203.446 186.894 203.636 186.686C203.826 186.479 203.931 186.208 203.931 185.927C203.931 185.646 203.826 185.375 203.636 185.168C203.446 184.961 203.186 184.832 202.906 184.807H174.04C173.76 184.832 173.499 184.961 173.31 185.168C173.12 185.375 173.015 185.646 173.015 185.927C173.015 186.208 173.12 186.479 173.31 186.686C173.499 186.894 173.76 187.022 174.04 187.047Z" fill="#263238"/>
<path d="M208.971 187.047H228.673C228.952 187.022 229.213 186.894 229.403 186.686C229.592 186.479 229.697 186.208 229.697 185.927C229.697 185.646 229.592 185.375 229.403 185.168C229.213 184.961 228.952 184.832 228.673 184.807H208.971C208.691 184.832 208.43 184.961 208.241 185.168C208.051 185.375 207.946 185.646 207.946 185.927C207.946 186.208 208.051 186.479 208.241 186.686C208.43 186.894 208.691 187.022 208.971 187.047Z" fill="#263238"/>
<path d="M234.419 187.047H276.179C276.458 187.022 276.719 186.894 276.908 186.686C277.098 186.479 277.203 186.208 277.203 185.927C277.203 185.646 277.098 185.375 276.908 185.168C276.719 184.961 276.458 184.832 276.179 184.807H234.419C234.14 184.832 233.879 184.961 233.689 185.168C233.5 185.375 233.395 185.646 233.395 185.927C233.395 186.208 233.5 186.479 233.689 186.686C233.879 186.894 234.14 187.022 234.419 187.047Z" fill="#263238"/>
<g opacity="0.3">
<path d="M138.894 154.152H176.739C177.019 154.127 177.279 153.998 177.469 153.791C177.658 153.584 177.764 153.313 177.764 153.032C177.764 152.751 177.658 152.48 177.469 152.273C177.279 152.065 177.019 151.937 176.739 151.912H138.894C138.614 151.937 138.353 152.065 138.164 152.273C137.974 152.48 137.869 152.751 137.869 153.032C137.869 153.313 137.974 153.584 138.164 153.791C138.353 153.998 138.614 154.127 138.894 154.152Z" fill="white"/>
<path d="M182.645 154.152H212.512C212.792 154.127 213.052 153.998 213.242 153.791C213.431 153.584 213.537 153.313 213.537 153.032C213.537 152.751 213.431 152.48 213.242 152.273C213.052 152.065 212.792 151.937 212.512 151.912H182.645C182.365 151.937 182.104 152.065 181.915 152.273C181.725 152.48 181.62 152.751 181.62 153.032C181.62 153.313 181.725 153.584 181.915 153.791C182.104 153.998 182.365 154.127 182.645 154.152Z" fill="white"/>
<path d="M218.578 154.152H244.496C244.776 154.127 245.036 153.998 245.226 153.791C245.416 153.584 245.521 153.313 245.521 153.032C245.521 152.751 245.416 152.48 245.226 152.273C245.036 152.065 244.776 151.937 244.496 151.912H218.578C218.298 151.937 218.038 152.065 217.848 152.273C217.658 152.48 217.553 152.751 217.553 153.032C217.553 153.313 217.658 153.584 217.848 153.791C218.038 153.998 218.298 154.127 218.578 154.152Z" fill="white"/>
<path d="M250.269 154.152H276.178C276.457 154.127 276.718 153.998 276.908 153.791C277.097 153.584 277.202 153.313 277.202 153.032C277.202 152.751 277.097 152.48 276.908 152.273C276.718 152.065 276.457 151.937 276.178 151.912H250.269C249.989 151.937 249.728 152.065 249.539 152.273C249.349 152.48 249.244 152.751 249.244 153.032C249.244 153.313 249.349 153.584 249.539 153.791C249.728 153.998 249.989 154.127 250.269 154.152Z" fill="white"/>
<path d="M138.894 165.114H166.299C166.595 165.114 166.879 164.997 167.088 164.787C167.297 164.578 167.415 164.294 167.415 163.999C167.415 163.703 167.297 163.419 167.088 163.21C166.879 163 166.595 162.883 166.299 162.883H138.894C138.598 162.883 138.314 163 138.105 163.21C137.895 163.419 137.778 163.703 137.778 163.999C137.778 164.294 137.895 164.578 138.105 164.787C138.314 164.997 138.598 165.114 138.894 165.114Z" fill="white"/>
<path d="M172.206 165.114H202.905C203.201 165.114 203.485 164.997 203.694 164.787C203.903 164.578 204.021 164.294 204.021 163.999C204.021 163.703 203.903 163.419 203.694 163.21C203.485 163 203.201 162.883 202.905 162.883H172.206C171.91 162.883 171.626 163 171.417 163.21C171.207 163.419 171.09 163.703 171.09 163.999C171.09 164.294 171.207 164.578 171.417 164.787C171.626 164.997 171.91 165.114 172.206 165.114Z" fill="white"/>
<path d="M208.97 165.114H234.162C234.458 165.114 234.742 164.997 234.951 164.787C235.16 164.578 235.278 164.294 235.278 163.999C235.278 163.703 235.16 163.419 234.951 163.21C234.742 163 234.458 162.883 234.162 162.883H208.97C208.674 162.883 208.39 163 208.181 163.21C207.972 163.419 207.854 163.703 207.854 163.999C207.854 164.294 207.972 164.578 208.181 164.787C208.39 164.997 208.674 165.114 208.97 165.114Z" fill="white"/>
<path d="M239.961 165.114H276.177C276.473 165.114 276.757 164.997 276.966 164.787C277.176 164.578 277.293 164.294 277.293 163.999C277.293 163.703 277.176 163.419 276.966 163.21C276.757 163 276.473 162.883 276.177 162.883H239.961C239.666 162.883 239.382 163 239.172 163.21C238.963 163.419 238.846 163.703 238.846 163.999C238.846 164.294 238.963 164.578 239.172 164.787C239.382 164.997 239.666 165.114 239.961 165.114Z" fill="white"/>
<path d="M138.894 176.085H173.781C174.061 176.06 174.322 175.931 174.511 175.724C174.701 175.517 174.806 175.246 174.806 174.965C174.806 174.684 174.701 174.413 174.511 174.206C174.322 173.998 174.061 173.87 173.781 173.845H138.894C138.614 173.87 138.353 173.998 138.164 174.206C137.974 174.413 137.869 174.684 137.869 174.965C137.869 175.246 137.974 175.517 138.164 175.724C138.353 175.931 138.614 176.06 138.894 176.085Z" fill="white"/>
<path d="M179.687 176.085H212.512C212.792 176.06 213.052 175.931 213.242 175.724C213.431 175.517 213.537 175.246 213.537 174.965C213.537 174.684 213.431 174.413 213.242 174.206C213.052 173.998 212.792 173.87 212.512 173.845H179.661C179.381 173.87 179.12 173.998 178.931 174.206C178.741 174.413 178.636 174.684 178.636 174.965C178.636 175.246 178.741 175.517 178.931 175.724C179.12 175.931 179.381 176.06 179.661 176.085H179.687Z" fill="white"/>
<path d="M218.578 176.085H255.768C256.048 176.06 256.308 175.931 256.498 175.724C256.688 175.517 256.793 175.246 256.793 174.965C256.793 174.684 256.688 174.413 256.498 174.206C256.308 173.998 256.048 173.87 255.768 173.845H218.578C218.298 173.87 218.038 173.998 217.848 174.206C217.658 174.413 217.553 174.684 217.553 174.965C217.553 175.246 217.658 175.517 217.848 175.724C218.038 175.931 218.298 176.06 218.578 176.085Z" fill="white"/>
<path d="M261.558 176.085H276.177C276.457 176.06 276.718 175.931 276.907 175.724C277.097 175.517 277.202 175.246 277.202 174.965C277.202 174.684 277.097 174.413 276.907 174.206C276.718 173.998 276.457 173.87 276.177 173.845H261.558C261.278 173.87 261.018 173.998 260.828 174.206C260.638 174.413 260.533 174.684 260.533 174.965C260.533 175.246 260.638 175.517 260.828 175.724C261.018 175.931 261.278 176.06 261.558 176.085Z" fill="white"/>
<path d="M138.894 187.047H168.114C168.394 187.022 168.655 186.894 168.844 186.686C169.034 186.479 169.139 186.208 169.139 185.927C169.139 185.646 169.034 185.375 168.844 185.168C168.655 184.961 168.394 184.832 168.114 184.807H138.894C138.614 184.832 138.353 184.961 138.164 185.168C137.974 185.375 137.869 185.646 137.869 185.927C137.869 186.208 137.974 186.479 138.164 186.686C138.353 186.894 138.614 187.022 138.894 187.047Z" fill="white"/>
<path d="M174.039 187.047H202.905C203.185 187.022 203.445 186.894 203.635 186.686C203.825 186.479 203.93 186.208 203.93 185.927C203.93 185.646 203.825 185.375 203.635 185.168C203.445 184.961 203.185 184.832 202.905 184.807H174.039C173.759 184.832 173.498 184.961 173.309 185.168C173.119 185.375 173.014 185.646 173.014 185.927C173.014 186.208 173.119 186.479 173.309 186.686C173.498 186.894 173.759 187.022 174.039 187.047Z" fill="white"/>
<path d="M208.97 187.047H228.672C228.952 187.022 229.212 186.894 229.402 186.686C229.592 186.479 229.697 186.208 229.697 185.927C229.697 185.646 229.592 185.375 229.402 185.168C229.212 184.961 228.952 184.832 228.672 184.807H208.97C208.69 184.832 208.43 184.961 208.24 185.168C208.051 185.375 207.945 185.646 207.945 185.927C207.945 186.208 208.051 186.479 208.24 186.686C208.43 186.894 208.69 187.022 208.97 187.047Z" fill="white"/>
<path d="M234.418 187.047H276.178C276.457 187.022 276.718 186.894 276.908 186.686C277.097 186.479 277.202 186.208 277.202 185.927C277.202 185.646 277.097 185.375 276.908 185.168C276.718 184.961 276.457 184.832 276.178 184.807H234.418C234.139 184.832 233.878 184.961 233.688 185.168C233.499 185.375 233.394 185.646 233.394 185.927C233.394 186.208 233.499 186.479 233.688 186.686C233.878 186.894 234.139 187.022 234.418 187.047Z" fill="white"/>
</g>
<path d="M176.474 161.988H131.828C129.285 161.988 127.224 164.05 127.224 166.593V208.263C127.224 210.806 129.285 212.868 131.828 212.868H176.474C179.017 212.868 181.078 210.806 181.078 208.263V166.593C181.078 164.05 179.017 161.988 176.474 161.988Z" fill="#1676AD"/>
<path d="M174.481 161.988H129.835C127.292 161.988 125.231 164.05 125.231 166.593V208.263C125.231 210.806 127.292 212.868 129.835 212.868H174.481C177.024 212.868 179.086 210.806 179.086 208.263V166.593C179.086 164.05 177.024 161.988 174.481 161.988Z" fill="#1676AD"/>
<path opacity="0.6" d="M174.481 161.988H129.835C127.292 161.988 125.231 164.05 125.231 166.593V208.263C125.231 210.806 127.292 212.868 129.835 212.868H174.481C177.024 212.868 179.086 210.806 179.086 208.263V166.593C179.086 164.05 177.024 161.988 174.481 161.988Z" fill="white"/>
<path d="M133.564 176.085H170.754C171.034 176.06 171.295 175.931 171.484 175.724C171.674 175.517 171.779 175.246 171.779 174.965C171.779 174.684 171.674 174.413 171.484 174.206C171.295 173.998 171.034 173.87 170.754 173.845H133.564C133.285 173.87 133.024 173.998 132.834 174.206C132.645 174.413 132.54 174.684 132.54 174.965C132.54 175.246 132.645 175.517 132.834 175.724C133.024 175.931 133.285 176.06 133.564 176.085Z" fill="#263238"/>
<path d="M133.564 198.302H170.754C171.05 198.302 171.334 198.184 171.543 197.975C171.753 197.766 171.87 197.482 171.87 197.186C171.87 196.89 171.753 196.606 171.543 196.397C171.334 196.188 171.05 196.07 170.754 196.07H133.564C133.269 196.07 132.985 196.188 132.776 196.397C132.566 196.606 132.449 196.89 132.449 197.186C132.449 197.482 132.566 197.766 132.776 197.975C132.985 198.184 133.269 198.302 133.564 198.302Z" fill="#263238"/>
<path d="M133.564 187.047H170.754C171.034 187.022 171.295 186.894 171.484 186.686C171.674 186.479 171.779 186.208 171.779 185.927C171.779 185.646 171.674 185.375 171.484 185.168C171.295 184.961 171.034 184.832 170.754 184.807H133.564C133.285 184.832 133.024 184.961 132.834 185.168C132.645 185.375 132.54 185.646 132.54 185.927C132.54 186.208 132.645 186.479 132.834 186.686C133.024 186.894 133.285 187.022 133.564 187.047Z" fill="#263238"/>
<g opacity="0.1">
<path d="M133.564 176.085H170.754C171.034 176.061 171.294 175.932 171.484 175.724C171.674 175.517 171.779 175.246 171.779 174.965C171.779 174.684 171.674 174.414 171.484 174.206C171.294 173.999 171.034 173.87 170.754 173.845H133.564C133.284 173.87 133.024 173.999 132.834 174.206C132.644 174.414 132.539 174.684 132.539 174.965C132.539 175.246 132.644 175.517 132.834 175.724C133.024 175.932 133.284 176.061 133.564 176.085Z" fill="white"/>
<path d="M133.564 198.302H170.754C171.05 198.302 171.334 198.185 171.543 197.975C171.752 197.766 171.87 197.482 171.87 197.186C171.87 196.891 171.752 196.607 171.543 196.398C171.334 196.188 171.05 196.071 170.754 196.071H133.564C133.268 196.071 132.984 196.188 132.775 196.398C132.566 196.607 132.448 196.891 132.448 197.186C132.448 197.482 132.566 197.766 132.775 197.975C132.984 198.185 133.268 198.302 133.564 198.302Z" fill="white"/>
<path d="M133.564 187.048H170.754C171.034 187.023 171.294 186.894 171.484 186.687C171.674 186.48 171.779 186.209 171.779 185.928C171.779 185.647 171.674 185.376 171.484 185.169C171.294 184.961 171.034 184.833 170.754 184.808H133.564C133.284 184.833 133.024 184.961 132.834 185.169C132.644 185.376 132.539 185.647 132.539 185.928C132.539 186.209 132.644 186.48 132.834 186.687C133.024 186.894 133.284 187.023 133.564 187.048Z" fill="white"/>
</g>
<path d="M169.514 203.003H163.9C163.206 203.003 162.643 203.566 162.643 204.261V207.218C162.643 207.913 163.206 208.476 163.9 208.476H169.514C170.208 208.476 170.771 207.913 170.771 207.218V204.261C170.771 203.566 170.208 203.003 169.514 203.003Z" fill="#1676AD"/>
<path opacity="0.8" d="M159.04 203.003H153.426C152.731 203.003 152.168 203.566 152.168 204.261V207.218C152.168 207.913 152.731 208.476 153.426 208.476H159.04C159.734 208.476 160.297 207.913 160.297 207.218V204.261C160.297 203.566 159.734 203.003 159.04 203.003Z" fill="white"/>
<path d="M136.823 328.396C136.823 328.396 134.051 286.451 139.869 276.489C139.869 276.489 146.342 285.105 143.88 328.396H136.823Z" fill="#1676AD"/>
<path d="M143.879 328.396C143.879 328.396 145.216 290.666 163.741 284.574C156.588 298.135 152.553 313.121 151.928 328.44L143.879 328.396Z" fill="#1676AD"/>
<path d="M137.443 328.396C137.443 328.396 136.132 290.666 117.582 284.529C124.734 298.091 128.773 313.077 129.403 328.396H137.443Z" fill="#1676AD"/>
<g opacity="0.3">
<path d="M136.823 328.396C136.823 328.396 134.051 286.451 139.869 276.489C139.869 276.489 146.342 285.105 143.88 328.396H136.823Z" fill="white"/>
<path d="M143.88 328.396C143.88 328.396 145.217 290.666 163.742 284.574C156.589 298.135 152.554 313.121 151.929 328.44L143.88 328.396Z" fill="white"/>
<path d="M137.442 328.396C137.442 328.396 136.132 290.666 117.581 284.529C124.734 298.091 128.772 313.077 129.402 328.396H137.442Z" fill="white"/>
</g>
<path d="M125.613 329.733C125.613 329.733 121.3 299.512 107.195 291.118C107.195 291.118 131.661 289.099 131.103 329.733H125.613Z" fill="#1676AD"/>
<path d="M133.059 328.724C133.059 328.724 138.195 296.147 121.973 280.704C121.973 280.704 144.898 285.742 138.85 329.733L133.059 328.724Z" fill="#1676AD"/>
<path d="M155.276 329.733C155.276 329.733 159.588 299.512 173.694 291.118C173.694 291.118 149.228 289.099 149.786 329.733H155.276Z" fill="#1676AD"/>
<path d="M147.874 328.724C147.874 328.724 142.738 296.147 158.951 280.704C158.951 280.704 136.035 285.742 142.074 329.733L147.874 328.724Z" fill="#1676AD"/>
<g opacity="0.5">
<path d="M125.612 329.733C125.612 329.733 121.3 299.511 107.194 291.117C107.194 291.117 131.66 289.098 131.102 329.733H125.612Z" fill="white"/>
<path d="M133.059 328.724C133.059 328.724 138.195 296.147 121.973 280.704C121.973 280.704 144.898 285.742 138.85 329.733L133.059 328.724Z" fill="white"/>
<path d="M155.276 329.733C155.276 329.733 159.588 299.511 173.694 291.117C173.694 291.117 149.228 289.098 149.786 329.733H155.276Z" fill="white"/>
<path d="M147.873 328.724C147.873 328.724 142.737 296.147 158.95 280.704C158.95 280.704 136.034 285.742 142.073 329.733L147.873 328.724Z" fill="white"/>
</g>
<path d="M155.79 353.039H125.286L119.379 320.56H161.705L155.79 353.039Z" fill="#263238"/>
<path d="M210.628 218.384H199.462C199.285 218.384 199.11 218.423 198.949 218.498C198.789 218.573 198.647 218.682 198.533 218.818C198.42 218.954 198.338 219.114 198.294 219.285C198.249 219.457 198.243 219.636 198.275 219.81V219.907C197.72 219.771 197.138 219.789 196.593 219.96C194.574 220.571 194.521 222.36 195.123 224.388C195.725 226.416 196.761 227.877 198.771 227.274C199.085 227.172 199.383 227.026 199.657 226.841C200.052 227.787 200.701 228.606 201.534 229.205V230.684H208.458V229.205C209.63 228.355 210.429 227.086 210.69 225.663L211.77 219.801C211.799 219.631 211.792 219.457 211.748 219.291C211.705 219.124 211.627 218.969 211.519 218.835C211.411 218.701 211.275 218.591 211.122 218.514C210.968 218.436 210.8 218.392 210.628 218.384ZM198.506 225.982C197.186 226.38 196.504 225.415 196.106 224.087C195.707 222.759 195.752 221.581 197.071 221.191C197.559 221.03 198.09 221.069 198.55 221.298L199.329 225.53C199.093 225.742 198.811 225.897 198.506 225.982Z" fill="#263238"/>
<path opacity="0.7" d="M210.628 218.384H199.462C199.285 218.384 199.11 218.423 198.949 218.498C198.789 218.573 198.647 218.682 198.533 218.818C198.42 218.954 198.338 219.114 198.294 219.285C198.249 219.457 198.243 219.636 198.275 219.81V219.907C197.72 219.771 197.138 219.789 196.593 219.96C194.574 220.571 194.521 222.36 195.123 224.388C195.725 226.416 196.761 227.877 198.771 227.274C199.085 227.172 199.383 227.026 199.657 226.841C200.052 227.787 200.701 228.606 201.534 229.205V230.684H208.458V229.205C209.63 228.355 210.429 227.086 210.69 225.663L211.77 219.801C211.799 219.631 211.792 219.457 211.748 219.291C211.705 219.124 211.627 218.969 211.519 218.835C211.411 218.701 211.275 218.591 211.122 218.514C210.968 218.436 210.8 218.392 210.628 218.384ZM198.506 225.982C197.186 226.38 196.504 225.415 196.106 224.087C195.707 222.759 195.752 221.581 197.071 221.191C197.559 221.03 198.09 221.069 198.55 221.298L199.329 225.53C199.093 225.742 198.811 225.897 198.506 225.982Z" fill="white"/>
<path opacity="0.5" d="M198.506 225.982C197.187 226.38 196.505 225.415 196.106 224.087C195.708 222.759 195.752 221.581 197.072 221.191C197.559 221.03 198.091 221.069 198.55 221.298L199.33 225.53C199.094 225.742 198.812 225.897 198.506 225.982Z" fill="white"/>
<path d="M208.804 232.41H201.286C200.828 232.409 200.378 232.293 199.976 232.074L197.461 230.675C197.358 230.623 197.276 230.539 197.227 230.434C197.179 230.33 197.168 230.212 197.196 230.1C197.224 229.989 197.289 229.89 197.381 229.821C197.472 229.751 197.585 229.715 197.7 229.718H212.443C212.559 229.713 212.673 229.747 212.766 229.816C212.859 229.885 212.926 229.984 212.955 230.096C212.984 230.208 212.974 230.327 212.926 230.432C212.878 230.538 212.795 230.623 212.691 230.675L210.15 232.074C209.737 232.299 209.274 232.415 208.804 232.41Z" fill="#263238"/>
<path opacity="0.6" d="M208.804 232.41H201.286C200.828 232.409 200.378 232.293 199.976 232.074L197.461 230.675C197.358 230.623 197.276 230.539 197.227 230.434C197.179 230.33 197.168 230.212 197.196 230.1C197.224 229.989 197.289 229.89 197.381 229.821C197.472 229.751 197.585 229.715 197.7 229.718H212.443C212.559 229.713 212.673 229.747 212.766 229.816C212.859 229.885 212.926 229.984 212.955 230.096C212.984 230.208 212.974 230.327 212.926 230.432C212.878 230.538 212.795 230.623 212.691 230.675L210.15 232.074C209.737 232.299 209.274 232.415 208.804 232.41Z" fill="white"/>
<path d="M264.597 352.525H260.347L265.305 286.557H270.964L264.597 352.525Z" fill="#1676AD"/>
<path opacity="0.7" d="M264.597 352.525H260.347L265.305 286.557H270.964L264.597 352.525Z" fill="white"/>
<g opacity="0.4">
<path d="M299.441 352.525H295.19L300.149 286.557H305.807L299.441 352.525Z" fill="#1676AD"/>
</g>
<path d="M341.484 352.525H345.725L340.775 286.557H335.108L341.484 352.525Z" fill="#1676AD"/>
<g opacity="0.4">
<path d="M341.484 352.525H345.725L340.775 286.557H335.108L341.484 352.525Z" fill="white"/>
</g>
<path d="M338.163 286.557H268.458V292.72H338.163V286.557Z" fill="#1676AD"/>
<path opacity="0.5" d="M338.163 286.557H268.458V292.72H338.163V286.557Z" fill="white"/>
<path d="M306.64 352.525H310.882L305.932 286.557H300.265L306.64 352.525Z" fill="#1676AD"/>
<path opacity="0.7" d="M306.64 352.525H310.882L305.932 286.557H300.265L306.64 352.525Z" fill="white"/>
<path d="M342.396 209.574H330.84C327.875 209.578 324.971 210.421 322.464 212.005C319.958 213.589 317.95 215.85 316.673 218.526L284.149 286.557H339.137C340.95 286.557 342.699 285.889 344.051 284.68C345.402 283.471 346.259 281.807 346.46 280.005L352.933 221.289C353.096 219.81 352.945 218.313 352.49 216.897C352.034 215.48 351.284 214.176 350.289 213.07C349.294 211.964 348.077 211.081 346.716 210.478C345.356 209.875 343.883 209.567 342.396 209.574Z" fill="#263238"/>
<path opacity="0.4" d="M342.396 209.574H330.84C327.875 209.578 324.971 210.421 322.464 212.005C319.958 213.589 317.95 215.85 316.673 218.526L284.149 286.557H339.137C340.95 286.557 342.699 285.889 344.051 284.68C345.402 283.471 346.259 281.807 346.46 280.005L352.933 221.289C353.096 219.81 352.945 218.313 352.49 216.897C352.034 215.48 351.284 214.176 350.289 213.07C349.294 211.964 348.077 211.081 346.716 210.478C345.356 209.875 343.883 209.567 342.396 209.574Z" fill="white"/>
<path d="M335.347 209.574H323.836C320.871 209.581 317.969 210.425 315.462 212.008C312.956 213.592 310.948 215.851 309.669 218.526L277.154 286.557H331.053C333.161 286.557 335.195 285.779 336.765 284.372C338.335 282.965 339.331 281.029 339.562 278.933L345.92 221.289C346.084 219.807 345.932 218.307 345.474 216.888C345.017 215.47 344.264 214.164 343.265 213.057C342.266 211.95 341.044 211.068 339.679 210.467C338.315 209.867 336.838 209.563 335.347 209.574Z" fill="#263238"/>
<path opacity="0.3" d="M335.347 209.574H323.836C320.871 209.581 317.969 210.425 315.462 212.008C312.956 213.592 310.948 215.851 309.669 218.526L277.154 286.557H331.053C333.161 286.557 335.195 285.779 336.765 284.372C338.335 282.965 339.331 281.029 339.562 278.933L345.92 221.289C346.084 219.807 345.932 218.307 345.474 216.888C345.017 215.47 344.264 214.164 343.265 213.057C342.266 211.95 341.044 211.068 339.679 210.467C338.315 209.867 336.838 209.563 335.347 209.574Z" fill="white"/>
<path d="M311.979 286.557H266.82C265.83 286.557 264.849 286.362 263.934 285.983C263.02 285.604 262.188 285.048 261.489 284.347C260.789 283.646 260.234 282.815 259.856 281.899C259.478 280.984 259.284 280.003 259.285 279.013C259.285 277.014 260.079 275.098 261.492 273.685C262.905 272.271 264.822 271.478 266.82 271.478H311.979V286.557Z" fill="#263238"/>
<path opacity="0.3" d="M311.979 286.557H266.82C265.83 286.557 264.849 286.362 263.934 285.983C263.02 285.604 262.188 285.048 261.489 284.347C260.789 283.646 260.234 282.815 259.856 281.899C259.478 280.984 259.284 280.003 259.285 279.013C259.285 277.014 260.079 275.098 261.492 273.685C262.905 272.271 264.822 271.478 266.82 271.478H311.979V286.557Z" fill="white"/>
<path d="M339.597 286.557H310.376C308.462 286.557 306.627 285.797 305.273 284.444C303.92 283.09 303.16 281.255 303.16 279.341V278.694C303.16 276.78 303.92 274.945 305.273 273.591C306.627 272.238 308.462 271.478 310.376 271.478H339.597C340.587 271.476 341.568 271.67 342.483 272.049C343.399 272.427 344.23 272.982 344.931 273.681C345.632 274.381 346.188 275.212 346.567 276.127C346.946 277.042 347.141 278.023 347.141 279.013C347.142 280.004 346.948 280.986 346.569 281.901C346.191 282.817 345.635 283.649 344.934 284.35C344.233 285.051 343.401 285.607 342.486 285.985C341.57 286.364 340.588 286.558 339.597 286.557Z" fill="#263238"/>
<path opacity="0.4" d="M339.597 286.557H310.376C308.462 286.557 306.627 285.797 305.273 284.444C303.92 283.09 303.16 281.255 303.16 279.341V278.694C303.16 276.78 303.92 274.945 305.273 273.591C306.627 272.238 308.462 271.478 310.376 271.478H339.597C340.587 271.476 341.568 271.67 342.483 272.049C343.399 272.427 344.23 272.982 344.931 273.681C345.632 274.381 346.188 275.212 346.567 276.127C346.946 277.042 347.141 278.023 347.141 279.013C347.142 280.004 346.948 280.986 346.569 281.901C346.191 282.817 345.635 283.649 344.934 284.35C344.233 285.051 343.401 285.607 342.486 285.985C341.57 286.364 340.588 286.558 339.597 286.557Z" fill="white"/>
<path d="M296.838 169.789C296.838 169.789 292.95 181.982 296.838 177.891C296.838 177.891 294.004 191.457 299.246 182.469C299.246 182.469 296.758 194.565 300.84 194.671C304.922 194.777 316.716 194.228 316.716 194.228L319.825 188.818L321.046 185.622C321.046 185.622 327.068 186.507 325.474 180.654C323.965 175.847 322.165 171.136 320.081 166.548L316.088 161.669L299.29 164.795L296.838 169.789Z" fill="#263238"/>
<path opacity="0.6" d="M296.838 169.789C296.838 169.789 292.95 181.982 296.838 177.891C296.838 177.891 294.004 191.457 299.246 182.469C299.246 182.469 296.758 194.565 300.84 194.671C304.922 194.777 316.716 194.228 316.716 194.228L319.825 188.818L321.046 185.622C321.046 185.622 327.068 186.507 325.474 180.654C323.965 175.847 322.165 171.136 320.081 166.548L316.088 161.669L299.29 164.795L296.838 169.789Z" fill="black"/>
<path d="M287.859 202.933C287.859 202.933 288.381 213.213 282.661 218.101C277.463 222.528 269.273 226.008 269.273 226.008L262.313 223.954C261.986 223.854 261.637 223.852 261.309 223.946C260.981 224.04 260.687 224.228 260.462 224.485L257.098 228.319C256.936 228.5 256.813 228.712 256.737 228.942C256.66 229.173 256.632 229.416 256.654 229.658C256.675 229.899 256.746 230.134 256.862 230.347C256.978 230.56 257.137 230.747 257.328 230.896C257.513 231.044 257.726 231.153 257.954 231.217C258.182 231.28 258.421 231.298 258.656 231.268L262.34 230.825C263.8 231.114 265.28 231.295 266.767 231.365C267.915 231.138 269.046 230.827 270.149 230.436C270.149 230.436 282.803 229.346 288.461 223.972C294.119 218.597 296.05 207.449 296.05 207.449L287.859 202.933Z" fill="#EBB376"/>
<path d="M294.863 184.338C290.338 183.656 287.168 194.866 286.38 205.456L297.006 209.264C297.006 209.264 303.301 185.622 294.863 184.338Z" fill="#1676AD"/>
<path opacity="0.1" d="M296.979 209.308C296.979 209.308 300.14 197.461 298.989 190.085L292.366 187.623C292.366 187.623 287.54 198.01 290.028 222.281C293.42 217.915 295.137 211.655 295.766 208.866L296.979 209.308Z" fill="black"/>
<path d="M250.527 323.871L251.307 347.877H256.681L259.196 323.438L250.527 323.871Z" fill="#EBB376"/>
<path d="M251.226 345.415H257.354C257.482 345.414 257.607 345.458 257.707 345.539C257.807 345.619 257.876 345.732 257.903 345.858L259.169 351.622C259.198 351.743 259.202 351.869 259.182 351.991C259.162 352.114 259.118 352.232 259.052 352.337C258.986 352.443 258.9 352.534 258.798 352.606C258.697 352.678 258.582 352.728 258.461 352.756C258.393 352.764 258.325 352.764 258.257 352.756C255.707 352.702 253.44 352.561 250.288 352.552C246.542 352.552 247.49 352.995 243.08 353.048C240.424 353.048 239.945 350.055 241.07 349.913C246.232 349.276 247.72 347.708 249.712 345.867C250.149 345.544 250.684 345.384 251.226 345.415Z" fill="#263238"/>
<path opacity="0.1" d="M257.23 342.608L257.832 336.728H250.943L251.138 342.608H257.23Z" fill="#263238"/>
<path d="M313.458 233.632C313.458 233.632 330.202 271.708 314.122 271.708H267.687C267.687 271.708 265.677 281.829 258.443 337.446H250.677C250.677 337.446 246.976 272.31 251.27 262.587C254.635 254.981 278.587 249.535 288.797 247.534C290.135 247.274 291.358 246.601 292.293 245.61C293.229 244.619 293.83 243.36 294.012 242.009L296.279 232.658L313.458 233.632Z" fill="#263238"/>
<path d="M249.199 336.082L249.819 340.306H259.046L259.896 336.082H249.199Z" fill="#263238"/>
<path opacity="0.3" d="M249.199 336.082L249.819 340.306H259.046L259.896 336.082H249.199Z" fill="white"/>
<path opacity="0.4" d="M281.058 265.093L310.42 250.616V242.646L305.993 233.845C305.993 233.845 305.488 242.815 299.29 246.002C293.092 249.19 269.387 250.633 263.791 258.142C259.311 264.155 263.038 283.821 264.677 291.339C266.943 275.498 267.705 271.672 267.705 271.672H274.497L275.072 269.397L281.058 265.093Z" fill="black"/>
<path d="M272.044 323.88L274.187 347.567L279.332 347.558L281.749 323.446L272.044 323.88Z" fill="#EBB376"/>
<path d="M273.673 345.415H279.801C279.93 345.415 280.055 345.459 280.156 345.54C280.258 345.62 280.329 345.732 280.359 345.858L281.625 351.622C281.652 351.744 281.655 351.869 281.634 351.992C281.613 352.115 281.568 352.232 281.501 352.338C281.435 352.443 281.348 352.534 281.246 352.606C281.144 352.677 281.029 352.728 280.908 352.756C280.84 352.765 280.771 352.765 280.704 352.756C278.154 352.702 275.887 352.561 272.735 352.552C268.989 352.552 269.936 352.995 265.527 353.048C262.87 353.048 262.392 350.055 263.517 349.913C268.679 349.276 270.167 347.708 272.159 345.867C272.595 345.544 273.131 345.384 273.673 345.415Z" fill="#263238"/>
<path opacity="0.1" d="M279.828 342.608L280.421 336.728H273.205L273.736 342.608H279.828Z" fill="#263238"/>
<path d="M325.509 234.287C325.509 234.287 326.82 238.095 328.52 243.275C332.168 254.334 334.151 271.672 323.207 271.672H284.06C284.06 271.672 288.337 275.798 280.784 337.41H273.018C273.018 337.41 262.693 270.282 266.979 260.568C270.291 253.086 290.338 249.668 299.379 248.49C300.628 248.327 301.784 247.74 302.654 246.828C303.524 245.917 304.056 244.734 304.16 243.479L305.046 232.623L325.509 234.287Z" fill="#263238"/>
<path d="M271.619 336.082L272.513 340.306H281.466L282.325 336.082H271.619Z" fill="#263238"/>
<path opacity="0.3" d="M271.619 336.082L272.513 340.306H281.466L282.325 336.082H271.619Z" fill="white"/>
<path d="M294.978 236.758C295.002 231.079 294.706 225.402 294.092 219.757C292.95 208.856 290.728 195.344 292.127 187.596C292.308 186.588 292.842 185.678 293.634 185.028C294.426 184.379 295.424 184.034 296.448 184.054H326.014C326.463 184.06 326.906 184.161 327.314 184.351C327.721 184.542 328.083 184.816 328.376 185.157C328.669 185.498 328.887 185.897 329.014 186.328C329.141 186.759 329.175 187.213 329.113 187.658C327.652 195.955 323.942 217.897 326.828 237.413C326.864 237.395 304.187 239.202 294.978 236.758Z" fill="#1676AD"/>
<path opacity="0.1" d="M326.404 223.529C326.315 220.811 326.315 218.119 326.404 215.507L321.64 215.073L312.962 223.68L305.4 225.787L301.548 229.382C301.548 229.382 319.187 228.904 324.163 225.38C324.947 224.808 325.695 224.19 326.404 223.529Z" fill="black"/>
<path d="M312.82 168.745C312.36 173.021 313.529 182.124 316.716 184.683C316.716 184.683 315.539 190.253 305.976 191.129C300.149 188.562 302.319 183.824 302.319 183.824C306.905 182.275 307.366 179.485 306.312 176.289L312.82 168.745Z" fill="#EBB376"/>
<path d="M303.602 183.08C303.602 183.08 301.034 189.677 307.569 189.703C315.078 189.703 315.742 183.08 315.742 183.08L317.761 184.036C317.761 184.036 317.424 197.239 306.356 191.696C306.356 191.696 302.088 194.671 301.512 189.703C300.937 184.736 301.92 184.036 301.92 184.036L303.602 183.08Z" fill="#1676AD"/>
<path opacity="0.3" d="M303.602 183.08C303.602 183.08 301.034 189.677 307.569 189.703C315.078 189.703 315.742 183.08 315.742 183.08L317.761 184.036C317.761 184.036 317.424 197.239 306.356 191.696C306.356 191.696 302.088 194.671 301.512 189.703C300.937 184.736 301.92 184.036 301.92 184.036L303.602 183.08Z" fill="white"/>
<path opacity="0.1" d="M306.108 181.265C307.809 181.265 311.182 180.521 312.457 175.067C314.228 167.62 306.312 176.306 306.312 176.306C306.923 178.139 307.02 179.848 306.108 181.265Z" fill="black"/>
<path d="M315.584 160.704C316.23 167.744 316.655 170.71 313.68 174.828C309.252 181.026 300.398 180.282 297.697 173.579C295.235 167.54 294.598 157.056 300.991 153.213C302.073 152.557 303.274 152.121 304.525 151.93C305.776 151.739 307.052 151.797 308.281 152.099C309.51 152.402 310.667 152.944 311.686 153.694C312.705 154.444 313.566 155.388 314.22 156.472C315.003 157.755 315.47 159.206 315.584 160.704Z" fill="#EBB376"/>
<path d="M300.769 167.363C300.495 168.745 300.034 170.083 299.397 171.339C299.723 171.49 300.078 171.568 300.437 171.568C300.797 171.568 301.152 171.49 301.478 171.339L300.769 167.363Z" fill="#D58745"/>
<path d="M305.143 162.927C305.188 162.908 305.228 162.878 305.258 162.839C305.281 162.81 305.298 162.778 305.308 162.742C305.319 162.707 305.322 162.671 305.318 162.634C305.314 162.598 305.302 162.563 305.284 162.531C305.267 162.499 305.242 162.471 305.214 162.449C304.805 162.118 304.323 161.891 303.809 161.786C303.294 161.681 302.761 161.702 302.256 161.847C302.196 161.878 302.149 161.929 302.123 161.992C302.098 162.054 302.096 162.124 302.117 162.188C302.138 162.252 302.182 162.307 302.24 162.342C302.298 162.376 302.367 162.389 302.433 162.378C302.853 162.264 303.293 162.252 303.719 162.343C304.144 162.434 304.541 162.625 304.877 162.9C304.916 162.925 304.961 162.94 305.007 162.945C305.053 162.949 305.099 162.943 305.143 162.927Z" fill="#2E353A"/>
<path d="M295.377 164.414C295.326 164.406 295.278 164.388 295.235 164.361C295.175 164.32 295.134 164.257 295.121 164.185C295.108 164.114 295.123 164.04 295.164 163.98C295.453 163.535 295.845 163.166 296.308 162.905C296.771 162.645 297.29 162.5 297.82 162.484C297.894 162.486 297.964 162.517 298.015 162.57C298.066 162.623 298.095 162.694 298.095 162.767C298.095 162.84 298.066 162.91 298.015 162.961C297.963 163.013 297.893 163.042 297.82 163.042C297.387 163.067 296.966 163.195 296.59 163.413C296.215 163.631 295.896 163.935 295.66 164.299C295.627 164.341 295.583 164.374 295.533 164.394C295.484 164.414 295.43 164.421 295.377 164.414Z" fill="#2E353A"/>
<path d="M304.603 165.716C304.71 166.274 304.488 166.787 304.116 166.858C303.744 166.929 303.372 166.522 303.275 165.973C303.178 165.424 303.39 164.901 303.753 164.839C304.116 164.777 304.488 165.14 304.603 165.716Z" fill="#2E353A"/>
<path d="M298.201 166.859C298.299 167.425 298.086 167.93 297.714 168.001C297.342 168.072 296.97 167.664 296.829 167.115C296.687 166.566 296.944 166.044 297.307 165.973C297.67 165.902 298.104 166.292 298.201 166.859Z" fill="#2E353A"/>
<path d="M297.519 165.92L296.094 165.778C296.094 165.778 296.979 166.743 297.519 165.92Z" fill="#2E353A"/>
<path d="M303.903 164.813L302.478 164.663C302.478 164.663 303.363 165.601 303.903 164.813Z" fill="#2E353A"/>
<path d="M310.447 157.587C310.447 157.587 295.394 164.414 300.016 157.587C300.016 157.587 291.347 163.431 293.774 158.853C296.2 154.276 298.201 153.824 298.201 153.824C298.201 153.824 295.917 154.603 296.111 152.841C296.306 151.079 301.212 148.414 305.329 149.857C305.329 149.857 304.045 147.874 305.418 147.094C306.79 146.315 309.544 150.406 309.544 150.406C309.544 150.406 316.026 148.972 316.708 150.521C317.389 152.071 315.273 151.84 315.273 151.84C315.273 151.84 322.463 154.16 321.914 155.931C321.365 157.702 320.099 156.587 320.099 156.587C320.099 156.587 326.014 163.555 324.792 165.982C323.57 168.408 321.365 165.556 321.365 165.556C321.365 165.556 327.342 174.633 324.792 176.652C322.242 178.67 320.037 173.11 320.037 173.11C320.037 173.11 323.481 181.725 321.038 182.381C318.594 183.036 317.752 176.616 317.752 176.616C317.752 176.616 318.638 181.84 316.708 181.832C314.777 181.823 313.954 165.477 313.954 165.477C313.954 165.477 312.112 171.932 310.447 157.587Z" fill="#263238"/>
<path d="M318.08 165.964C317.902 167.315 317.195 168.541 316.114 169.373C314.653 170.453 313.281 169.311 313.148 167.602C313.024 166.07 313.626 163.653 315.353 163.245C315.958 163.125 316.587 163.248 317.102 163.588C317.618 163.927 317.979 164.457 318.107 165.061C318.159 165.36 318.15 165.668 318.08 165.964Z" fill="#EBB376"/>
<path d="M303.426 174.225C303.223 174.286 303.016 174.333 302.806 174.367C302.79 174.369 302.773 174.369 302.757 174.365C302.741 174.361 302.726 174.353 302.713 174.344C302.7 174.334 302.689 174.321 302.68 174.307C302.672 174.293 302.667 174.277 302.665 174.261C302.662 174.244 302.663 174.228 302.667 174.212C302.671 174.196 302.678 174.181 302.688 174.168C302.698 174.154 302.71 174.143 302.724 174.135C302.739 174.127 302.754 174.121 302.771 174.119C303.305 174.045 303.814 173.846 304.257 173.538C304.7 173.23 305.065 172.823 305.321 172.348C305.328 172.333 305.337 172.319 305.35 172.307C305.362 172.296 305.376 172.287 305.392 172.281C305.408 172.275 305.424 172.273 305.441 172.274C305.458 172.274 305.474 172.279 305.489 172.286C305.505 172.293 305.518 172.302 305.53 172.315C305.541 172.327 305.55 172.341 305.556 172.357C305.562 172.373 305.564 172.389 305.564 172.406C305.563 172.423 305.559 172.439 305.551 172.454C305.334 172.877 305.034 173.252 304.669 173.556C304.304 173.86 303.881 174.088 303.426 174.225Z" fill="#263238"/>
<path opacity="0.1" d="M322.924 191.988C322.924 191.988 320.542 203.995 318.771 207.272L324.084 207.936L326.36 193.051L322.924 191.988Z" fill="black"/>
<path d="M322.552 200.108C322.552 200.108 323.88 212.292 317.752 216.047C311.625 219.801 298.405 225.07 298.405 225.07L290.435 223.369C290.229 223.326 290.015 223.345 289.819 223.424C289.624 223.503 289.456 223.638 289.337 223.812L285.858 229.001C285.733 229.186 285.67 229.405 285.678 229.628C285.686 229.851 285.764 230.065 285.902 230.241C286.012 230.381 286.156 230.49 286.32 230.56C286.484 230.63 286.663 230.657 286.84 230.639L291.719 230.134C292.816 230.408 293.932 230.598 295.058 230.701C296.486 230.481 297.895 230.153 299.273 229.718C299.273 229.718 317.868 227.947 323.853 222.263C329.839 216.578 331.167 204.881 331.167 204.881L322.552 200.108Z" fill="#EBB376"/>
<path d="M327.085 184.293C321.374 183.611 322.224 196.46 321.046 205.456L331.672 207.935C331.672 207.935 335.595 185.311 327.085 184.293Z" fill="#1676AD"/>
<path d="M258.781 232.331C258.474 232.305 258.188 232.164 257.979 231.937C257.771 231.71 257.655 231.413 257.655 231.104C257.655 230.796 257.771 230.499 257.979 230.272C258.188 230.045 258.474 229.904 258.781 229.878H292.102C292.272 229.864 292.443 229.885 292.604 229.94C292.765 229.995 292.913 230.083 293.039 230.198C293.164 230.313 293.264 230.453 293.333 230.609C293.402 230.765 293.437 230.934 293.437 231.104C293.437 231.275 293.402 231.443 293.333 231.599C293.264 231.755 293.164 231.895 293.039 232.011C292.913 232.126 292.765 232.214 292.604 232.269C292.443 232.324 292.272 232.345 292.102 232.331H258.781Z" fill="#263238"/>
<path d="M261.605 230.224L257.178 198.656C257.087 198.08 256.797 197.554 256.359 197.169C255.921 196.784 255.361 196.564 254.778 196.549H250.528V232.331H259.799C260.066 232.341 260.331 232.291 260.576 232.184C260.82 232.077 261.038 231.916 261.211 231.714C261.385 231.511 261.511 231.272 261.579 231.014C261.647 230.756 261.656 230.486 261.605 230.224Z" fill="#263238"/>
<g opacity="0.1">
<path d="M258.781 232.331C258.474 232.305 258.188 232.164 257.979 231.937C257.771 231.71 257.655 231.413 257.655 231.104C257.655 230.796 257.771 230.499 257.979 230.272C258.188 230.045 258.474 229.904 258.781 229.878H292.102C292.272 229.864 292.443 229.885 292.604 229.94C292.765 229.995 292.913 230.083 293.039 230.198C293.164 230.313 293.264 230.453 293.333 230.609C293.402 230.765 293.437 230.934 293.437 231.104C293.437 231.275 293.402 231.443 293.333 231.599C293.264 231.755 293.164 231.895 293.039 232.011C292.913 232.126 292.765 232.214 292.604 232.269C292.443 232.324 292.272 232.345 292.102 232.331H258.781Z" fill="white"/>
<path d="M261.606 230.224L257.179 198.656C257.088 198.08 256.798 197.554 256.36 197.169C255.922 196.784 255.362 196.564 254.779 196.549H250.529V232.331H259.8C260.066 232.341 260.332 232.291 260.577 232.184C260.821 232.077 261.039 231.916 261.212 231.714C261.386 231.511 261.512 231.272 261.58 231.014C261.648 230.756 261.657 230.486 261.606 230.224Z" fill="white"/>
</g>
<path d="M257.966 232.331H220.289C219.707 232.318 219.148 232.1 218.709 231.717C218.271 231.333 217.98 230.808 217.889 230.233L213.462 198.665C213.412 198.406 213.42 198.139 213.486 197.884C213.553 197.629 213.675 197.391 213.845 197.189C214.015 196.987 214.227 196.826 214.467 196.717C214.708 196.607 214.969 196.553 215.233 196.558H252.91C253.493 196.575 254.051 196.795 254.489 197.18C254.927 197.564 255.217 198.09 255.31 198.665L259.737 230.233C259.786 230.491 259.776 230.757 259.709 231.011C259.642 231.266 259.52 231.502 259.35 231.703C259.181 231.904 258.968 232.064 258.729 232.173C258.49 232.282 258.229 232.336 257.966 232.331Z" fill="#263238"/>
<path opacity="0.7" d="M257.966 232.331H220.289C219.707 232.318 219.148 232.1 218.709 231.717C218.271 231.333 217.98 230.808 217.889 230.233L213.462 198.665C213.412 198.406 213.42 198.139 213.486 197.884C213.553 197.629 213.675 197.391 213.845 197.189C214.015 196.987 214.227 196.826 214.467 196.717C214.708 196.607 214.969 196.553 215.233 196.558H252.91C253.493 196.575 254.051 196.795 254.489 197.18C254.927 197.564 255.217 198.09 255.31 198.665L259.737 230.233C259.786 230.491 259.776 230.757 259.709 231.011C259.642 231.266 259.52 231.502 259.35 231.703C259.181 231.904 258.968 232.064 258.729 232.173C258.49 232.282 258.229 232.336 257.966 232.331Z" fill="white"/>
<path opacity="0.7" d="M238.45 213.577C238.493 213.815 238.483 214.06 238.42 214.295C238.356 214.529 238.242 214.746 238.084 214.93C237.926 215.114 237.729 215.26 237.508 215.359C237.286 215.457 237.045 215.505 236.803 215.498C236.27 215.483 235.76 215.282 235.36 214.932C234.959 214.581 234.693 214.102 234.607 213.577C234.563 213.337 234.573 213.091 234.637 212.857C234.701 212.622 234.816 212.404 234.975 212.22C235.134 212.036 235.332 211.889 235.555 211.792C235.778 211.694 236.019 211.647 236.262 211.655C236.794 211.669 237.304 211.869 237.704 212.22C238.103 212.571 238.367 213.051 238.45 213.577Z" fill="white"/>
<path d="M164.716 353.526H160.421L158.544 239.955H166.593L164.716 353.526Z" fill="#1676AD"/>
<path opacity="0.7" d="M164.716 353.526H160.421L158.544 239.955H166.593L164.716 353.526Z" fill="white"/>
<path d="M212.08 353.526H207.785L205.908 239.955H213.957L212.08 353.526Z" fill="#1676AD"/>
<path opacity="0.4" d="M212.08 353.526H207.785L205.908 239.955H213.957L212.08 353.526Z" fill="white"/>
<path d="M243.541 238.051H162.564V246.932H243.541V238.051Z" fill="#1676AD"/>
<path opacity="0.3" d="M243.541 238.051H162.564V246.932H243.541V238.051Z" fill="white"/>
<path d="M291.038 238.051H243.55V246.932H291.038V238.051Z" fill="#1676AD"/>
<path opacity="0.5" d="M291.038 238.051H243.55V246.932H291.038V238.051Z" fill="white"/>
<path d="M293.058 353.526H288.772L286.886 239.955H294.944L293.058 353.526Z" fill="#1676AD"/>
<path opacity="0.4" d="M293.058 353.526H288.772L286.886 239.955H294.944L293.058 353.526Z" fill="white"/>
<path d="M297.502 232.339H234.217C232.921 232.339 231.871 233.39 231.871 234.686V237.608C231.871 238.904 232.921 239.954 234.217 239.954H297.502C298.798 239.954 299.849 238.904 299.849 237.608V234.686C299.849 233.39 298.798 232.339 297.502 232.339Z" fill="#263238"/>
<path opacity="0.4" d="M297.502 232.339H234.217C232.921 232.339 231.871 233.39 231.871 234.686V237.608C231.871 238.904 232.921 239.954 234.217 239.954H297.502C298.798 239.954 299.849 238.904 299.849 237.608V234.686C299.849 233.39 298.798 232.339 297.502 232.339Z" fill="white"/>
<path d="M240.105 232.339H154.214C152.918 232.339 151.868 233.39 151.868 234.686V237.608C151.868 238.904 152.918 239.954 154.214 239.954H240.105C241.401 239.954 242.452 238.904 242.452 237.608V234.686C242.452 233.39 241.401 232.339 240.105 232.339Z" fill="#263238"/>
<path opacity="0.3" d="M240.105 232.339H154.214C152.918 232.339 151.868 233.39 151.868 234.686V237.608C151.868 238.904 152.918 239.954 154.214 239.954H240.105C241.401 239.954 242.452 238.904 242.452 237.608V234.686C242.452 233.39 241.401 232.339 240.105 232.339Z" fill="white"/>
<path d="M245.693 353.526H241.399L239.521 239.955H247.57L245.693 353.526Z" fill="#1676AD"/>
<path opacity="0.7" d="M245.693 353.526H241.399L239.521 239.955H247.57L245.693 353.526Z" fill="white"/>
</svg>
