<svg width="551" height="412" viewBox="0 0 551 412" fill="none" xmlns="http://www.w3.org/2000/svg">
<path d="M551 362.059H0V362.335H551V362.059Z" fill="#EBEBEB"/>
<path d="M347.868 369.59H319.811V369.867H347.868V369.59Z" fill="#EBEBEB"/>
<path d="M501.895 375.572H435.411V375.849H501.895V375.572Z" fill="#EBEBEB"/>
<path d="M313.839 369.721H245.151V369.998H313.839V369.721Z" fill="#EBEBEB"/>
<path d="M200.608 377.994H186.238V378.271H200.608V377.994Z" fill="#EBEBEB"/>
<path d="M280.007 377.994H214.57V378.271H280.007V377.994Z" fill="#EBEBEB"/>
<path d="M100.183 373.326H57.8108V373.603H100.183V373.326Z" fill="#EBEBEB"/>
<path d="M261.174 312.738H48.3888C46.7219 312.735 45.1242 312.068 43.9465 310.884C42.7689 309.7 42.1074 308.096 42.1074 306.423V6.25917C42.1219 4.59599 42.7898 3.00571 43.9659 1.83376C45.142 0.661812 46.7314 0.00284913 48.3888 0H261.174C262.843 0 264.443 0.665273 265.623 1.84947C266.803 3.03366 267.466 4.63977 267.466 6.31447V306.423C267.466 308.098 266.803 309.704 265.623 310.888C264.443 312.072 262.843 312.738 261.174 312.738ZM48.3888 0.221173C46.7949 0.224103 45.2673 0.861538 44.1413 1.99357C43.0153 3.12559 42.3829 4.65971 42.3829 6.25917V306.423C42.3829 308.023 43.0153 309.557 44.1413 310.689C45.2673 311.821 46.7949 312.458 48.3888 312.461H261.174C262.769 312.458 264.298 311.821 265.425 310.689C266.553 309.558 267.188 308.024 267.191 306.423V6.25917C267.188 4.65869 266.553 3.1246 265.425 1.99289C264.298 0.861179 262.769 0.224096 261.174 0.221173H48.3888Z" fill="#EBEBEB"/>
<path d="M499.548 312.738H286.751C285.083 312.735 283.485 312.068 282.305 310.885C281.126 309.701 280.462 308.097 280.459 306.423V6.25917C280.476 4.59498 281.147 3.00471 282.325 1.83307C283.502 0.661425 285.093 0.00281806 286.751 0H499.548C501.203 0.00575545 502.79 0.666004 503.963 1.83764C505.137 3.00928 505.803 4.5979 505.818 6.25917V306.423C505.818 308.094 505.158 309.697 503.983 310.88C502.807 312.064 501.213 312.732 499.548 312.738ZM286.751 0.221173C285.157 0.224096 283.628 0.861179 282.5 1.99289C281.372 3.1246 280.737 4.65869 280.734 6.25917V306.423C280.737 308.024 281.372 309.558 282.5 310.689C283.628 311.821 285.157 312.458 286.751 312.461H499.548C501.142 312.458 502.671 311.821 503.799 310.689C504.927 309.558 505.562 308.024 505.564 306.423V6.25917C505.562 4.65869 504.927 3.1246 503.799 1.99289C502.671 0.861179 501.142 0.224096 499.548 0.221173H286.751Z" fill="#EBEBEB"/>
<path d="M215.948 266.148H142.775L138.334 214.725H211.507L215.948 266.148Z" fill="#E6E6E6"/>
<path d="M219.739 266.148H146.566L142.125 214.725H215.298L219.739 266.148Z" fill="#F0F0F0"/>
<path d="M156.572 255.1L154.126 225.762H205.292L207.738 255.1H156.572Z" fill="white"/>
<path d="M232.401 266.148H223.816V362.059H232.401V266.148Z" fill="#E6E6E6"/>
<path d="M235.112 266.148H229.15V362.059H235.112V266.148Z" fill="#F0F0F0"/>
<path d="M152.01 276.73H235.112V266.147H152.01V276.73Z" fill="#F0F0F0"/>
<path d="M154.941 276.73H146.357V362.058H154.941V276.73Z" fill="#E6E6E6"/>
<path d="M157.652 276.73H151.69V362.058H157.652V276.73Z" fill="#F0F0F0"/>
<path d="M93.8351 276.73H85.2505V362.058H93.8351V276.73Z" fill="#E6E6E6"/>
<path d="M96.5463 276.73H90.5845V362.058H96.5463V276.73Z" fill="#F0F0F0"/>
<path d="M178.072 276.73H169.488V362.058H178.072V276.73Z" fill="#E6E6E6"/>
<path d="M180.772 276.73H174.81V362.058H180.772V276.73Z" fill="#F0F0F0"/>
<path d="M152.01 266.148H85.2505V276.731H152.01V266.148Z" fill="#E6E6E6"/>
<path d="M400.952 26.9958H142.72V171.266H400.952V26.9958Z" fill="#E0E0E0"/>
<path d="M415.135 26.9958H144.021V171.266H415.135V26.9958Z" fill="#F5F5F5"/>
<path d="M410.704 166.819V31.4393L148.45 31.4393V166.819L410.704 166.819Z" fill="white"/>
<path d="M254.639 166.819L304.152 31.4393H222.439L172.926 166.819H254.639Z" fill="#F5F5F5"/>
<path d="M333.289 166.819L382.802 31.4393H321.156L271.643 166.819H333.289Z" fill="#F5F5F5"/>
<path d="M482.797 224.269H460.845V362.059H482.797V224.269Z" fill="#E6E6E6"/>
<path d="M477.022 362.059H482.797V351.454H470.972L477.022 362.059Z" fill="#FAFAFA"/>
<path d="M280.404 224.269H258.452V362.059H280.404V224.269Z" fill="#E6E6E6"/>
<path d="M482.797 224.269H275.368V359.195H482.797V224.269Z" fill="#FAFAFA"/>
<path d="M478.874 267.806H279.302V229.698H478.874V267.806ZM280.404 266.7H477.772V230.804H280.404V266.7Z" fill="#E6E6E6"/>
<path d="M443.742 248.2H318.302C312.483 248.2 306.874 243.489 302.874 235.261L302.499 234.476H459.534L459.159 235.261C455.126 243.489 449.616 248.2 443.742 248.2ZM304.306 235.548C308.031 242.88 313.122 247.06 318.302 247.06H443.742C448.944 247.06 454.013 242.88 457.738 235.548H304.306Z" fill="#E6E6E6"/>
<path d="M281.142 362.059H275.368V351.454H287.192L281.142 362.059Z" fill="#FAFAFA"/>
<path d="M478.874 310.746H279.302V272.682H478.874V310.746ZM280.404 309.64H477.772V273.788H280.404V309.64Z" fill="#E6E6E6"/>
<path d="M443.742 291.184H318.302C312.483 291.184 306.874 286.462 302.874 278.245L302.499 277.449H459.534L459.159 278.245C455.126 286.417 449.616 291.184 443.742 291.184ZM304.306 278.555C308.031 285.887 313.122 290.078 318.302 290.078H443.742C448.944 290.078 454.013 285.887 457.738 278.555H304.306Z" fill="#E6E6E6"/>
<path d="M478.874 353.765H279.302V315.657H478.874V353.765ZM280.404 352.659H477.772V316.763H280.404V352.659Z" fill="#E6E6E6"/>
<path d="M443.742 334.157H318.302C312.483 334.157 306.874 329.446 302.874 321.23L302.499 320.433H459.534L459.159 321.23C455.126 329.446 449.616 334.157 443.742 334.157ZM304.306 321.539C308.031 328.871 313.122 333.051 318.302 333.051H443.742C448.944 333.051 454.013 328.871 457.738 321.539H304.306Z" fill="#E6E6E6"/>
<path d="M133.32 242.494V245.17H131.623L130.212 266.148H109.451L108.051 245.17H106.343V242.494H133.32Z" fill="#E6E6E6"/>
<path d="M126.487 190.441C124.79 177.945 107.985 174.384 86.6612 173.92C66.3734 173.488 59.8716 166.289 59.8716 166.289C59.8716 166.289 59.9377 195.451 89.1738 206.023C116.933 216.042 128.196 202.959 126.487 190.441Z" fill="#E6E6E6"/>
<path d="M116.129 218.762C116.481 213.631 124.658 204.187 144.329 208.478C158.545 211.585 163.834 204.187 163.834 204.187C163.834 204.187 162.512 225.066 141.133 231.336C120.823 237.296 115.5 227.808 116.129 218.762Z" fill="#E6E6E6"/>
<path d="M120.614 250.366C120.725 250.367 120.834 250.344 120.935 250.298C121.036 250.252 121.126 250.185 121.198 250.101C122.619 248.409 121.451 244.361 119.842 238.755C117.771 231.567 115.192 222.609 117.374 216.118C118.583 212.689 119.996 209.336 121.606 206.076C124.691 199.53 127.358 193.912 125.132 187.962C125.097 187.868 125.044 187.781 124.976 187.707C124.907 187.633 124.825 187.574 124.734 187.532C124.642 187.49 124.543 187.467 124.443 187.463C124.342 187.46 124.242 187.477 124.148 187.513C124.054 187.549 123.968 187.603 123.896 187.672C123.823 187.741 123.764 187.825 123.723 187.917C123.683 188.009 123.66 188.108 123.658 188.209C123.656 188.31 123.674 188.41 123.71 188.504C125.705 193.801 123.292 198.933 120.228 205.435C118.598 208.747 117.163 212.151 115.93 215.631C113.605 222.576 116.25 231.788 118.377 239.175C119.633 243.598 120.933 248.022 120.041 249.128C119.97 249.204 119.916 249.294 119.881 249.393C119.847 249.491 119.834 249.596 119.842 249.7C119.85 249.804 119.88 249.905 119.93 249.997C119.979 250.089 120.047 250.169 120.129 250.233C120.27 250.334 120.442 250.381 120.614 250.366Z" fill="#E6E6E6"/>
<path d="M275.5 412C393.505 412 489.167 406.395 489.167 399.482C489.167 392.568 393.505 386.963 275.5 386.963C157.495 386.963 61.8333 392.568 61.8333 399.482C61.8333 406.395 157.495 412 275.5 412Z" fill="#F5F5F5"/>
<path d="M275.456 338.451H118.972L110.409 85.9054H266.893L275.456 338.451Z" fill="#1676AD"/>
<path d="M283.269 330.609H126.785L118.211 78.0637H274.695L283.269 330.609Z" fill="#1676AD"/>
<path opacity="0.3" d="M283.269 330.609H126.785L118.211 78.0637H274.695L283.269 330.609Z" fill="white"/>
<path d="M230.839 181.986C247.594 164.882 246.881 136.915 229.246 119.519C211.612 102.123 183.734 101.886 166.979 118.99C150.224 136.093 150.937 164.061 168.571 181.457C186.205 198.853 214.084 199.09 230.839 181.986Z" fill="#1676AD"/>
<path d="M235.244 150.499C235.469 156.517 234.161 162.493 231.442 167.861C228.508 173.647 224.025 178.497 218.497 181.868C212.969 185.24 206.614 186.999 200.145 186.948C193.524 186.912 187.029 185.13 181.312 181.78C175.594 178.43 170.855 173.63 167.57 167.861C164.507 162.575 162.796 156.61 162.589 150.499C162.386 145.761 163.144 141.03 164.819 136.595C166.494 132.16 169.05 128.113 172.332 124.699C175.614 121.286 179.553 118.578 183.91 116.74C188.266 114.902 192.95 113.971 197.677 114.006C207.413 114.075 216.749 117.905 223.745 124.701C230.74 131.497 234.859 140.736 235.244 150.499Z" fill="white"/>
<path opacity="0.6" d="M231.42 167.859C228.486 173.645 224.003 178.495 218.475 181.867C212.947 185.238 206.592 186.997 200.123 186.946C193.502 186.91 187.007 185.128 181.29 181.778C175.572 178.428 170.833 173.628 167.548 167.859C176.868 161.483 187.896 158.093 199.175 158.139C210.637 158.163 221.842 161.542 231.42 167.859Z" fill="#1676AD"/>
<path opacity="0.6" d="M210.23 149.589C216.391 143.3 216.129 133.016 209.645 126.619C203.161 120.223 192.909 120.136 186.748 126.425C180.587 132.714 180.85 142.998 187.334 149.395C193.818 155.791 204.069 155.878 210.23 149.589Z" fill="#1676AD"/>
<path d="M251.829 239.155H152.009L151.337 219.249H251.156L251.829 239.155Z" fill="white"/>
<path d="M253.041 274.732H153.211L152.539 254.827H252.369L253.041 274.732Z" fill="white"/>
<path d="M214.515 257.569L190.459 260.887C190.229 260.913 190.007 260.987 189.808 261.103C189.608 261.22 189.434 261.376 189.297 261.563C189.161 261.75 189.064 261.963 189.014 262.19C188.963 262.416 188.96 262.65 189.004 262.878L192.167 279.056C192.27 279.531 192.547 279.95 192.943 280.23C193.338 280.511 193.824 280.632 194.305 280.571L218.361 277.254C218.59 277.225 218.811 277.149 219.009 277.031C219.208 276.913 219.38 276.755 219.516 276.567C219.651 276.38 219.746 276.166 219.796 275.94C219.846 275.714 219.849 275.48 219.805 275.252L216.653 259.073C216.55 258.599 216.272 258.182 215.876 257.903C215.48 257.625 214.995 257.505 214.515 257.569ZM207.606 273.958L203.198 274.544L202.768 269.325C202.314 269.128 201.913 268.824 201.601 268.439C201.288 268.054 201.072 267.599 200.972 267.113C200.891 266.736 200.889 266.347 200.968 265.97C201.046 265.593 201.203 265.236 201.427 264.923C201.651 264.611 201.939 264.349 202.27 264.154C202.602 263.96 202.97 263.838 203.352 263.795C204.135 263.694 204.927 263.892 205.571 264.348C206.216 264.805 206.667 265.488 206.834 266.261C206.93 266.729 206.901 267.213 206.75 267.666C206.599 268.118 206.331 268.523 205.975 268.838L207.606 273.958Z" fill="#1676AD"/>
<path d="M212.135 256.696C211.709 256.75 211.279 256.643 210.929 256.396C210.578 256.148 210.332 255.778 210.239 255.358L209.931 253.777C209.49 251.619 208.285 249.694 206.538 248.36C204.791 247.026 202.622 246.373 200.431 246.522C199.326 246.585 198.248 246.887 197.269 247.405C196.29 247.924 195.434 248.648 194.758 249.528C194.083 250.408 193.604 251.424 193.355 252.506C193.105 253.588 193.091 254.712 193.313 255.8L193.665 257.625C193.706 257.827 193.705 258.036 193.661 258.237C193.617 258.439 193.532 258.629 193.41 258.796C193.289 258.962 193.134 259.102 192.956 259.205C192.778 259.308 192.58 259.372 192.376 259.394C191.95 259.454 191.517 259.349 191.165 259.101C190.813 258.852 190.569 258.479 190.48 258.056L190.183 256.519C189.88 255.083 189.87 253.599 190.153 252.159C190.437 250.718 191.007 249.35 191.83 248.136C192.654 246.922 193.713 245.888 194.945 245.096C196.177 244.304 197.556 243.769 198.999 243.525C202.127 242.998 205.338 243.7 207.965 245.485C210.591 247.27 212.432 250.002 213.104 253.113L213.457 254.927C213.498 255.131 213.496 255.343 213.45 255.546C213.404 255.75 213.316 255.942 213.191 256.109C213.066 256.276 212.907 256.414 212.725 256.516C212.543 256.617 212.342 256.678 212.135 256.696Z" fill="#1676AD"/>
<path d="M236.566 302.612H171.581L171.151 289.651H236.125L236.566 302.612Z" fill="#1676AD"/>
<path d="M205.214 229.202C205.234 229.675 205.157 230.147 204.989 230.589C204.822 231.031 204.566 231.435 204.239 231.775C203.911 232.115 203.518 232.385 203.083 232.568C202.648 232.751 202.181 232.844 201.71 232.84C200.738 232.833 199.806 232.451 199.107 231.774C198.408 231.097 197.994 230.176 197.952 229.202C197.933 228.729 198.009 228.258 198.177 227.816C198.344 227.373 198.6 226.97 198.927 226.63C199.255 226.29 199.648 226.02 200.083 225.836C200.518 225.653 200.985 225.561 201.456 225.564C202.429 225.569 203.362 225.95 204.062 226.627C204.762 227.305 205.174 228.227 205.214 229.202Z" fill="#263238"/>
<path d="M189.544 229.202C189.565 229.675 189.49 230.148 189.322 230.591C189.155 231.034 188.9 231.438 188.572 231.778C188.244 232.119 187.85 232.389 187.415 232.571C186.979 232.754 186.511 232.845 186.04 232.84C185.069 232.833 184.139 232.451 183.441 231.773C182.743 231.096 182.332 230.175 182.293 229.202C182.273 228.729 182.35 228.258 182.517 227.816C182.685 227.373 182.941 226.97 183.268 226.63C183.596 226.29 183.989 226.02 184.424 225.836C184.858 225.653 185.326 225.561 185.797 225.564C186.769 225.569 187.7 225.95 188.399 226.628C189.097 227.306 189.507 228.228 189.544 229.202Z" fill="#263238"/>
<path d="M173.973 229.202C173.992 229.675 173.916 230.147 173.748 230.589C173.58 231.031 173.325 231.435 172.997 231.775C172.669 232.115 172.276 232.385 171.842 232.568C171.407 232.751 170.94 232.844 170.468 232.84C169.497 232.835 168.565 232.454 167.867 231.776C167.169 231.099 166.758 230.176 166.721 229.202C166.702 228.729 166.779 228.258 166.946 227.816C167.114 227.373 167.369 226.97 167.697 226.63C168.025 226.29 168.418 226.02 168.852 225.836C169.287 225.653 169.754 225.561 170.226 225.564C171.197 225.569 172.129 225.95 172.827 226.628C173.525 227.306 173.936 228.228 173.973 229.202Z" fill="#263238"/>
<path d="M220.829 229.202C220.849 229.674 220.772 230.146 220.605 230.588C220.437 231.03 220.182 231.434 219.854 231.774C219.526 232.114 219.133 232.384 218.699 232.567C218.264 232.751 217.797 232.843 217.325 232.84C216.354 232.835 215.422 232.454 214.724 231.776C214.026 231.098 213.615 230.176 213.578 229.202C213.562 228.73 213.641 228.26 213.811 227.821C213.981 227.381 214.238 226.98 214.566 226.643C214.895 226.306 215.289 226.04 215.723 225.86C216.157 225.68 216.624 225.59 217.094 225.596C218.058 225.604 218.982 225.982 219.677 226.652C220.372 227.323 220.784 228.235 220.829 229.202Z" fill="#263238"/>
<path d="M236.445 229.202C236.466 229.675 236.39 230.148 236.223 230.591C236.056 231.034 235.801 231.438 235.473 231.778C235.145 232.119 234.751 232.389 234.316 232.571C233.88 232.754 233.412 232.845 232.94 232.84C231.97 232.833 231.039 232.451 230.342 231.773C229.644 231.096 229.233 230.175 229.194 229.202C229.174 228.729 229.251 228.258 229.418 227.816C229.586 227.373 229.841 226.97 230.169 226.63C230.497 226.29 230.89 226.02 231.325 225.836C231.759 225.653 232.227 225.561 232.698 225.564C233.669 225.569 234.601 225.95 235.299 226.628C235.998 227.306 236.408 228.228 236.445 229.202Z" fill="#263238"/>
<path d="M367.969 131.905C369.434 134.272 370.658 136.528 371.914 138.883C373.17 141.239 374.305 143.605 375.418 146.027C377.689 150.931 379.569 156.008 381.038 161.211C381.237 161.863 381.38 162.56 381.545 163.234L381.788 164.263L381.909 164.771L382.052 165.612C382.301 167.518 382.185 169.455 381.711 171.318C380.95 174.211 379.793 176.983 378.272 179.557C375.553 184.233 372.266 188.553 368.487 192.418L363.847 188.901C366.176 184.605 368.248 180.174 370.051 175.631C370.855 173.629 371.421 171.54 371.738 169.405C371.839 168.753 371.809 168.088 371.649 167.448L371.209 166.098C371.032 165.546 370.867 164.993 370.658 164.429C368.981 159.866 367.042 155.406 364.85 151.07C362.646 146.646 360.277 142.223 357.907 137.999L367.969 131.905Z" fill="#FF8B7B"/>
<path d="M365.026 187.364L359.957 190.051L365.776 196.885C365.776 196.885 369.412 194.419 369.578 190.659L365.026 187.364Z" fill="#FF8B7B"/>
<path d="M353.158 194.266L359.384 199.231L365.776 196.887L359.957 190.053L353.158 194.266Z" fill="#FF8B7B"/>
<path d="M331.867 95.7227C331.746 96.342 331.316 96.7733 330.919 96.6959C330.523 96.6185 330.291 96.0434 330.412 95.4352C330.534 94.827 330.963 94.3293 331.371 94.462C331.779 94.5947 331.988 95.1034 331.867 95.7227Z" fill="#263238"/>
<path d="M331.372 96.7834C330.262 98.5155 328.919 100.086 327.382 101.45C327.745 101.828 328.185 102.122 328.672 102.313C329.159 102.504 329.682 102.587 330.203 102.556L331.372 96.7834Z" fill="#FF5652"/>
<path d="M329.388 118.48V111.226L338.953 112.332C338.953 112.332 338.799 118.569 333.443 120.404L329.388 118.48Z" fill="#FF8B7B"/>
<path d="M332.143 106.005L338.876 107.951L338.997 112.386L329.432 111.225L332.143 106.005Z" fill="#FF8B7B"/>
<path opacity="0.2" d="M338.876 107.951L332.143 106.005L330.832 108.526C330.903 110.513 331.522 112.441 332.619 114.096C333.716 115.752 335.249 117.07 337.047 117.904C338.204 116.282 338.88 114.366 338.997 112.375L338.876 107.951Z" fill="black"/>
<path d="M334.799 92.7697C334.869 92.7678 334.938 92.7459 334.997 92.7066C335.055 92.6672 335.102 92.6119 335.131 92.5472C335.159 92.4824 335.169 92.4108 335.159 92.3406C335.149 92.2704 335.12 92.2045 335.074 92.1505C334.687 91.7118 334.201 91.3725 333.656 91.1609C333.112 90.9492 332.525 90.8715 331.944 90.934C331.849 90.9502 331.765 91.0036 331.709 91.0824C331.653 91.1612 331.631 91.2589 331.647 91.3542C331.663 91.4502 331.716 91.5361 331.794 91.5939C331.872 91.6516 331.969 91.6767 332.066 91.6639C332.525 91.6186 332.989 91.6843 333.419 91.8555C333.848 92.0267 334.231 92.2985 334.534 92.6481C334.568 92.685 334.609 92.7149 334.654 92.7357C334.7 92.7566 334.749 92.7682 334.799 92.7697Z" fill="#263238"/>
<path d="M348.882 106.913C347.78 112.608 347.097 120.493 351.086 124.286C351.086 124.286 349.544 130.059 338.964 130.059C327.382 130.059 333.399 124.994 333.399 124.994C338.215 123.49 338.171 117.994 337.069 113.57L348.882 106.913Z" fill="#FF8B7B"/>
<path d="M353.235 128.09C354.271 126.63 354.227 121.997 353.125 121.178C351.351 119.862 343.736 119.553 333.498 121.919C334.6 126.409 332.231 128.753 332.231 128.753L353.235 128.09Z" fill="#1676AD"/>
<path d="M387.684 390.633C387.369 390.744 387.036 390.791 386.703 390.772C386.37 390.753 386.044 390.668 385.744 390.522C385.63 390.416 385.552 390.277 385.521 390.125C385.489 389.972 385.506 389.813 385.568 389.671C385.602 389.551 385.663 389.441 385.745 389.347C385.827 389.253 385.928 389.179 386.042 389.129C387.088 388.62 389.491 389.604 389.601 389.649C389.634 389.662 389.662 389.685 389.682 389.714C389.701 389.744 389.712 389.779 389.711 389.814C389.711 389.85 389.702 389.885 389.684 389.916C389.667 389.947 389.642 389.973 389.612 389.991C388.991 390.265 388.345 390.48 387.684 390.633ZM386.416 389.383C386.344 389.4 386.273 389.426 386.207 389.461C386.138 389.486 386.076 389.527 386.027 389.581C385.977 389.635 385.94 389.7 385.92 389.77C385.821 390.102 385.92 390.213 385.987 390.246C386.405 390.6 387.948 390.246 389.039 389.837C388.209 389.492 387.313 389.337 386.416 389.383Z" fill="#1676AD"/>
<path d="M389.568 390.003H389.48C388.598 389.749 386.725 388.411 386.703 387.537C386.702 387.398 386.748 387.263 386.835 387.154C386.921 387.046 387.041 386.97 387.176 386.94C387.307 386.891 387.447 386.871 387.586 386.883C387.725 386.894 387.86 386.936 387.981 387.006C389.017 387.537 389.678 389.682 389.7 389.782C389.716 389.809 389.724 389.839 389.724 389.87C389.724 389.901 389.716 389.932 389.7 389.959C389.683 389.976 389.662 389.989 389.639 389.997C389.616 390.004 389.592 390.007 389.568 390.003ZM387.364 387.249H387.276C387.055 387.327 387.055 387.437 387.055 387.493C387.055 388.012 388.312 389.063 389.259 389.483C389.028 388.864 388.521 387.636 387.849 387.272C387.699 387.203 387.53 387.196 387.375 387.249H387.364Z" fill="#1676AD"/>
<path d="M330.446 391.938C329.454 391.938 328.495 391.795 328.176 391.352C328.092 391.234 328.047 391.093 328.047 390.949C328.047 390.804 328.092 390.663 328.176 390.545C328.239 390.437 328.323 390.343 328.423 390.269C328.524 390.195 328.638 390.142 328.76 390.114C330.049 389.76 332.76 391.308 332.87 391.374C332.904 391.391 332.931 391.419 332.947 391.453C332.963 391.487 332.967 391.526 332.958 391.562C332.954 391.6 332.938 391.636 332.912 391.664C332.887 391.691 332.852 391.71 332.815 391.717C332.033 391.861 331.241 391.935 330.446 391.938ZM329.223 390.423C329.106 390.404 328.987 390.404 328.87 390.423C328.795 390.439 328.725 390.469 328.662 390.513C328.6 390.557 328.547 390.613 328.506 390.678C328.374 390.91 328.429 391.02 328.506 391.087C328.87 391.595 330.821 391.607 332.264 391.396C331.322 390.88 330.289 390.549 329.223 390.423Z" fill="#1676AD"/>
<path d="M332.804 391.716H332.727C331.79 391.296 329.939 389.615 330.082 388.73C330.082 388.52 330.258 388.266 330.765 388.222C330.946 388.2 331.13 388.217 331.305 388.27C331.479 388.323 331.641 388.412 331.779 388.531C332.485 389.379 332.909 390.427 332.991 391.528C332.991 391.56 332.984 391.591 332.971 391.619C332.957 391.648 332.938 391.673 332.914 391.694C332.88 391.711 332.842 391.719 332.804 391.716ZM330.909 388.564H330.798C330.468 388.564 330.446 388.719 330.446 388.763C330.358 389.294 331.614 390.621 332.573 391.196C332.488 390.309 332.13 389.47 331.548 388.797C331.367 388.642 331.135 388.559 330.898 388.564H330.909Z" fill="#1676AD"/>
<path d="M341.311 391.541H333.564L332.793 373.526H340.54L341.311 391.541Z" fill="#FF8B7B"/>
<path d="M398.208 387.935L390.637 389.583L383.022 372.807L390.604 371.159L398.208 387.935Z" fill="#FF8B7B"/>
<path d="M389.899 388.819L398.417 386.972C398.566 386.94 398.721 386.96 398.857 387.028C398.993 387.097 399.102 387.209 399.166 387.348L402.12 393.784C402.198 393.94 402.239 394.112 402.239 394.287C402.238 394.461 402.196 394.633 402.117 394.789C402.037 394.944 401.922 395.078 401.781 395.18C401.64 395.283 401.476 395.35 401.304 395.376C398.329 395.962 396.841 396.106 393.105 396.913C390.802 397.422 385.601 398.694 382.416 399.38C379.231 400.065 378.14 397.002 379.386 396.438C384.951 393.883 387.265 391.638 388.775 389.548C389.048 389.175 389.448 388.916 389.899 388.819Z" fill="#263238"/>
<path d="M333.62 390.633H342.083C342.237 390.634 342.385 390.687 342.505 390.783C342.625 390.88 342.709 391.014 342.744 391.164L344.276 398.076C344.321 398.243 344.326 398.418 344.291 398.587C344.256 398.757 344.182 398.916 344.075 399.051C343.968 399.187 343.831 399.295 343.674 399.368C343.518 399.44 343.346 399.475 343.174 399.469C340.121 399.414 335.713 399.237 331.878 399.237C327.382 399.237 323.514 399.48 318.247 399.48C315.062 399.48 314.18 396.251 315.514 395.952C321.575 394.625 326.534 394.481 331.768 391.241C332.318 390.872 332.959 390.661 333.62 390.633Z" fill="#263238"/>
<path d="M364.949 126.066C372.212 127.736 378.173 146.347 378.173 146.347L363.66 157.483C359.893 153.441 357.235 148.488 355.946 143.107C353.378 133.353 357.522 124.341 364.949 126.066Z" fill="#1676AD"/>
<path opacity="0.4" d="M364.949 126.066C372.212 127.736 378.173 146.347 378.173 146.347L363.66 157.483C359.893 153.441 357.235 148.488 355.946 143.107C353.378 133.353 357.522 124.341 364.949 126.066Z" fill="black"/>
<path d="M326.743 148.261C324.936 150.218 323.128 151.965 321.233 153.79C320.296 154.675 319.349 155.559 318.379 156.411L316.913 157.705L316.549 158.025L315.921 158.534C315.275 159.052 314.559 159.477 313.794 159.795C312.944 160.157 312.03 160.345 311.106 160.348C310.316 160.351 309.532 160.212 308.791 159.938C307.97 159.624 307.22 159.147 306.587 158.534C305.78 157.742 305.188 156.756 304.868 155.67C304.701 155.134 304.594 154.582 304.549 154.022C304.491 153.367 304.491 152.709 304.549 152.054C304.604 151.523 304.67 151.058 304.758 150.627C305.06 149.119 305.487 147.64 306.036 146.204C306.532 144.839 307.102 143.502 307.744 142.2C308.45 140.796 309.122 139.768 309.794 138.595C312.524 134.107 315.64 129.866 319.106 125.922C322.537 122.001 326.318 118.403 330.402 115.173L334.457 119.364C331.614 123.191 328.815 127.293 326.225 131.33C323.648 135.343 321.293 139.497 319.172 143.771C318.698 144.81 318.07 145.983 317.773 146.823C317.378 147.799 317.036 148.796 316.748 149.809C316.47 150.721 316.26 151.652 316.12 152.596C316.112 152.743 316.112 152.891 316.12 153.038C316.12 153.126 316.12 153.171 316.12 152.938C316.102 152.69 316.053 152.445 315.976 152.209C315.738 151.425 315.302 150.716 314.709 150.152C314.182 149.666 313.564 149.29 312.891 149.046C312.299 148.821 311.672 148.705 311.039 148.703C310.431 148.696 309.827 148.812 309.265 149.046C309.075 149.124 308.891 149.216 308.714 149.322L309.133 148.935L310.466 147.719L313.1 145.242C314.841 143.594 316.594 141.836 318.247 140.199L326.743 148.261Z" fill="#FF8B7B"/>
<path opacity="0.2" d="M358.723 139.736C362.668 143.65 363.958 150.794 364.233 156.987L363.594 157.485C359.827 153.443 357.169 148.489 355.88 143.108C355.737 142.533 355.605 142.003 355.505 141.372L358.723 139.736Z" fill="black"/>
<path d="M319.04 133.807C317.453 142.212 316.461 159.474 321.057 193.645H362.558C362.844 187.264 358.844 156.101 364.982 126.011C360.396 125.127 355.758 124.54 351.097 124.252C345.225 123.914 339.338 123.914 333.465 124.252C331.526 124.429 329.608 124.717 327.955 125.015C325.757 125.402 323.727 126.45 322.135 128.02C320.543 129.59 319.464 131.608 319.04 133.807Z" fill="#1676AD"/>
<path opacity="0.4" d="M319.04 133.807C317.453 142.212 316.461 159.474 321.057 193.645H362.558C362.844 187.264 358.844 156.101 364.982 126.011C360.396 125.127 355.758 124.54 351.097 124.252C345.225 123.914 339.338 123.914 333.465 124.252C331.526 124.429 329.608 124.717 327.955 125.015C325.757 125.402 323.727 126.45 322.135 128.02C320.543 129.59 319.464 131.608 319.04 133.807Z" fill="black"/>
<path opacity="0.2" d="M325.387 146.271L317.894 144.468C317.662 149.025 317.64 154.664 317.971 161.642C321.42 157.706 325.828 151.557 325.387 146.271Z" fill="black"/>
<path opacity="0.2" d="M332.793 373.526L333.19 382.816H340.948L340.551 373.526H332.793Z" fill="black"/>
<path opacity="0.2" d="M390.604 371.159L383.022 372.807L386.945 381.455L394.527 379.807L390.604 371.159Z" fill="black"/>
<path d="M352.563 98.598C350.579 106.052 349.786 110.519 345.202 113.616C338.314 118.327 329.718 112.93 329.498 105.056C329.256 97.9456 332.551 86.9423 340.518 85.4383C342.269 85.1085 344.075 85.2316 345.765 85.796C347.455 86.3603 348.975 87.3473 350.18 88.6639C351.385 89.9805 352.236 91.5833 352.653 93.3214C353.07 95.0594 353.039 96.8753 352.563 98.598Z" fill="#FF8B7B"/>
<path d="M335.173 98.8731C334.798 97.8778 333.09 90.1699 334.699 88.1683C336.308 86.1667 354.657 87.6154 357.367 90.2916C361.875 94.715 358.745 98.6961 353.819 103.816C350.116 107.665 349.973 112 348.1 112.663C344.794 113.769 339.746 112.73 338.733 109.224C337.719 105.718 335.173 98.8731 335.173 98.8731Z" fill="#263238"/>
<path d="M355.142 81.523C348.662 78.7583 336.507 81.8216 329.939 80.2291C329.855 82.6799 330.658 85.0782 332.2 86.9809C333.741 88.8836 335.917 90.162 338.325 90.58C343.773 91.6219 349.309 92.1367 354.855 92.1171C362.062 91.7854 360.652 83.8785 355.142 81.523Z" fill="#263238"/>
<path d="M356.155 90.5243C358.522 90.758 360.906 90.3011 363.021 89.2083C364.233 92.1499 357.566 92.9572 356.155 90.5243Z" fill="#263238"/>
<path d="M338.7 99.1829C338.551 101.101 337.776 102.916 336.496 104.347C334.799 106.216 333.035 105.044 332.738 102.777C332.473 100.72 333.024 97.2476 335.096 96.2524C337.168 95.2571 338.843 96.8717 338.7 99.1829Z" fill="#FF8B7B"/>
<path d="M335.769 193.68C335.769 193.68 344.585 253.12 349.4 275.392C354.679 299.776 383.044 380.449 383.044 380.449L396.919 377.43C396.919 377.43 377.083 311.675 372.675 277.581C369.258 251.395 362.547 193.658 362.547 193.658L335.769 193.68Z" fill="#1676AD"/>
<path d="M379.716 375.814C379.661 375.814 382.306 380.857 382.306 380.857L397.91 377.462L396.599 372.751L379.716 375.814Z" fill="#263238"/>
<path opacity="0.3" d="M341.334 214.857C351.505 216.859 350.425 254.922 349.202 274.507C346.271 260.662 341.973 234.033 339.042 215.133C339.752 214.782 340.561 214.684 341.334 214.857Z" fill="black"/>
<path d="M321.057 193.678C321.057 193.678 319.955 251.835 320.836 275.511C321.718 300.183 330.303 380.966 330.303 380.966H343.438C343.438 380.966 343.912 301.621 344.54 277.391C345.18 250.983 348.353 193.633 348.353 193.633L321.057 193.678Z" fill="#1676AD"/>
<path d="M327.779 375.769C327.713 375.769 328.517 381.232 328.517 381.232H344.485L344.926 376.355L327.779 375.769Z" fill="#263238"/>
<path d="M335.283 136.395C338.997 146.447 317.167 158.291 317.167 158.291L307.711 146.127C307.711 146.127 314.07 133.498 321.784 127.813C331.316 120.802 332.451 128.742 335.283 136.395Z" fill="#1676AD"/>
<path opacity="0.4" d="M335.283 136.395C338.997 146.447 317.167 158.291 317.167 158.291L307.711 146.127C307.711 146.127 314.07 133.498 321.784 127.813C331.316 120.802 332.451 128.742 335.283 136.395Z" fill="black"/>
<path d="M420.821 60.0805C442.786 60.0805 460.592 48.6929 460.592 34.6457C460.592 20.5984 442.786 9.21088 420.821 9.21088C398.856 9.21088 381.05 20.5984 381.05 34.6457C381.05 48.6929 398.856 60.0805 420.821 60.0805Z" fill="#1676AD"/>
<path d="M406.473 47.4521C403.853 47.4436 401.32 46.5088 399.318 44.8119C397.317 43.1151 395.976 40.7647 395.53 38.1739C395.092 35.3675 395.722 32.4984 397.297 30.1377C398.871 27.7769 401.274 26.0978 404.026 25.4344C406.285 24.9121 408.65 25.1134 410.789 26.01C412.928 26.9066 414.733 28.4534 415.95 30.4329L441.483 25.1468C442.465 24.9312 443.491 25.0949 444.357 25.6054C445.223 26.1158 445.865 26.9354 446.156 27.9004C446.289 28.4078 446.319 28.9372 446.241 29.4562C446.164 29.9752 445.982 30.473 445.707 30.9191C445.432 31.3652 445.068 31.7503 444.64 32.0508C444.211 32.3512 443.726 32.5608 443.213 32.6667L442.552 32.7994C442.454 32.8171 442.361 32.8572 442.281 32.9166C442.201 32.9761 442.135 33.0533 442.089 33.1422C442.049 33.2325 442.028 33.3306 442.028 33.4297C442.028 33.5289 442.049 33.6269 442.089 33.7173L442.541 34.8895C442.693 35.2694 442.707 35.6905 442.583 36.0801C442.458 36.4697 442.202 36.8034 441.858 37.0238C441.587 37.1918 441.358 37.4195 441.188 37.6897C441.018 37.9599 440.912 38.2654 440.877 38.5831C440.845 38.9476 440.698 39.2925 440.459 39.5686C440.219 39.8447 439.899 40.0377 439.544 40.1202L439.026 40.2308C438.667 40.2974 438.296 40.2475 437.967 40.0885C437.638 39.9294 437.368 39.6694 437.197 39.3461C436.968 38.9604 436.625 38.6559 436.215 38.4751C435.806 38.2943 435.351 38.2462 434.913 38.3375C434.475 38.4288 434.076 38.655 433.772 38.9844C433.469 39.3139 433.275 39.7303 433.218 40.1755C433.188 40.5377 433.043 40.8808 432.805 41.1551C432.568 41.4294 432.249 41.6208 431.896 41.7016L431.378 41.8122C431.019 41.877 430.649 41.8264 430.32 41.6675C429.992 41.5086 429.722 41.2496 429.549 40.9275C429.384 40.6532 429.161 40.4182 428.897 40.2387C428.632 40.0592 428.332 39.9396 428.017 39.888C427.593 39.8368 427.203 39.6322 426.918 39.3125C426.634 38.9928 426.476 38.5801 426.474 38.1518V36.8911C426.47 36.7925 426.444 36.696 426.399 36.6082C426.354 36.5204 426.29 36.4435 426.213 36.3826C426.136 36.3217 426.046 36.2783 425.95 36.2553C425.855 36.2324 425.755 36.2305 425.659 36.2497L417.515 37.9306C417.183 40.1947 416.163 42.3011 414.596 43.9632C413.028 45.6253 410.988 46.7624 408.754 47.2198C408.003 47.3739 407.239 47.4517 406.473 47.4521ZM404.269 26.4407C401.769 27.0266 399.584 28.5411 398.152 30.6792C396.721 32.8173 396.15 35.4202 396.555 37.9638C396.988 40.3302 398.251 42.4628 400.115 43.9758C401.98 45.4889 404.322 46.2824 406.719 46.213C409.115 46.1435 411.408 45.2156 413.182 43.597C414.956 41.9785 416.094 39.7763 416.391 37.3887V36.9906L425.372 35.1659C425.63 35.1034 425.898 35.0992 426.157 35.1537C426.417 35.2082 426.661 35.3199 426.872 35.4809C427.083 35.6418 427.256 35.8479 427.378 36.0842C427.499 36.3205 427.567 36.581 427.576 36.8469V38.1075C427.579 38.2576 427.632 38.4023 427.729 38.5171C427.825 38.6319 427.958 38.7099 428.105 38.7379C428.587 38.8071 429.046 38.9855 429.449 39.2595C429.852 39.5335 430.188 39.8959 430.43 40.3193C430.489 40.4386 430.583 40.5368 430.699 40.6002C430.816 40.6636 430.949 40.6891 431.08 40.6731L431.587 40.5625C431.716 40.5294 431.83 40.4555 431.914 40.3519C431.997 40.2483 432.045 40.1205 432.05 39.9875C432.12 39.2991 432.405 38.6507 432.866 38.1359C433.327 37.6212 433.939 37.2668 434.614 37.124C435.288 36.9812 435.991 37.0574 436.62 37.3415C437.248 37.6257 437.771 38.1031 438.111 38.7047C438.168 38.8232 438.26 38.9209 438.374 38.9844C438.489 39.0478 438.62 39.0738 438.75 39.0586L439.279 38.948C439.406 38.9128 439.518 38.8381 439.599 38.7347C439.68 38.6312 439.727 38.5045 439.731 38.3729C439.786 37.8874 439.95 37.4208 440.212 37.0087C440.473 36.5967 440.825 36.2501 441.241 35.9953C441.362 35.9074 441.451 35.7814 441.493 35.6371C441.535 35.4929 441.528 35.3387 441.472 35.1991L441.02 34.0269C440.927 33.7852 440.887 33.526 440.904 33.2674C440.921 33.0087 440.994 32.7568 441.118 32.5294C441.241 32.3019 441.413 32.1043 441.621 31.9504C441.829 31.7964 442.068 31.6899 442.321 31.6382L442.993 31.4945C443.357 31.4166 443.701 31.266 444.006 31.0515C444.31 30.837 444.568 30.563 444.765 30.2461C444.961 29.9291 445.092 29.5757 445.149 29.2068C445.207 28.838 445.189 28.4614 445.098 28.0995C444.883 27.4036 444.413 26.815 443.784 26.4519C443.154 26.0889 442.411 25.9782 441.704 26.1421L415.454 31.6161L415.256 31.2733C414.201 29.3892 412.564 27.9008 410.592 27.033C408.62 26.1651 406.419 25.965 404.324 26.4628L404.269 26.4407ZM406.473 43.3383C405.104 43.3536 403.76 42.9694 402.605 42.2324C401.238 41.3321 400.225 39.9841 399.738 38.4181C399.251 36.8521 399.321 35.1652 399.935 33.6448C400.549 32.1244 401.669 30.8648 403.105 30.0806C404.54 29.2964 406.203 29.0362 407.808 29.3444C409.414 29.6525 410.863 30.51 411.91 31.7706C412.956 33.0311 413.534 34.6168 413.545 36.2572C413.557 37.8976 413.001 39.4912 411.972 40.7663C410.944 42.0414 409.507 42.9191 407.905 43.2498C407.436 43.335 406.96 43.372 406.484 43.3604L406.473 43.3383ZM406.473 30.278C406.062 30.2804 405.653 30.3211 405.25 30.3997C404.482 30.5638 403.754 30.878 403.107 31.3245C402.46 31.7709 401.908 32.3408 401.48 33.0016C401.053 33.6624 400.76 34.4012 400.617 35.1757C400.474 35.9503 400.485 36.7455 400.649 37.5159C400.812 38.2863 401.125 39.0169 401.57 39.6658C402.015 40.3148 402.583 40.8695 403.242 41.2982C403.9 41.7269 404.636 42.0213 405.408 42.1645C406.18 42.3077 406.972 42.297 407.74 42.1329C408.893 41.8921 409.948 41.3143 410.774 40.4724C411.6 39.6304 412.159 38.562 412.38 37.4018C412.602 36.2415 412.476 35.0415 412.019 33.9528C411.562 32.8642 410.794 31.9357 409.812 31.2844C408.836 30.6333 407.689 30.2904 406.517 30.3002L406.473 30.278Z" fill="white"/>
<path opacity="0.6" d="M388.455 74.998C395.673 74.998 401.525 71.255 401.525 66.6377C401.525 62.0204 395.673 58.2774 388.455 58.2774C381.237 58.2774 375.385 62.0204 375.385 66.6377C375.385 71.255 381.237 74.998 388.455 74.998Z" fill="#1676AD"/>
<path opacity="0.3" d="M367.66 78.4272C370.624 78.4272 373.027 76.8924 373.027 74.999C373.027 73.1057 370.624 71.5709 367.66 71.5709C364.696 71.5709 362.294 73.1057 362.294 74.999C362.294 76.8924 364.696 78.4272 367.66 78.4272Z" fill="#1676AD"/>
</svg>
