<svg width="313" height="233" viewBox="0 0 313 233" fill="none" xmlns="http://www.w3.org/2000/svg">
<path d="M312.259 204.467H0V204.623H312.259V204.467Z" fill="#EBEBEB"/>
<path d="M53.4467 210.413H32.7627V210.569H53.4467V210.413Z" fill="#EBEBEB"/>
<path d="M133.441 208.72H106.88V208.876H133.441V208.72Z" fill="#EBEBEB"/>
<path d="M70.3575 212.604H58.373V212.761H70.3575V212.604Z" fill="#EBEBEB"/>
<path d="M280.971 215.165H271.46V215.321H280.971V215.165Z" fill="#EBEBEB"/>
<path d="M265.895 215.165H244.48V215.321H265.895V215.165Z" fill="#EBEBEB"/>
<path d="M207.234 210.668H192.352V210.825H207.234V210.668Z" fill="#EBEBEB"/>
<path d="M148.011 176.614H27.4293C26.4835 176.614 25.5765 176.238 24.9077 175.569C24.239 174.9 23.8633 173.993 23.8633 173.048V3.53477C23.8715 2.59443 24.2508 1.69541 24.9187 1.03339C25.5866 0.371377 26.4889 -3.60509e-05 27.4293 2.62457e-09H148.011C148.957 2.62458e-09 149.864 0.375702 150.533 1.04446C151.202 1.71321 151.577 2.62024 151.577 3.566V173.048C151.577 173.993 151.202 174.9 150.533 175.569C149.864 176.238 148.957 176.614 148.011 176.614ZM27.4293 0.124904C26.5254 0.126555 25.6591 0.486337 25.02 1.12545C24.3808 1.76457 24.0211 2.63093 24.0194 3.53477V173.048C24.0211 173.952 24.3808 174.818 25.02 175.457C25.6591 176.096 26.5254 176.456 27.4293 176.458H148.011C148.915 176.456 149.781 176.096 150.421 175.457C151.06 174.818 151.419 173.952 151.421 173.048V3.53477C151.419 2.63093 151.06 1.76457 150.421 1.12545C149.781 0.486337 148.915 0.126555 148.011 0.124904H27.4293Z" fill="#EBEBEB"/>
<path d="M283.1 176.614H162.505C161.56 176.612 160.654 176.236 159.986 175.567C159.317 174.899 158.941 173.993 158.939 173.048V3.53477C158.949 2.59494 159.329 1.69686 159.997 1.0352C160.664 0.37353 161.566 0.00159145 162.505 0H283.1C284.038 0.0032503 284.937 0.376115 285.602 1.03778C286.268 1.69944 286.645 2.59659 286.653 3.53477V173.048C286.653 173.991 286.279 174.896 285.613 175.565C284.947 176.233 284.043 176.61 283.1 176.614ZM162.505 0.124904C161.602 0.126555 160.735 0.486337 160.096 1.12545C159.457 1.76457 159.097 2.63093 159.096 3.53477V173.048C159.097 173.952 159.457 174.818 160.096 175.457C160.735 176.096 161.602 176.456 162.505 176.458H283.1C284.004 176.456 284.87 176.096 285.509 175.457C286.148 174.818 286.508 173.952 286.51 173.048V3.53477C286.508 2.63093 286.148 1.76457 285.509 1.12545C284.87 0.486337 284.004 0.126555 283.1 0.124904H162.505Z" fill="#EBEBEB"/>
<path d="M192.039 88.2881L259.405 88.2881V20.7402L192.039 20.7402V88.2881Z" fill="#F0F0F0"/>
<path d="M192.04 20.7461H190.878V88.294H192.04V20.7461Z" fill="#E0E0E0"/>
<path d="M197.991 84.0225H253.461V25.0055L197.991 25.0055V84.0225Z" fill="#FAFAFA"/>
<path d="M219.83 71.1952H237.398C241.207 71.1952 243.755 68.1101 243.087 64.3255L239.671 44.7593C239.291 42.8662 238.283 41.157 236.809 39.9098C235.335 38.6626 233.482 37.9506 231.552 37.8896H214.028C210.219 37.8896 207.671 40.9748 208.339 44.7593L211.755 64.3255C212.132 66.2121 213.134 67.9165 214.599 69.1631C216.064 70.4097 217.907 71.1256 219.83 71.1952Z" fill="#F0F0F0"/>
<path d="M65.5558 108.804H50.5674V201.264H65.5558V108.804Z" fill="#F0F0F0"/>
<path d="M131.324 201.27H52.0977V204.461H131.324V201.27Z" fill="#F0F0F0"/>
<path d="M65.5559 201.27H132.642V108.81L65.5559 108.81L65.5559 201.27Z" fill="#F5F5F5"/>
<path d="M68.2535 173.46H129.943V156.948H68.2535V173.46Z" fill="#F0F0F0"/>
<path d="M68.2535 195.068H129.943V178.556H68.2535V195.068Z" fill="#F0F0F0"/>
<path d="M122.643 155.936H75.5543C75.1473 155.936 74.8174 156.266 74.8174 156.673V157.466C74.8174 157.873 75.1473 158.203 75.5543 158.203H122.643C123.05 158.203 123.38 157.873 123.38 157.466V156.673C123.38 156.266 123.05 155.936 122.643 155.936Z" fill="#F5F5F5"/>
<path d="M122.643 177.55H75.5543C75.1473 177.55 74.8174 177.88 74.8174 178.287V179.08C74.8174 179.487 75.1473 179.817 75.5543 179.817H122.643C123.05 179.817 123.38 179.487 123.38 179.08V178.287C123.38 177.88 123.05 177.55 122.643 177.55Z" fill="#F5F5F5"/>
<path d="M68.2535 130.412H129.943V113.899H68.2535V130.412Z" fill="#F0F0F0"/>
<path d="M68.2535 151.858H129.943V135.346H68.2535V151.858Z" fill="#F0F0F0"/>
<path d="M122.643 112.894H75.5543C75.1473 112.894 74.8174 113.224 74.8174 113.631V114.424C74.8174 114.831 75.1473 115.161 75.5543 115.161H122.643C123.05 115.161 123.38 114.831 123.38 114.424V113.631C123.38 113.224 123.05 112.894 122.643 112.894Z" fill="#F5F5F5"/>
<path d="M122.643 134.328H75.5543C75.1473 134.328 74.8174 134.658 74.8174 135.065V135.858C74.8174 136.265 75.1473 136.595 75.5543 136.595H122.643C123.05 136.595 123.38 136.265 123.38 135.858V135.065C123.38 134.658 123.05 134.328 122.643 134.328Z" fill="#F5F5F5"/>
<path d="M130.212 15.6504H46.083V89.5059H130.212V15.6504Z" fill="#E6E6E6"/>
<path d="M139.23 12.7773H40.6373C40.5277 12.7773 40.4191 12.799 40.318 12.8412C40.2168 12.8833 40.1249 12.945 40.0477 13.0228C39.9705 13.1006 39.9095 13.1929 39.8681 13.2944C39.8267 13.3959 39.8058 13.5046 39.8067 13.6142C39.8067 13.8345 39.8942 14.0458 40.0499 14.2015C40.2057 14.3573 40.417 14.4448 40.6373 14.4448H139.23C139.451 14.4448 139.663 14.3575 139.819 14.2019C139.976 14.0463 140.065 13.8351 140.067 13.6142C140.067 13.3923 139.979 13.1794 139.822 13.0225C139.665 12.8655 139.452 12.7773 139.23 12.7773Z" fill="#E6E6E6"/>
<path d="M133.785 15.6504H47.751V89.5059H133.785V15.6504Z" fill="#F0F0F0"/>
<path d="M130.212 89.5059H46.083V91.8728H132.672L130.212 89.5059Z" fill="#E6E6E6"/>
<path d="M139.73 89.5059H53.7021L56.1565 91.8728H142.19L139.73 89.5059Z" fill="#F0F0F0"/>
<path d="M128.788 84.5097V20.6465L52.753 20.6465V84.5097H128.788Z" fill="#FAFAFA"/>
<path d="M70.0146 84.5097L99.342 20.6465H113.194L83.8602 84.5097H70.0146Z" fill="white"/>
<path d="M86.833 84.5097L116.167 20.6465H121.562L92.2351 84.5097H86.833Z" fill="white"/>
<path d="M128.788 84.5097V20.6465H128.151V84.5097H128.788Z" fill="#E6E6E6"/>
<g opacity="0.4">
<path d="M52.8086 11.2852H44.209V72.2319H52.8086V11.2852Z" fill="#F0F0F0"/>
<path d="M56.162 11.2852H49.4609V72.2319H56.162V11.2852Z" fill="#E6E6E6"/>
<path d="M61.4082 11.2852H52.8086V72.2319H61.4082V11.2852Z" fill="#F0F0F0"/>
<path d="M64.7616 11.2852H58.0605V72.2319H64.7616V11.2852Z" fill="#E6E6E6"/>
<path d="M70.0078 11.2852H61.4082V72.2319H70.0078V11.2852Z" fill="#F0F0F0"/>
</g>
<g opacity="0.4">
<path d="M125.59 11.2852H120.631V72.2319H125.59V11.2852Z" fill="#F0F0F0"/>
<path d="M127.513 11.2852H123.653V72.2319H127.513V11.2852Z" fill="#E6E6E6"/>
<path d="M130.542 11.2852H125.583V72.2319H130.542V11.2852Z" fill="#F0F0F0"/>
<path d="M132.472 11.2852H128.612V72.2319H132.472V11.2852Z" fill="#E6E6E6"/>
<path d="M135.501 11.2852H130.542V72.2319H135.501V11.2852Z" fill="#F0F0F0"/>
</g>
<path d="M222.859 133.778C222.785 134.681 222.981 135.586 223.422 136.378C223.863 137.17 224.528 137.814 225.335 138.228C226.141 138.641 227.052 138.807 227.952 138.703C228.853 138.599 229.702 138.231 230.393 137.645C231.085 137.058 231.586 136.28 231.835 135.409C232.084 134.537 232.069 133.611 231.792 132.748C231.515 131.885 230.989 131.124 230.279 130.56C229.569 129.996 228.708 129.656 227.805 129.581C226.593 129.483 225.391 129.869 224.464 130.656C223.536 131.443 222.959 132.566 222.859 133.778Z" fill="#E0E0E0"/>
<path d="M235.604 141.078C238.112 140.709 239.846 138.377 239.477 135.869C239.108 133.36 236.776 131.626 234.268 131.995C231.76 132.364 230.026 134.697 230.395 137.205C230.764 139.713 233.096 141.447 235.604 141.078Z" fill="#E0E0E0"/>
<path d="M238.391 137.113C238.318 138.016 238.514 138.921 238.954 139.713C239.395 140.505 240.061 141.149 240.867 141.563C241.673 141.976 242.584 142.142 243.485 142.038C244.385 141.934 245.235 141.566 245.926 140.98C246.617 140.393 247.119 139.615 247.368 138.744C247.617 137.872 247.602 136.946 247.325 136.083C247.048 135.22 246.521 134.459 245.811 133.895C245.101 133.331 244.241 132.991 243.337 132.916C242.737 132.866 242.132 132.934 241.558 133.118C240.984 133.302 240.452 133.597 239.993 133.987C239.533 134.377 239.155 134.854 238.88 135.39C238.605 135.927 238.439 136.512 238.391 137.113Z" fill="#E0E0E0"/>
<path d="M214.334 136.182C214.261 137.085 214.457 137.99 214.898 138.782C215.338 139.574 216.004 140.218 216.81 140.632C217.617 141.046 218.528 141.211 219.428 141.108C220.328 141.004 221.178 140.635 221.869 140.049C222.56 139.463 223.062 138.684 223.311 137.813C223.56 136.941 223.545 136.016 223.268 135.153C222.991 134.29 222.464 133.528 221.755 132.964C221.045 132.401 220.184 132.06 219.281 131.985C218.068 131.887 216.867 132.273 215.939 133.06C215.012 133.847 214.435 134.97 214.334 136.182Z" fill="#E0E0E0"/>
<path d="M250.257 141.075C252.765 140.706 254.499 138.374 254.13 135.866C253.761 133.358 251.428 131.623 248.92 131.992C246.412 132.361 244.678 134.694 245.047 137.202C245.416 139.71 247.748 141.444 250.257 141.075Z" fill="#E0E0E0"/>
<path d="M215.705 136.165C217.632 134.517 217.858 131.619 216.21 129.693C214.562 127.766 211.664 127.54 209.738 129.188C207.811 130.836 207.585 133.733 209.233 135.66C210.88 137.587 213.778 137.813 215.705 136.165Z" fill="#E0E0E0"/>
<path d="M201.669 135.139C201.596 136.042 201.792 136.947 202.233 137.739C202.673 138.531 203.339 139.175 204.145 139.589C204.952 140.003 205.863 140.168 206.763 140.065C207.663 139.961 208.513 139.592 209.204 139.006C209.895 138.42 210.397 137.641 210.646 136.77C210.895 135.898 210.88 134.973 210.603 134.11C210.326 133.247 209.799 132.485 209.089 131.921C208.38 131.358 207.519 131.017 206.616 130.942C205.403 130.844 204.202 131.231 203.274 132.017C202.347 132.804 201.77 133.927 201.669 135.139Z" fill="#E0E0E0"/>
<path d="M196.43 136.376C196.43 136.376 197.217 155.155 227.393 155.155C257.57 155.155 258.357 136.376 258.357 136.376H196.43Z" fill="#F0F0F0"/>
<path d="M275.574 155.155H269.835V204.461H275.574V155.155Z" fill="#E6E6E6"/>
<path d="M277.105 155.155H273.727V204.461H277.105V155.155Z" fill="#F0F0F0"/>
<path d="M251.156 155.155H245.417V204.461H251.156V155.155Z" fill="#E6E6E6"/>
<path d="M252.23 155.155H248.852V204.461H252.23V155.155Z" fill="#F0F0F0"/>
<path d="M196.68 161.138H278.154V155.162H196.68V161.138Z" fill="#F0F0F0"/>
<path d="M171.779 155.155H166.04V204.461H171.779V155.155Z" fill="#E6E6E6"/>
<path d="M172.854 155.155H169.476V204.461H172.854V155.155Z" fill="#F0F0F0"/>
<path d="M165.017 161.138H194.226V155.162H165.017V161.138Z" fill="#E6E6E6"/>
<path d="M196.192 155.155H190.453V204.461H196.192V155.155Z" fill="#E6E6E6"/>
<path d="M197.729 155.155H194.351V204.461H197.729V155.155Z" fill="#F0F0F0"/>
<path d="M156.13 232.671C223.005 232.671 277.218 229.506 277.218 225.601C277.218 221.697 223.005 218.532 156.13 218.532C89.2549 218.532 35.042 221.697 35.042 225.601C35.042 229.506 89.2549 232.671 156.13 232.671Z" fill="#F5F5F5"/>
<path d="M222.004 219.399C222.005 220.647 221.563 221.855 220.756 222.808C219.95 223.76 218.832 224.396 217.601 224.602C202.449 227.158 186.976 227.158 171.824 224.602C170.598 224.391 169.486 223.753 168.686 222.8C167.886 221.848 167.449 220.643 167.452 219.399V168.813H222.029L222.004 219.399Z" fill="#1676AD"/>
<path opacity="0.3" d="M167.421 169.725V176.826C170.706 178.044 181.491 178.937 194.712 178.937C207.933 178.937 218.738 178.044 222.004 176.826V169.725H167.421Z" fill="black"/>
<path d="M223.028 175.14C223.028 176.745 210.637 178.044 194.712 178.044C178.787 178.044 166.396 176.745 166.396 175.14L165.878 168.832H223.577L223.028 175.14Z" fill="#1676AD"/>
<path d="M194.712 171.73C210.637 171.73 223.546 170.433 223.546 168.832C223.546 167.232 210.637 165.935 194.712 165.935C178.787 165.935 165.878 167.232 165.878 168.832C165.878 170.433 178.787 171.73 194.712 171.73Z" fill="#1676AD"/>
<path opacity="0.3" d="M194.712 171.73C210.637 171.73 223.546 170.433 223.546 168.832C223.546 167.232 210.637 165.935 194.712 165.935C178.787 165.935 165.878 167.232 165.878 168.832C165.878 170.433 178.787 171.73 194.712 171.73Z" fill="black"/>
<path opacity="0.2" d="M174.74 215.84C174.179 215.838 173.642 215.615 173.245 215.218C172.848 214.821 172.625 214.284 172.623 213.723V184.72C172.625 184.159 172.848 183.622 173.245 183.225C173.642 182.828 174.179 182.605 174.74 182.603C175.301 182.606 175.837 182.83 176.234 183.227C176.63 183.623 176.854 184.16 176.857 184.72V213.723C176.854 214.283 176.63 214.82 176.234 215.216C175.837 215.612 175.301 215.837 174.74 215.84Z" fill="black"/>
<path opacity="0.2" d="M214.69 215.84C214.129 215.838 213.592 215.615 213.195 215.218C212.798 214.821 212.575 214.284 212.573 213.723V184.72C212.575 184.159 212.798 183.622 213.195 183.225C213.592 182.828 214.129 182.605 214.69 182.603C215.251 182.606 215.787 182.83 216.184 183.227C216.58 183.623 216.804 184.16 216.807 184.72V213.723C216.804 214.283 216.58 214.82 216.184 215.216C215.787 215.612 215.251 215.837 214.69 215.84Z" fill="black"/>
<path opacity="0.2" d="M201.369 215.84C200.809 215.837 200.272 215.612 199.876 215.216C199.479 214.82 199.255 214.283 199.252 213.723V184.72C199.255 184.16 199.479 183.623 199.876 183.227C200.272 182.83 200.809 182.606 201.369 182.603C201.93 182.605 202.468 182.828 202.864 183.225C203.261 183.622 203.485 184.159 203.486 184.72V213.723C203.485 214.284 203.261 214.821 202.864 215.218C202.468 215.615 201.93 215.838 201.369 215.84Z" fill="black"/>
<path opacity="0.2" d="M188.055 215.84C187.494 215.837 186.958 215.612 186.561 215.216C186.165 214.82 185.941 214.283 185.938 213.723V184.72C185.941 184.16 186.165 183.623 186.561 183.227C186.958 182.83 187.494 182.606 188.055 182.603C188.616 182.605 189.153 182.828 189.55 183.225C189.947 183.622 190.17 184.159 190.172 184.72V213.723C190.17 214.284 189.947 214.821 189.55 215.218C189.153 215.615 188.616 215.838 188.055 215.84Z" fill="black"/>
<path d="M120.457 52.5594C120.457 53.1325 120.287 53.6928 119.968 54.1693C119.65 54.6458 119.197 55.0172 118.668 55.2366C118.138 55.4559 117.556 55.5133 116.994 55.4015C116.431 55.2897 115.915 55.0137 115.51 54.6084C115.105 54.2032 114.829 53.6868 114.717 53.1247C114.605 52.5626 114.662 51.98 114.882 51.4505C115.101 50.921 115.472 50.4684 115.949 50.15C116.426 49.8316 116.986 49.6616 117.559 49.6616C118.327 49.6616 119.064 49.9669 119.608 50.5104C120.151 51.0538 120.457 51.7908 120.457 52.5594Z" fill="#263238"/>
<path d="M115.229 52.9779C115.201 52.9787 115.173 52.9715 115.149 52.9572C115.125 52.9428 115.105 52.9219 115.092 52.8968C114.9 52.5449 114.78 52.1588 114.738 51.7605C114.695 51.3621 114.732 50.9594 114.845 50.5752C114.959 50.191 115.147 49.8329 115.399 49.5213C115.65 49.2098 115.961 48.9508 116.313 48.7593C116.665 48.5678 117.051 48.4475 117.449 48.4052C117.847 48.3629 118.25 48.3995 118.634 48.5129C119.019 48.6263 119.377 48.8142 119.688 49.066C120 49.3178 120.259 49.6284 120.45 49.9803C120.469 50.017 120.472 50.0593 120.461 50.0987C120.449 50.1381 120.423 50.1717 120.388 50.1926C120.37 50.2025 120.35 50.2087 120.329 50.2109C120.309 50.2132 120.288 50.2113 120.269 50.2055C120.249 50.1997 120.23 50.19 120.215 50.1771C120.199 50.1642 120.185 50.1482 120.175 50.1301C119.828 49.4925 119.242 49.0187 118.546 48.8132C117.85 48.6077 117.1 48.6871 116.463 49.0341C115.825 49.3811 115.351 49.9672 115.146 50.6635C114.94 51.3598 115.02 52.1092 115.367 52.7469C115.377 52.7649 115.383 52.7847 115.385 52.8052C115.387 52.8256 115.385 52.8463 115.38 52.866C115.374 52.8858 115.364 52.9041 115.351 52.9201C115.338 52.9361 115.322 52.9494 115.304 52.9592C115.281 52.9712 115.255 52.9776 115.229 52.9779Z" fill="#263238"/>
<path d="M112.413 65.7992C111.848 65.7969 111.295 65.6382 110.816 65.3407C110.336 65.0432 109.948 64.6186 109.695 64.1139C109.442 63.6093 109.334 63.0444 109.382 62.482C109.431 61.9196 109.635 61.3817 109.971 60.928C110.21 60.6073 110.51 60.3369 110.854 60.1322C111.198 59.9275 111.579 59.7926 111.975 59.7352C111.996 59.7316 112.016 59.7323 112.036 59.737C112.056 59.7418 112.075 59.7506 112.091 59.7629C112.108 59.7752 112.121 59.7907 112.131 59.8085C112.142 59.8263 112.148 59.846 112.15 59.8663C112.156 59.9068 112.145 59.9478 112.12 59.9805C112.096 60.0132 112.06 60.035 112.019 60.0412C111.301 60.1464 110.654 60.5325 110.221 61.1145C109.788 61.6966 109.603 62.427 109.708 63.145C109.814 63.8631 110.2 64.5099 110.782 64.9432C111.364 65.3766 112.094 65.5609 112.812 65.4557C112.854 65.4491 112.896 65.4592 112.93 65.4838C112.964 65.5084 112.987 65.5455 112.993 65.5869C113 65.6283 112.99 65.6707 112.965 65.7046C112.941 65.7386 112.904 65.7614 112.862 65.768C112.713 65.7877 112.563 65.7982 112.413 65.7992Z" fill="#263238"/>
<path d="M128.156 70.5206C127.57 70.5197 126.997 70.3483 126.507 70.0272C126.473 70.0042 126.448 69.9686 126.439 69.9279C126.429 69.8872 126.436 69.8445 126.457 69.8086C126.481 69.7748 126.517 69.7515 126.558 69.7434C126.599 69.7352 126.641 69.7429 126.676 69.7649C127.285 70.16 128.025 70.297 128.735 70.1459C129.445 69.9948 130.066 69.568 130.461 68.9593C130.856 68.3506 130.993 67.6099 130.842 66.9002C130.691 66.1904 130.264 65.5698 129.655 65.1747C129.62 65.1517 129.596 65.1161 129.586 65.0754C129.577 65.0347 129.584 64.992 129.605 64.9561C129.629 64.9223 129.665 64.899 129.706 64.8908C129.746 64.8827 129.788 64.8904 129.824 64.9124C130.501 65.3532 130.975 66.0444 131.144 66.8344C131.312 67.6245 131.161 68.4492 130.723 69.1279C130.507 69.4656 130.225 69.7567 129.895 69.984C129.564 70.2114 129.192 70.3705 128.799 70.4519C128.588 70.4964 128.372 70.5194 128.156 70.5206Z" fill="#263238"/>
<path d="M115.935 61.596C118.197 61.596 120.032 59.7618 120.032 57.4992C120.032 55.2366 118.197 53.4023 115.935 53.4023C113.672 53.4023 111.838 55.2366 111.838 57.4992C111.838 59.7618 113.672 61.596 115.935 61.596Z" fill="#263238"/>
<path d="M119.78 66.8561C121.902 64.7343 121.902 61.2941 119.78 59.1722C117.658 57.0504 114.218 57.0504 112.096 59.1722C109.974 61.2941 109.974 64.7342 112.096 66.8561C114.218 68.9779 117.658 68.9779 119.78 66.8561Z" fill="#263238"/>
<path d="M116.509 75.9288C119.827 75.9288 122.517 73.239 122.517 69.921C122.517 66.6029 119.827 63.9131 116.509 63.9131C113.191 63.9131 110.501 66.6029 110.501 69.921C110.501 73.239 113.191 75.9288 116.509 75.9288Z" fill="#263238"/>
<path d="M128.366 71.7083C129.129 68.479 127.129 65.2433 123.899 64.4811C120.67 63.7189 117.434 65.7189 116.672 68.9482C115.91 72.1775 117.91 75.4133 121.139 76.1755C124.369 76.9377 127.604 74.9377 128.366 71.7083Z" fill="#263238"/>
<path d="M142.446 82.7236C142.446 83.2107 142.446 83.829 142.489 84.3911C142.533 84.9531 142.533 85.5527 142.57 86.1335C142.652 87.2951 142.733 88.4692 142.858 89.637C143.083 91.9811 143.397 94.3147 143.801 96.6379C143.907 97.2124 144.001 97.7995 144.119 98.374L144.394 99.7917C144.463 100.017 144.394 99.9728 144.307 99.9666C144.219 99.9603 144.307 100.079 144.675 100.079C145.618 99.9844 146.537 99.7199 147.386 99.2983C147.885 99.0735 148.397 98.8299 148.909 98.5676C149.421 98.3053 149.94 98.0056 150.408 97.7433L152.232 99.8479C151.797 100.346 151.334 100.82 150.845 101.266C150.364 101.723 149.855 102.151 149.322 102.546C148.762 102.967 148.171 103.345 147.554 103.676C146.852 104.059 146.099 104.341 145.318 104.513C144.837 104.618 144.343 104.66 143.851 104.638C143.25 104.603 142.661 104.455 142.115 104.201C141.534 103.928 141.017 103.537 140.597 103.052C140.236 102.63 139.942 102.156 139.723 101.647C139.553 101.256 139.415 100.853 139.311 100.441L139.067 99.5294C138.892 98.9049 138.748 98.3116 138.599 97.6996C138.014 95.2444 137.564 92.7593 137.25 90.2553C137.093 89.0063 136.969 87.7572 136.894 86.477C136.856 85.8525 136.825 85.2279 136.806 84.5659C136.787 83.904 136.806 83.3169 136.806 82.5737L142.446 82.7236Z" fill="#FFB573"/>
<path d="M139.416 75.9914C144.744 80.0695 144.531 87.7573 144.531 87.7573L135.001 90.0368C135.001 90.0368 132.078 82.3052 133.265 79.4762C134.501 76.5284 136.419 73.6931 139.416 75.9914Z" fill="#1676AD"/>
<path opacity="0.7" d="M139.416 75.9914C144.744 80.0695 144.531 87.7573 144.531 87.7573L135.001 90.0368C135.001 90.0368 132.078 82.3052 133.265 79.4762C134.501 76.5284 136.419 73.6931 139.416 75.9914Z" fill="white"/>
<path d="M150.052 98.4614L151.626 95.8135L155.573 100.035C155.573 100.035 152.744 101.846 149.809 100.554L150.052 98.4614Z" fill="#FFB573"/>
<path d="M153.568 94.5459L158.633 97.5311L155.573 100.035L151.626 95.8137L153.568 94.5459Z" fill="#FFB573"/>
<path d="M109.596 220.992L115.042 221.516L118.426 208.758L112.974 208.233L109.596 220.992Z" fill="#FFB573"/>
<path d="M81.6797 210.269L86.5697 212.829L92.3839 201.301L87.494 198.74L81.6797 210.269Z" fill="#FFB573"/>
<path d="M87.8751 210.587L83.5035 206.147C83.4308 206.069 83.3319 206.021 83.2258 206.012C83.1197 206.003 83.014 206.033 82.9289 206.097L78.9133 209.051C78.8159 209.129 78.7361 209.227 78.6789 209.339C78.6218 209.45 78.5886 209.572 78.5815 209.696C78.5744 209.821 78.5937 209.946 78.6379 210.063C78.6821 210.18 78.7504 210.286 78.8384 210.375C80.3872 211.899 81.2115 212.555 83.135 214.509C84.3216 215.709 86.7572 218.538 88.3935 220.199C90.0297 221.86 91.7534 220.33 91.2226 219.493C88.8369 215.746 88.4372 213.392 88.2873 211.487C88.2602 211.148 88.1142 210.829 87.8751 210.587Z" fill="#263238"/>
<path d="M115.891 219.862H109.289C109.171 219.863 109.057 219.903 108.963 219.975C108.87 220.047 108.802 220.148 108.771 220.262L107.36 225.451C107.324 225.575 107.319 225.705 107.343 225.831C107.367 225.956 107.42 226.075 107.499 226.177C107.577 226.278 107.678 226.36 107.794 226.415C107.91 226.47 108.037 226.497 108.165 226.494C110.482 226.494 111.581 226.494 114.473 226.494H123.322C125.727 226.494 126.233 224.065 125.233 223.84C120.774 222.853 118.201 221.492 116.827 220.193C116.567 219.97 116.233 219.852 115.891 219.862Z" fill="#263238"/>
<path opacity="0.2" d="M118.421 208.764L116.678 215.34H111.089L112.969 208.239L118.421 208.764Z" fill="black"/>
<path opacity="0.2" d="M87.4879 198.74L92.3841 201.307L89.3865 207.246L84.4902 204.679L87.4879 198.74Z" fill="black"/>
<path d="M137.806 75.2043C137.806 75.2043 140.216 76.2597 132.135 108.235L109.69 106.293C110.858 97.1936 111.351 91.5604 108.609 72.4314C111.809 72.0568 115.032 71.9127 118.252 72.0005C121.666 72.0522 125.072 72.3465 128.444 72.8811C131.602 73.4969 134.726 74.2723 137.806 75.2043Z" fill="#1676AD"/>
<path opacity="0.7" d="M137.806 75.2043C137.806 75.2043 140.216 76.2597 132.135 108.235L109.69 106.293C110.858 97.1936 111.351 91.5604 108.609 72.4314C111.809 72.0568 115.032 71.9127 118.252 72.0005C121.666 72.0522 125.072 72.3465 128.444 72.8811C131.602 73.4969 134.726 74.2723 137.806 75.2043Z" fill="white"/>
<path d="M118.252 71.8193C118.252 71.8193 117.002 71.8193 115.472 71.8193C114.567 73.212 118.389 77.2776 123.248 81.2745C124.422 77.6336 126.27 77.6461 126.27 77.6461L118.252 71.8193Z" fill="white"/>
<path d="M128.438 72.8003C128.438 72.8003 129.006 72.8815 130.368 73.1937C131.267 74.5864 131.773 78.0712 129.119 81.1064C128.076 77.3593 126.277 77.6965 126.277 77.6965L128.438 72.8003Z" fill="white"/>
<path d="M120.25 60.6094C120.613 63.9443 120.731 69.9771 118.252 72.0006C118.252 72.0006 120.9 74.711 126.271 77.6962C130.168 74.9983 128.444 72.8811 128.444 72.8811C124.859 71.6946 125.19 68.9904 126.046 66.4923L120.25 60.6094Z" fill="#FFB573"/>
<path opacity="0.2" d="M122.617 63.0142L126.046 66.4927C125.835 67.0709 125.677 67.6665 125.571 68.2726C124.197 67.9541 122.199 66.5177 122.174 65.0438C122.198 64.346 122.348 63.6584 122.617 63.0142Z" fill="black"/>
<path d="M133.127 49.7305C135.426 51.7664 136.1 56.7251 133.914 60.0912C133.258 56.6789 132.994 53.2028 133.127 49.7305Z" fill="#263238"/>
<path d="M119.551 53.6083C119.151 59.0978 118.87 61.4148 121.243 64.5811C124.815 69.3462 131.648 68.628 133.677 63.3695C135.507 58.6295 135.851 50.4483 130.811 47.563C129.703 46.9165 128.448 46.5651 127.166 46.5422C125.884 46.5193 124.618 46.8259 123.488 47.4324C122.358 48.039 121.403 48.9254 120.713 50.0067C120.024 51.088 119.624 52.3281 119.551 53.6083Z" fill="#FFB573"/>
<path d="M118.82 58.0302C122.879 57.8741 125.127 52.5657 124.109 50.3237C128.712 52.7218 135.682 54.6079 134.907 51.5227C133.864 47.3572 128.824 44.3033 122.623 46.5266C119.032 48.0879 115.959 51.5227 118.82 58.0302Z" fill="#263238"/>
<path d="M117.584 58.0238C117.757 59.0735 118.336 60.0132 119.195 60.6406C120.344 61.4587 121.393 60.5469 121.474 59.2167C121.549 58.0113 121.043 56.1378 119.695 55.8505C119.399 55.7918 119.094 55.808 118.806 55.8976C118.519 55.9871 118.258 56.1472 118.048 56.3633C117.838 56.5793 117.686 56.8444 117.605 57.1345C117.524 57.4245 117.516 57.7303 117.584 58.0238Z" fill="#FFB573"/>
<path d="M132.135 108.235C132.135 108.235 137.212 141.366 134.383 162.65C132.241 178.731 118.421 213.429 118.421 213.429L109.446 213.186C109.446 213.186 118.714 179.555 120.631 166.347C123.91 143.727 115.698 106.836 115.698 106.836L132.135 108.235Z" fill="#263238"/>
<path opacity="0.2" d="M123.379 115.024L118.589 122.574C120.031 131.527 120.947 140.556 121.331 149.616C128.063 137.563 124.903 121.4 123.379 115.024Z" fill="black"/>
<path d="M119.819 213.929L108.54 213.623L109.227 209.994L120.881 210.063L119.819 213.929Z" fill="#1676AD"/>
<path d="M127.226 107.879C127.226 107.879 123.479 144.563 114.917 164.523C107.991 180.636 91.4787 206.409 91.4787 206.409L84.8838 202.55C84.8838 202.55 95.5006 173.891 100.74 163.149C113.524 136.813 101.633 115.686 109.69 106.318L127.226 107.879Z" fill="#263238"/>
<path d="M92.1964 206.971L83.7842 202.356L85.1519 198.759L94.1137 203.817L92.1964 206.971Z" fill="#1676AD"/>
<path d="M109.465 104.95L108.278 106.874C108.191 107.017 108.359 107.199 108.622 107.217L132.16 109.253C132.36 109.253 132.541 109.185 132.559 109.06L132.94 107.067C132.94 106.93 132.797 106.799 132.578 106.78L109.846 104.813C109.776 104.802 109.704 104.809 109.638 104.833C109.571 104.857 109.512 104.898 109.465 104.95Z" fill="#1676AD"/>
<path d="M112.3 107.754L111.675 107.704C111.557 107.704 111.469 107.623 111.482 107.548L111.994 104.963C111.994 104.882 112.125 104.832 112.244 104.844L112.868 104.894C112.993 104.894 113.08 104.975 113.062 105.05L112.556 107.636C112.531 107.711 112.412 107.767 112.3 107.754Z" fill="#263238"/>
<path d="M130.43 109.322L129.806 109.272C129.681 109.272 129.593 109.191 129.612 109.116L130.124 106.53C130.124 106.455 130.249 106.399 130.368 106.411L130.992 106.461C131.111 106.461 131.198 106.543 131.186 106.618L130.674 109.203C130.661 109.29 130.524 109.334 130.43 109.322Z" fill="#263238"/>
<path d="M121.362 108.541L120.738 108.485C120.619 108.485 120.532 108.404 120.544 108.329L121.056 105.743C121.056 105.669 121.181 105.612 121.306 105.625L121.931 105.681C122.049 105.681 122.137 105.762 122.124 105.837L121.612 108.423C121.6 108.498 121.487 108.548 121.362 108.541Z" fill="#263238"/>
<path d="M128.15 56.3376C128.087 56.781 128.275 57.1745 128.562 57.212C128.849 57.2494 129.136 56.9247 129.186 56.4813C129.236 56.0379 129.055 55.6444 128.768 55.6069C128.481 55.5695 128.206 55.8942 128.15 56.3376Z" fill="#263238"/>
<path d="M133.159 57.0124C133.103 57.4558 133.291 57.8493 133.578 57.8868C133.865 57.9242 134.152 57.5995 134.202 57.1561C134.252 56.7127 134.077 56.3192 133.79 56.2818C133.503 56.2443 133.222 56.569 133.159 57.0124Z" fill="#263238"/>
<path d="M133.646 56.2879L134.758 56.1255C134.758 56.1255 134.109 56.8812 133.646 56.2879Z" fill="#263238"/>
<path d="M131.192 57.4995C131.452 58.5629 131.856 59.586 132.391 60.5409C132.144 60.6722 131.871 60.7481 131.592 60.7632C131.312 60.7783 131.033 60.7323 130.773 60.6283L131.192 57.4995Z" fill="#ED893E"/>
<path d="M128.176 61.9519C127.297 61.6657 126.56 61.0562 126.115 60.247C126.104 60.2211 126.102 60.192 126.112 60.1654C126.121 60.1388 126.14 60.1167 126.165 60.1034C126.191 60.0903 126.222 60.0882 126.25 60.0976C126.278 60.1069 126.301 60.127 126.315 60.1533C126.592 60.6399 126.98 61.0541 127.448 61.3623C127.916 61.6705 128.45 61.8639 129.006 61.927C129.034 61.927 129.061 61.9381 129.081 61.958C129.101 61.978 129.112 62.005 129.112 62.0331C129.112 62.0613 129.101 62.0883 129.081 62.1082C129.061 62.1281 129.034 62.1393 129.006 62.1393C128.723 62.1081 128.445 62.0452 128.176 61.9519Z" fill="#263238"/>
<path d="M125.871 53.7712C125.834 53.7562 125.802 53.7326 125.777 53.7025C125.756 53.6827 125.74 53.6589 125.729 53.6326C125.718 53.6063 125.712 53.578 125.712 53.5495C125.712 53.5209 125.718 53.4926 125.729 53.4663C125.74 53.44 125.756 53.4163 125.777 53.3965C126.083 53.1228 126.451 52.9276 126.849 52.8275C127.247 52.7274 127.664 52.7255 128.063 52.8219C128.09 52.8298 128.115 52.843 128.138 52.8609C128.16 52.8787 128.178 52.9008 128.191 52.9258C128.205 52.9509 128.213 52.9783 128.216 53.0066C128.218 53.0349 128.215 53.0634 128.206 53.0905C128.19 53.1458 128.153 53.1926 128.103 53.2206C128.053 53.2487 127.993 53.2558 127.938 53.2403C127.609 53.1672 127.268 53.1733 126.942 53.258C126.617 53.3427 126.316 53.5036 126.064 53.7275C126.037 53.7483 126.006 53.763 125.972 53.7705C125.939 53.7781 125.904 53.7783 125.871 53.7712Z" fill="#263238"/>
<path d="M135.264 55.1014C135.232 55.0886 135.202 55.0695 135.177 55.0452C134.958 54.7882 134.681 54.5865 134.37 54.4563C134.059 54.3261 133.721 54.2711 133.384 54.2957C133.356 54.3021 133.326 54.3023 133.298 54.2964C133.269 54.2904 133.242 54.2785 133.219 54.2614C133.195 54.2443 133.175 54.2224 133.161 54.1971C133.146 54.1718 133.137 54.1437 133.134 54.1146C133.125 54.0575 133.14 53.9991 133.173 53.9523C133.207 53.9055 133.259 53.874 133.316 53.8648C133.723 53.8281 134.134 53.8895 134.513 54.0438C134.892 54.198 135.229 54.4407 135.495 54.7516C135.526 54.7877 135.543 54.8326 135.546 54.8797C135.549 54.9268 135.536 54.9735 135.51 55.0128C135.484 55.0521 135.446 55.082 135.402 55.098C135.358 55.1139 135.309 55.1151 135.264 55.1014Z" fill="#263238"/>
<path d="M140.204 102.221C140.608 100.961 141.257 99.7934 142.112 98.7843C142.968 97.7752 144.014 96.9445 145.191 96.3396C146.367 95.7348 147.651 95.3676 148.97 95.2591C150.289 95.1505 151.616 95.3028 152.875 95.7071C154.135 96.1114 155.303 96.7599 156.312 97.6155C157.321 98.4711 158.152 99.5171 158.757 100.694C159.361 101.87 159.729 103.155 159.837 104.473C159.946 105.792 159.793 107.119 159.389 108.379L155.505 120.532L136.319 114.368L140.204 102.221Z" fill="#1676AD"/>
<path opacity="0.3" d="M140.204 102.221C140.608 100.961 141.257 99.7934 142.112 98.7843C142.968 97.7752 144.014 96.9445 145.191 96.3396C146.367 95.7348 147.651 95.3676 148.97 95.2591C150.289 95.1505 151.616 95.3028 152.875 95.7071C154.135 96.1114 155.303 96.7599 156.312 97.6155C157.321 98.4711 158.152 99.5171 158.757 100.694C159.361 101.87 159.729 103.155 159.837 104.473C159.946 105.792 159.793 107.119 159.389 108.379L155.505 120.532L136.319 114.368L140.204 102.221Z" fill="black"/>
<path d="M121.275 96.1383L117.765 107.067C117.714 107.224 117.694 107.39 117.707 107.555C117.72 107.719 117.766 107.88 117.841 108.027C117.917 108.174 118.021 108.304 118.147 108.411C118.273 108.517 118.419 108.598 118.577 108.647L136.313 114.343L140.21 102.215C141.028 99.6732 142.821 97.5601 145.196 96.3399C147.571 95.1197 150.333 94.8922 152.876 95.7074L133.946 89.6246C131.402 88.8112 128.639 89.0401 126.264 90.2613C123.888 91.4824 122.094 93.596 121.275 96.1383Z" fill="#1676AD"/>
<path d="M130.792 104.426L135.682 89.2061C135.699 89.1514 135.703 89.0938 135.696 89.0371C135.689 88.9805 135.669 88.926 135.639 88.8775C135.609 88.8289 135.569 88.7875 135.521 88.7558C135.474 88.7241 135.42 88.7031 135.363 88.694L130.367 87.957L129.743 89.9305L133.384 91.0984L129.262 103.926L130.792 104.426Z" fill="#263238"/>
<path d="M128.194 103.589C128.081 103.941 128.075 104.319 128.177 104.675C128.279 105.031 128.484 105.349 128.766 105.589C129.049 105.828 129.396 105.979 129.764 106.021C130.132 106.063 130.504 105.996 130.834 105.827C131.163 105.657 131.435 105.395 131.615 105.071C131.795 104.747 131.875 104.378 131.845 104.009C131.816 103.639 131.677 103.287 131.447 102.997C131.217 102.707 130.907 102.491 130.554 102.377C130.32 102.301 130.073 102.272 129.827 102.292C129.581 102.312 129.342 102.38 129.123 102.493C128.903 102.605 128.708 102.76 128.549 102.948C128.39 103.136 128.269 103.354 128.194 103.589Z" fill="#263238"/>
<path d="M137.237 116.16L161.843 124.061C161.932 124.09 162.026 124.101 162.12 124.093C162.214 124.086 162.305 124.06 162.389 124.017C162.472 123.974 162.547 123.915 162.607 123.843C162.668 123.771 162.714 123.688 162.742 123.598C162.772 123.509 162.784 123.415 162.777 123.321C162.77 123.227 162.744 123.135 162.701 123.051C162.658 122.967 162.598 122.893 162.526 122.833C162.454 122.772 162.37 122.727 162.28 122.699L136.313 114.362C136.197 114.723 136.229 115.115 136.402 115.453C136.576 115.79 136.876 116.044 137.237 116.16Z" fill="#1676AD"/>
<path opacity="0.2" d="M137.237 116.16L147.292 119.389C147.381 119.418 147.476 119.43 147.57 119.422C147.664 119.415 147.756 119.389 147.84 119.346C147.924 119.303 147.999 119.244 148.06 119.172C148.122 119.1 148.168 119.017 148.197 118.927C148.254 118.746 148.238 118.551 148.151 118.382C148.065 118.214 147.915 118.086 147.735 118.028L136.313 114.362C136.197 114.723 136.229 115.115 136.402 115.453C136.576 115.79 136.876 116.044 137.237 116.16Z" fill="black"/>
<path d="M111.251 81.2499L110.907 81.6308L110.52 82.0742C110.258 82.374 109.996 82.6987 109.746 83.0047C109.234 83.6293 108.747 84.2975 108.291 84.972C106.404 87.643 104.918 90.5761 103.882 93.6778C103.632 94.4522 103.401 95.2266 103.22 96.0197C103.157 96.2508 103.151 96.3445 103.12 96.4506C103.115 96.5422 103.115 96.6339 103.12 96.7254C103.11 96.823 103.11 96.9213 103.12 97.0189C103.12 97.1313 103.332 97.3936 103.844 97.6435C104.46 97.9204 105.108 98.1177 105.774 98.2305C107.38 98.4859 109.007 98.5925 110.633 98.549C112.331 98.549 114.055 98.3991 115.779 98.218C117.502 98.0369 119.251 97.8121 120.943 97.556L121.624 100.26C118.138 101.395 114.552 102.191 110.914 102.64C108.998 102.889 107.061 102.931 105.137 102.764C104.037 102.661 102.956 102.405 101.927 102.003C101.309 101.755 100.729 101.423 100.203 101.016C99.5835 100.53 99.0729 99.9193 98.7043 99.2235C98.0699 97.9182 97.9002 96.4353 98.2234 95.0205C98.3733 94.065 98.5919 93.1469 98.8479 92.1852C99.338 90.339 99.9901 88.5396 100.796 86.8081C101.605 85.0725 102.547 83.4021 103.613 81.8119C104.15 81.0188 104.725 80.2506 105.324 79.4949C105.63 79.1202 105.949 78.7518 106.261 78.3833L106.767 77.84C106.948 77.6464 107.092 77.4902 107.341 77.2529L111.251 81.2499Z" fill="#FFB573"/>
<path d="M119.582 98.1304L123.953 95.8135L124.147 100.51C124.147 100.51 121.024 101.803 119.238 100.379L119.582 98.1304Z" fill="#FFB573"/>
<path d="M127.557 95.4575L126.901 99.7854L124.154 100.51L123.96 95.8135L127.557 95.4575Z" fill="#FFB573"/>
<path d="M108.609 72.444C105.855 72.9312 102.002 80.8251 102.002 80.8251L108.94 87.0702C108.94 87.0702 114.455 81.0499 114.161 77.4651C113.912 74.4362 112.113 71.8195 108.609 72.444Z" fill="#1676AD"/>
<path opacity="0.7" d="M108.609 72.444C105.855 72.9312 102.002 80.8251 102.002 80.8251L108.94 87.0702C108.94 87.0702 114.455 81.0499 114.161 77.4651C113.912 74.4362 112.113 71.8195 108.609 72.444Z" fill="white"/>
<path d="M90.0234 212.998C89.9508 213.008 89.8774 213.008 89.8048 212.998C89.1116 212.961 88.3747 211.899 87.9937 211.275C87.9819 211.257 87.9756 211.236 87.9756 211.215C87.9756 211.194 87.9819 211.173 87.9937 211.156C88.0051 211.137 88.0223 211.123 88.0426 211.115C88.0629 211.107 88.0852 211.106 88.1061 211.112C88.331 211.156 90.2732 211.593 90.5168 212.249C90.5421 212.32 90.5484 212.397 90.5353 212.471C90.5222 212.545 90.49 212.615 90.4418 212.674C90.3419 212.825 90.1948 212.939 90.0234 212.998ZM88.3185 211.412C88.8743 212.268 89.4239 212.78 89.8173 212.805C89.9069 212.806 89.9955 212.785 90.0743 212.742C90.1531 212.699 90.2195 212.637 90.267 212.561C90.2939 212.534 90.3124 212.499 90.3201 212.461C90.3279 212.424 90.3246 212.385 90.3107 212.349C90.1608 211.949 88.9929 211.574 88.3185 211.412Z" fill="#1676AD"/>
<path d="M89.8234 211.275C89.2476 211.433 88.6432 211.459 88.056 211.35C88.0376 211.344 88.021 211.333 88.0079 211.319C87.9948 211.305 87.9855 211.287 87.9811 211.268C87.9723 211.252 87.9678 211.234 87.9678 211.215C87.9678 211.197 87.9723 211.179 87.9811 211.162C88.0311 211.119 89.1677 210.007 89.9608 210.063C90.0588 210.065 90.1551 210.089 90.2419 210.135C90.3287 210.18 90.4036 210.246 90.4604 210.325C90.5286 210.398 90.5706 210.492 90.5796 210.592C90.5887 210.691 90.5643 210.791 90.5104 210.875C90.331 211.079 90.0898 211.22 89.8234 211.275ZM88.3183 211.175C88.9428 211.262 90.1107 211.106 90.3543 210.75C90.3917 210.694 90.423 210.606 90.3105 210.463C90.2728 210.408 90.2225 210.363 90.1638 210.331C90.1052 210.3 90.0399 210.283 89.9733 210.282C89.43 210.244 88.6431 210.881 88.3183 211.175Z" fill="#1676AD"/>
<path d="M118.221 220.699C117.617 220.684 117.016 220.607 116.429 220.468C116.408 220.46 116.39 220.447 116.378 220.429C116.365 220.411 116.358 220.39 116.358 220.368C116.358 220.346 116.365 220.324 116.378 220.307C116.39 220.289 116.408 220.275 116.429 220.268C116.697 220.137 119.089 219.019 119.689 219.443C119.743 219.48 119.786 219.531 119.813 219.59C119.841 219.65 119.852 219.716 119.845 219.781C119.842 219.903 119.811 220.022 119.755 220.131C119.699 220.239 119.618 220.333 119.52 220.405C119.128 220.636 118.674 220.739 118.221 220.699ZM116.803 220.324C117.509 220.455 118.821 220.63 119.364 220.224C119.434 220.169 119.491 220.1 119.532 220.022C119.573 219.943 119.596 219.857 119.601 219.768C119.607 219.741 119.604 219.712 119.592 219.687C119.581 219.661 119.563 219.639 119.539 219.625C119.202 219.393 117.79 219.887 116.785 220.324H116.803Z" fill="#1676AD"/>
<path d="M116.447 220.455C116.424 220.461 116.401 220.461 116.378 220.455C116.363 220.441 116.352 220.423 116.345 220.404C116.339 220.384 116.337 220.363 116.341 220.343C116.341 220.243 116.909 217.888 118.214 218.038C118.539 218.082 118.626 218.238 118.645 218.369C118.726 218.994 117.221 220.174 116.503 220.474L116.447 220.455ZM118.083 218.225C117.259 218.225 116.778 219.599 116.616 220.149C117.396 219.737 118.489 218.756 118.42 218.375C118.42 218.344 118.42 218.257 118.177 218.232L118.083 218.225Z" fill="#1676AD"/>
<path d="M128.65 55.6131L129.756 55.4507C129.756 55.4507 129.1 56.2064 128.65 55.6131Z" fill="#263238"/>
<path d="M167.078 107.861L142.896 112.857C142.483 112.935 142.055 112.847 141.705 112.614C141.355 112.381 141.11 112.019 141.023 111.608L139.892 106.362L139.486 104.426L140.198 102.215C140.297 101.898 140.416 101.587 140.554 101.285C140.57 101.237 140.591 101.19 140.617 101.147C141.016 100.237 141.553 99.3947 142.209 98.6491L143.458 98.3868L164.192 94.0838C164.606 94.0062 165.033 94.0934 165.383 94.3268C165.734 94.5602 165.978 94.9213 166.066 95.3329L168.27 105.95C168.361 106.361 168.286 106.791 168.063 107.148C167.84 107.505 167.487 107.761 167.078 107.861Z" fill="#1676AD"/>
<path opacity="0.3" d="M165.878 94.7707L154.212 106.637L151.714 105.625L141.997 101.684L140.629 101.128C141.028 100.219 141.565 99.3759 142.221 98.6303L143.47 98.368L164.204 94.065C164.522 94.0016 164.851 94.0349 165.15 94.1608C165.448 94.2866 165.702 94.4991 165.878 94.7707Z" fill="black"/>
<path d="M165.878 94.7709L151.714 105.644L150.79 106.356L141.89 101.94L140.566 101.316C140.582 101.268 140.603 101.222 140.629 101.178C141.028 100.269 141.565 99.426 142.221 98.6804L143.47 98.4181L164.204 94.1151C164.517 94.0466 164.843 94.0724 165.141 94.1891C165.439 94.3058 165.695 94.5083 165.878 94.7709Z" fill="#1676AD"/>
<path opacity="0.2" d="M165.878 94.7709L151.714 105.644L150.79 106.356L141.89 101.94L140.566 101.316C140.582 101.268 140.603 101.222 140.629 101.178C141.028 100.269 141.565 99.426 142.221 98.6804L143.47 98.4181L164.204 94.1151C164.517 94.0466 164.843 94.0724 165.141 94.1891C165.439 94.3058 165.695 94.5083 165.878 94.7709Z" fill="white"/>
<path d="M196.599 129.763L189.229 137.706C188.938 138.016 188.537 138.198 188.112 138.214C187.688 138.229 187.274 138.076 186.962 137.788L168.889 120.957C168.577 120.667 168.394 120.265 168.379 119.84C168.364 119.415 168.518 119.001 168.807 118.69L176.202 110.746C176.345 110.59 176.518 110.464 176.71 110.376C176.902 110.288 177.11 110.238 177.321 110.231C177.533 110.223 177.744 110.257 177.942 110.332C178.14 110.407 178.321 110.52 178.475 110.665L196.542 127.496C196.777 127.713 196.94 127.996 197.013 128.308C197.085 128.619 197.063 128.945 196.948 129.244C196.87 129.44 196.751 129.617 196.599 129.763Z" fill="#1676AD"/>
<path opacity="0.3" d="M196.923 129.276L180.486 126.596L176.67 110.359C176.961 110.225 177.286 110.18 177.602 110.23C177.919 110.28 178.214 110.423 178.45 110.64L196.517 127.471C196.763 127.693 196.934 127.986 197.006 128.309C197.079 128.632 197.05 128.97 196.923 129.276Z" fill="black"/>
<path d="M196.923 129.275L180.917 124.504L176.67 110.415C176.961 110.281 177.286 110.236 177.602 110.286C177.919 110.336 178.214 110.479 178.45 110.696L196.517 127.527C196.751 127.745 196.915 128.028 196.987 128.339C197.06 128.651 197.037 128.977 196.923 129.275Z" fill="#1676AD"/>
<path opacity="0.2" d="M196.923 129.275L180.917 124.504L176.67 110.415C176.961 110.281 177.286 110.236 177.602 110.286C177.919 110.336 178.214 110.479 178.45 110.696L196.517 127.527C196.751 127.745 196.915 128.028 196.987 128.339C197.06 128.651 197.037 128.977 196.923 129.275Z" fill="white"/>
<path d="M203.025 142.846L211.143 152.326C211.299 152.508 211.415 152.719 211.486 152.947C211.557 153.175 211.58 153.415 211.555 153.652C211.53 153.889 211.457 154.119 211.34 154.327C211.223 154.535 211.065 154.717 210.875 154.862L193.238 168.601C192.942 168.78 192.59 168.841 192.251 168.775C191.911 168.708 191.609 168.517 191.402 168.239L185.051 160.995C184.932 160.855 184.833 160.7 184.758 160.532C184.64 160.303 184.59 160.044 184.616 159.787C184.641 159.53 184.74 159.286 184.901 159.084L200.514 142.777C200.758 142.513 201.08 142.335 201.433 142.267C201.786 142.2 202.151 142.247 202.475 142.403C202.685 142.514 202.871 142.665 203.025 142.846Z" fill="#1676AD"/>
<path opacity="0.3" d="M202.475 142.421L198.596 159.671L184.782 160.551C184.664 160.321 184.615 160.062 184.64 159.806C184.666 159.549 184.765 159.304 184.926 159.102L200.539 142.796C200.781 142.538 201.098 142.362 201.446 142.295C201.793 142.227 202.154 142.272 202.475 142.421Z" fill="black"/>
<path d="M202.475 142.422L195.974 160.726L184.77 160.551C184.652 160.322 184.603 160.063 184.629 159.806C184.654 159.549 184.753 159.305 184.914 159.102L200.527 142.796C200.77 142.535 201.09 142.358 201.44 142.29C201.79 142.223 202.153 142.269 202.475 142.422Z" fill="#1676AD"/>
<path opacity="0.2" d="M202.475 142.422L195.974 160.726L184.77 160.551C184.652 160.322 184.603 160.063 184.629 159.806C184.654 159.549 184.753 159.305 184.914 159.102L200.527 142.796C200.77 142.535 201.09 142.358 201.44 142.29C201.79 142.223 202.153 142.269 202.475 142.422Z" fill="white"/>
</svg>
