<svg width="237" height="102" viewBox="0 0 237 102" fill="none" xmlns="http://www.w3.org/2000/svg">
<ellipse cx="31.4696" cy="32.2907" rx="31.4696" ry="32.2907" fill="#14577D"/>
<rect y="25.5453" width="17.2575" height="69.3327" rx="8.62875" fill="#146898"/>
<path d="M39.0832 20.0718C36.2069 17.9432 28.3226 14.3241 17.7651 16.8785C7.20766 19.4328 1.52279 27.9778 0 31.931H17.2575C19.2878 15.8751 32.4847 17.335 39.0832 20.0718Z" fill="#146898"/>
<rect width="17.9634" height="69.5856" rx="8.98169" transform="matrix(0.689104 -0.724663 0.727469 0.68614 4 51.0903)" fill="#1676AD"/>
<path d="M6.83019 35.4728C3.43471 45.7197 6.4765 52.7217 8.42183 54.9419L9.48296 55.9665L23.2771 44.6949C19.8816 41.006 18.6791 35.9851 18.5022 33.9357C18.5022 19.9999 30.1742 17.8823 36.0102 18.5655C32.6147 17.3359 26.8141 18.3947 24.3382 19.0778C19.917 20.2733 10.2257 25.2259 6.83019 35.4728Z" fill="#1676AD"/>
<path d="M84.473 85.041H74.1401C74.153 86.2407 74.3917 87.2985 74.8561 88.2144C75.3334 89.1303 75.959 89.8204 76.733 90.2848C77.5199 90.7492 78.3842 90.9814 79.3259 90.9814C79.958 90.9814 80.5321 90.9105 81.0481 90.7686C81.577 90.6138 82.0865 90.3816 82.5767 90.072C83.0669 89.7495 83.5184 89.4076 83.9312 89.0464C84.344 88.6852 84.8794 88.195 85.5373 87.5758C85.8082 87.3436 86.1952 87.2275 86.6983 87.2275C87.2401 87.2275 87.6787 87.3759 88.0141 87.6726C88.3495 87.9693 88.5172 88.3885 88.5172 88.9303C88.5172 89.4076 88.3301 89.9688 87.956 90.6138C87.5819 91.2459 87.0143 91.8586 86.2532 92.452C85.505 93.0325 84.5569 93.5163 83.4088 93.9033C82.2736 94.2902 80.9642 94.4837 79.4807 94.4837C76.088 94.4837 73.45 93.5163 71.5666 91.5813C69.6832 89.6463 68.7415 87.0211 68.7415 83.7058C68.7415 82.1449 68.9737 80.7001 69.4381 79.3714C69.9025 78.0298 70.5797 76.8817 71.4698 75.9271C72.3599 74.9725 73.4564 74.2437 74.7593 73.7406C76.0622 73.2246 77.507 72.9666 79.0937 72.9666C81.1577 72.9666 82.925 73.4052 84.3956 74.2824C85.8791 75.1467 86.9885 76.269 87.7238 77.6493C88.4591 79.0296 88.8268 80.4357 88.8268 81.8676C88.8268 83.1963 88.4462 84.0606 87.6851 84.4605C86.924 84.8475 85.8533 85.041 84.473 85.041ZM74.1401 82.0417H83.7184C83.5894 80.2357 83.0992 78.8877 82.2478 77.9976C81.4093 77.0946 80.2999 76.6431 78.9196 76.6431C77.6038 76.6431 76.5202 77.101 75.6688 78.0169C74.8303 78.9199 74.3207 80.2615 74.1401 82.0417ZM98.0954 75.9271V76.5657C99.0242 75.3402 100.037 74.4436 101.133 73.876C102.243 73.2955 103.513 73.0053 104.945 73.0053C106.338 73.0053 107.583 73.3084 108.68 73.9147C109.776 74.521 110.595 75.3789 111.137 76.4883C111.486 77.1333 111.711 77.8299 111.815 78.5781C111.918 79.3263 111.969 80.2809 111.969 81.4419V91.2717C111.969 92.3295 111.724 93.1293 111.234 93.6711C110.757 94.2128 110.131 94.4837 109.357 94.4837C108.57 94.4837 107.932 94.2064 107.441 93.6517C106.951 93.097 106.706 92.3037 106.706 91.2717V82.4674C106.706 80.7259 106.461 79.3972 105.971 78.4813C105.494 77.5525 104.532 77.0881 103.088 77.0881C102.146 77.0881 101.288 77.3719 100.514 77.9395C99.7401 78.4942 99.1725 79.2618 98.8113 80.2422C98.5533 81.0291 98.4243 82.4997 98.4243 84.654V91.2717C98.4243 92.3424 98.1728 93.1486 97.6697 93.6904C97.1795 94.2193 96.5409 94.4837 95.754 94.4837C94.9929 94.4837 94.3673 94.2064 93.8771 93.6517C93.3869 93.097 93.1418 92.3037 93.1418 91.2717V76.0045C93.1418 74.9983 93.3611 74.2501 93.7997 73.7599C94.2383 73.2568 94.8381 73.0053 95.5992 73.0053C96.0636 73.0053 96.4829 73.1149 96.857 73.3342C97.2311 73.5535 97.5278 73.8825 97.7471 74.3211C97.9793 74.7597 98.0954 75.295 98.0954 75.9271ZM117.542 73.4697H118.123V70.2963C118.123 69.4449 118.142 68.7805 118.181 68.3032C118.232 67.8131 118.361 67.3938 118.568 67.0455C118.774 66.6843 119.071 66.3941 119.458 66.1748C119.845 65.9426 120.277 65.8265 120.754 65.8265C121.425 65.8265 122.031 66.078 122.573 66.5811C122.934 66.9165 123.16 67.3293 123.25 67.8195C123.354 68.2968 123.405 68.9805 123.405 69.8706V73.4697H125.34C126.088 73.4697 126.656 73.6503 127.043 74.0115C127.443 74.3598 127.643 74.8113 127.643 75.366C127.643 76.0755 127.359 76.5721 126.791 76.8559C126.237 77.1397 125.437 77.2816 124.392 77.2816H123.405V86.9953C123.405 87.8209 123.431 88.4595 123.483 88.911C123.547 89.3496 123.702 89.7108 123.947 89.9946C124.205 90.2655 124.618 90.4009 125.185 90.4009C125.495 90.4009 125.914 90.3493 126.443 90.2461C126.972 90.13 127.385 90.072 127.681 90.072C128.107 90.072 128.488 90.2461 128.823 90.5944C129.171 90.9298 129.346 91.3491 129.346 91.8522C129.346 92.7036 128.881 93.355 127.952 93.8065C127.024 94.258 125.688 94.4837 123.947 94.4837C122.296 94.4837 121.044 94.2064 120.193 93.6517C119.342 93.097 118.78 92.3295 118.51 91.3491C118.252 90.3687 118.123 89.0593 118.123 87.421V77.2816H117.426C116.665 77.2816 116.084 77.101 115.685 76.7398C115.285 76.3786 115.085 75.9207 115.085 75.366C115.085 74.8113 115.291 74.3598 115.704 74.0115C116.13 73.6503 116.742 73.4697 117.542 73.4697ZM144.651 91.5039C143.374 92.4972 142.136 93.2454 140.936 93.7485C139.749 94.2386 138.414 94.4837 136.931 94.4837C135.576 94.4837 134.383 94.2193 133.351 93.6904C132.332 93.1486 131.545 92.4198 130.99 91.5039C130.436 90.588 130.158 89.5947 130.158 88.524C130.158 87.0792 130.616 85.8472 131.532 84.8281C132.448 83.809 133.706 83.1253 135.305 82.777C135.641 82.6996 136.473 82.5255 137.802 82.2546C139.13 81.9837 140.265 81.7386 141.207 81.5193C142.162 81.2871 143.194 81.0097 144.303 80.6872C144.239 79.294 143.955 78.2749 143.452 77.6299C142.962 76.972 141.936 76.6431 140.375 76.6431C139.033 76.6431 138.021 76.8301 137.337 77.2042C136.666 77.5783 136.086 78.1395 135.596 78.8877C135.118 79.6359 134.776 80.1325 134.57 80.3776C134.377 80.6098 133.951 80.7259 133.293 80.7259C132.7 80.7259 132.184 80.5389 131.745 80.1648C131.319 79.7778 131.106 79.2876 131.106 78.6942C131.106 77.7654 131.435 76.8624 132.093 75.9852C132.751 75.108 133.777 74.3856 135.17 73.818C136.563 73.2504 138.298 72.9666 140.375 72.9666C142.697 72.9666 144.522 73.2439 145.851 73.7986C147.18 74.3404 148.115 75.2047 148.657 76.3915C149.212 77.5783 149.489 79.1521 149.489 81.1129C149.489 82.3513 149.482 83.4027 149.47 84.267C149.47 85.1313 149.463 86.0923 149.45 87.1501C149.45 88.1434 149.611 89.1819 149.934 90.2655C150.269 91.3362 150.437 92.0263 150.437 92.3359C150.437 92.8777 150.179 93.3744 149.663 93.8259C149.16 94.2644 148.586 94.4837 147.941 94.4837C147.399 94.4837 146.864 94.2322 146.335 93.7291C145.806 93.2131 145.245 92.4714 144.651 91.5039ZM144.303 83.8606C143.529 84.1444 142.4 84.4476 140.917 84.7701C139.446 85.0797 138.427 85.3119 137.86 85.4667C137.292 85.6086 136.75 85.8988 136.234 86.3374C135.718 86.7631 135.46 87.363 135.46 88.137C135.46 88.9368 135.763 89.6205 136.37 90.1881C136.976 90.7428 137.769 91.0201 138.75 91.0201C139.795 91.0201 140.756 90.7944 141.633 90.3429C142.523 89.8785 143.174 89.2851 143.587 88.5627C144.064 87.7629 144.303 86.4471 144.303 84.6153V83.8606ZM154.868 91.2717V68.3613C154.868 67.3035 155.1 66.5037 155.565 65.9619C156.042 65.4201 156.681 65.1492 157.48 65.1492C158.28 65.1492 158.925 65.4201 159.415 65.9619C159.906 66.4908 160.151 67.2906 160.151 68.3613V91.2717C160.151 92.3424 159.899 93.1486 159.396 93.6904C158.906 94.2193 158.267 94.4837 157.48 94.4837C156.706 94.4837 156.074 94.2064 155.584 93.6517C155.107 93.097 154.868 92.3037 154.868 91.2717Z" fill="#1676AD"/>
<rect x="167.05" y="59.3358" width="69" height="40.25" rx="3.6869" fill="#1676AD"/>
<path d="M184.954 91.5374L180.523 84.2563L177.801 86.8304V90.8204C177.801 91.7887 177.544 92.5365 177.029 93.0636C176.526 93.5784 175.944 93.8358 175.282 93.8358C174.51 93.8358 173.903 93.5784 173.462 93.0636C173.021 92.5487 172.8 91.7887 172.8 90.7836V69.3813C172.8 68.2658 173.015 67.4201 173.444 66.8439C173.873 66.2556 174.486 65.9614 175.282 65.9614C176.055 65.9614 176.667 66.2249 177.121 66.752C177.574 67.2791 177.801 68.0575 177.801 69.0871V81.2592L183.446 75.3386C184.145 74.6032 184.678 74.1006 185.046 73.8309C185.413 73.5613 185.861 73.4264 186.388 73.4264C187.013 73.4264 187.534 73.6287 187.951 74.0332C188.368 74.4254 188.576 74.9219 188.576 75.5225C188.576 76.258 187.896 77.2386 186.535 78.4644L183.869 80.9099L189.017 89.0001C189.397 89.6007 189.667 90.0604 189.826 90.3791C189.998 90.6855 190.084 90.9797 190.084 91.2616C190.084 92.0584 189.863 92.6897 189.422 93.1555C188.993 93.609 188.423 93.8358 187.712 93.8358C187.099 93.8358 186.627 93.6703 186.296 93.3394C185.965 93.0084 185.518 92.4078 184.954 91.5374Z" fill="white"/>
<path d="M206.117 91.0042V90.3607C205.516 91.1207 204.885 91.7581 204.223 92.2729C203.561 92.7878 202.838 93.1677 202.054 93.4129C201.269 93.6703 200.374 93.799 199.369 93.799C198.155 93.799 197.065 93.5477 196.096 93.0452C195.14 92.5426 194.398 91.85 193.871 90.9675C193.246 89.901 192.934 88.3688 192.934 86.3708V76.4235C192.934 75.4183 193.16 74.6706 193.614 74.1803C194.067 73.6777 194.668 73.4264 195.416 73.4264C196.176 73.4264 196.789 73.6777 197.255 74.1803C197.72 74.6829 197.953 75.4306 197.953 76.4235V84.4585C197.953 85.623 198.051 86.6037 198.247 87.4004C198.444 88.1849 198.793 88.8039 199.295 89.2575C199.81 89.6988 200.503 89.9194 201.373 89.9194C202.219 89.9194 203.016 89.6681 203.763 89.1655C204.511 88.663 205.057 88.0072 205.4 87.1982C205.682 86.4872 205.823 84.9304 205.823 82.5279V76.4235C205.823 75.4306 206.056 74.6829 206.522 74.1803C206.987 73.6777 207.594 73.4264 208.342 73.4264C209.09 73.4264 209.69 73.6777 210.144 74.1803C210.597 74.6706 210.824 75.4183 210.824 76.4235V90.9675C210.824 91.9236 210.603 92.6407 210.162 93.1187C209.733 93.5968 209.175 93.8358 208.489 93.8358C207.802 93.8358 207.232 93.5906 206.779 93.1003C206.338 92.5978 206.117 91.8991 206.117 91.0042Z" fill="white"/>
<path d="M220.477 94.2018L220.937 93.0802L214.759 77.525C214.379 76.6301 214.189 75.9805 214.189 75.576C214.189 75.1469 214.299 74.7485 214.52 74.3808C214.74 74.0131 215.041 73.7189 215.421 73.4982C215.813 73.2776 216.217 73.1673 216.634 73.1673C217.357 73.1673 217.903 73.4002 218.271 73.866C218.638 74.3195 218.963 74.9753 219.245 75.8334L223.493 88.1893L227.519 76.6975C227.838 75.766 228.126 75.0366 228.383 74.5095C228.641 73.9824 228.911 73.6269 229.192 73.4431C229.487 73.2592 229.897 73.1673 230.424 73.1673C230.804 73.1673 231.166 73.2715 231.509 73.4799C231.865 73.676 232.134 73.9457 232.318 74.2889C232.514 74.6321 232.612 74.9937 232.612 75.3737C232.563 75.6066 232.484 75.9376 232.373 76.3666C232.263 76.7956 232.128 77.2308 231.969 77.6721L225.423 94.8086C224.859 96.3163 224.308 97.4992 223.768 98.3572C223.229 99.2153 222.512 99.8711 221.617 100.325C220.735 100.79 219.539 101.023 218.032 101.023C216.561 101.023 215.458 100.864 214.722 100.545C213.987 100.227 213.619 99.6443 213.619 98.7985C213.619 98.2224 213.79 97.775 214.134 97.4563C214.489 97.1498 215.01 96.9966 215.697 96.9966C215.966 96.9966 216.23 97.0334 216.487 97.1069C216.806 97.1805 217.082 97.2173 217.315 97.2173C217.891 97.2173 218.344 97.1314 218.675 96.9598C219.006 96.7882 219.3 96.4879 219.558 96.0589C219.827 95.6421 220.134 95.0231 220.477 94.2018Z" fill="white"/>
<ellipse cx="31.5" cy="31.8784" rx="14.5" ry="14.8784" fill="white"/>
<ellipse cx="31.0151" cy="32.0092" rx="1.01515" ry="1.00909" fill="#0386D0"/>
<path d="M25.3497 28.573L31.4913 31.8032L30.8006 32.927L25.3497 28.573Z" fill="#0386D0"/>
<path d="M38.3075 26.5969L30.9688 32.8814L30 31.6719L38.3075 26.5969Z" fill="#0386D0"/>
</svg>
