<svg width="411" height="131" viewBox="0 0 411 131" fill="none" xmlns="http://www.w3.org/2000/svg">
<rect width="411" height="130.202" rx="7.84351" fill="#D9D9D9"/>
<rect x="62.3922" y="45.3922" width="286.288" height="38.4332" rx="5.88263" fill="white" stroke="#1676AD" stroke-width="0.784351"/>
<path d="M189.509 58.2755V71.4902H186.291V63.5651L183.335 71.4902H180.737L177.763 63.5463V71.4902H174.544V58.2755H178.347L182.055 67.4242L185.726 58.2755H189.509ZM191.184 66.2194C191.184 65.1401 191.385 64.1926 191.787 63.3769C192.201 62.5612 192.759 61.9337 193.462 61.4945C194.165 61.0552 194.949 60.8356 195.815 60.8356C196.556 60.8356 197.202 60.9862 197.754 61.2874C198.319 61.5886 198.752 61.9839 199.053 62.4733V60.9862H202.272V71.4902H199.053V70.0031C198.739 70.4925 198.3 70.8879 197.735 71.189C197.183 71.4902 196.537 71.6408 195.796 71.6408C194.943 71.6408 194.165 71.4212 193.462 70.982C192.759 70.5302 192.201 69.8964 191.787 69.0807C191.385 68.2524 191.184 67.2987 191.184 66.2194ZM199.053 66.2382C199.053 65.435 198.827 64.8013 198.375 64.337C197.936 63.8726 197.396 63.6404 196.756 63.6404C196.116 63.6404 195.57 63.8726 195.119 64.337C194.679 64.7887 194.46 65.4162 194.46 66.2194C194.46 67.0226 194.679 67.6626 195.119 68.1395C195.57 68.6038 196.116 68.836 196.756 68.836C197.396 68.836 197.936 68.6038 198.375 68.1395C198.827 67.6752 199.053 67.0414 199.053 66.2382ZM208.874 71.6408C207.958 71.6408 207.142 71.484 206.427 71.1702C205.711 70.8565 205.147 70.4298 204.732 69.8902C204.318 69.338 204.086 68.723 204.036 68.0454H207.217C207.255 68.4093 207.424 68.7042 207.726 68.9301C208.027 69.156 208.397 69.269 208.836 69.269C209.238 69.269 209.545 69.1937 209.759 69.0431C209.984 68.8799 210.097 68.6728 210.097 68.4219C210.097 68.1207 209.941 67.901 209.627 67.763C209.313 67.6124 208.805 67.4493 208.102 67.2736C207.349 67.0979 206.722 66.9159 206.22 66.7277C205.718 66.5269 205.285 66.2194 204.921 65.8053C204.557 65.3786 204.375 64.8076 204.375 64.0922C204.375 63.4899 204.538 62.9439 204.864 62.4545C205.203 61.9525 205.692 61.5572 206.332 61.2686C206.985 60.9799 207.757 60.8356 208.648 60.8356C209.966 60.8356 211.001 61.1619 211.754 61.8145C212.519 62.4671 212.959 63.333 213.072 64.4122H210.097C210.047 64.0483 209.884 63.7597 209.608 63.5463C209.344 63.333 208.993 63.2263 208.554 63.2263C208.177 63.2263 207.889 63.3016 207.688 63.4522C207.487 63.5902 207.387 63.7848 207.387 64.0358C207.387 64.337 207.544 64.5628 207.857 64.7134C208.184 64.864 208.686 65.0146 209.363 65.1652C210.141 65.366 210.775 65.5668 211.264 65.7676C211.754 65.9559 212.181 66.2696 212.545 66.7088C212.921 67.1355 213.116 67.7128 213.128 68.4407C213.128 69.0556 212.952 69.6078 212.601 70.0972C212.262 70.5741 211.766 70.9506 211.114 71.2267C210.474 71.5028 209.727 71.6408 208.874 71.6408ZM225.47 60.9862V71.4902H222.251V70.0596C221.924 70.5239 221.479 70.9004 220.914 71.189C220.362 71.4651 219.747 71.6032 219.069 71.6032C218.266 71.6032 217.557 71.4275 216.942 71.0761C216.327 70.7122 215.85 70.1913 215.512 69.5137C215.173 68.836 215.003 68.0391 215.003 67.123V60.9862H218.204V66.69C218.204 67.3928 218.385 67.9387 218.749 68.3277C219.113 68.7168 219.603 68.9113 220.218 68.9113C220.845 68.9113 221.341 68.7168 221.705 68.3277C222.069 67.9387 222.251 67.3928 222.251 66.69V60.9862H225.47ZM234.201 71.4902L231.001 67.0853V71.4902H227.782V57.5602H231.001V65.2593L234.182 60.9862H238.154L233.787 66.257L238.192 71.4902H234.201Z" fill="#1676AD"/>
</svg>
