<svg width="276" height="276" viewBox="0 0 276 276" fill="none" xmlns="http://www.w3.org/2000/svg">
<circle cx="138" cy="138" r="138" fill="#E4F5FF"/>
<path d="M149.255 250.365L153.612 267.418L161.784 265.413L157.42 248.353L149.255 250.365Z" fill="#FF8B7B"/>
<path d="M161.979 261.931L152.722 263.914C152.578 263.942 152.45 264.023 152.363 264.141C152.276 264.259 152.236 264.405 152.251 264.551L152.888 271.326C152.909 271.496 152.964 271.661 153.052 271.808C153.139 271.956 153.257 272.083 153.396 272.183C153.536 272.282 153.695 272.352 153.863 272.386C154.031 272.42 154.204 272.419 154.372 272.383C157.267 271.659 158.143 271.268 161.806 270.472C166.091 269.531 167.596 269.784 172.663 268.684C175.703 268.018 175.558 264.833 174.205 264.826C170.603 264.831 167.063 263.888 163.941 262.09C163.332 261.787 162.629 261.73 161.979 261.931Z" fill="#263238"/>
<path opacity="0.2" d="M149.248 250.373L151.499 259.16L159.671 257.155L157.42 248.361L149.248 250.373Z" fill="black"/>
<path d="M134.692 184.672C124.964 156.045 117.255 122.279 117.255 122.279L145.013 120.527C145.013 120.527 149.103 164.361 151.238 184.57C153.453 205.561 160.351 253.007 160.351 253.007L147.829 255.548C147.829 255.548 136.081 210.867 134.692 184.672Z" fill="#1676AD"/>
<path opacity="0.2" d="M130.06 138.188L123.321 146.519C125.036 152.947 127.048 160.171 129.249 167.561C130.514 157.823 130.786 147.981 130.06 138.188Z" fill="black"/>
<path d="M160.163 254.767L148.683 257.286C148.455 257.334 148.216 257.297 148.012 257.183C147.809 257.068 147.654 256.884 147.576 256.663L146.309 252.957C146.268 252.832 146.252 252.699 146.264 252.568C146.276 252.436 146.316 252.308 146.38 252.193C146.444 252.077 146.531 251.976 146.636 251.896C146.741 251.815 146.861 251.758 146.99 251.727L159.454 248.795C159.588 248.763 159.728 248.761 159.863 248.789C159.998 248.816 160.126 248.873 160.237 248.955C160.347 249.037 160.439 249.142 160.505 249.264C160.571 249.385 160.61 249.519 160.619 249.657L160.909 253.775C160.926 254.003 160.86 254.229 160.722 254.411C160.585 254.594 160.387 254.72 160.163 254.767Z" fill="#263238"/>
<path opacity="0.1" d="M160.163 254.767L148.683 257.286C148.455 257.334 148.216 257.297 148.012 257.183C147.809 257.068 147.654 256.884 147.576 256.663L146.309 252.957C146.268 252.832 146.252 252.699 146.264 252.568C146.276 252.436 146.316 252.308 146.38 252.193C146.444 252.077 146.531 251.976 146.636 251.896C146.741 251.815 146.861 251.758 146.99 251.727L159.454 248.795C159.588 248.763 159.728 248.761 159.863 248.789C159.998 248.816 160.126 248.873 160.237 248.955C160.347 249.037 160.439 249.142 160.505 249.264C160.571 249.385 160.61 249.519 160.619 249.657L160.909 253.775C160.926 254.003 160.86 254.229 160.722 254.411C160.585 254.594 160.387 254.72 160.163 254.767Z" fill="white"/>
<path d="M103.467 249.772L102.953 267.368L111.371 267.252L111.885 249.656L103.467 249.772Z" fill="#FF8B7B"/>
<path d="M111.573 263.639L102.627 263.77C102.481 263.769 102.34 263.823 102.231 263.92C102.123 264.018 102.055 264.153 102.04 264.298L101.317 271.066C101.304 271.236 101.326 271.408 101.383 271.57C101.44 271.732 101.529 271.88 101.647 272.005C101.764 272.13 101.905 272.23 102.063 272.297C102.22 272.365 102.39 272.399 102.562 272.397C105.536 272.303 106.477 272.057 110.227 271.999C114.613 271.927 115.561 272.477 120.7 272.397C123.813 272.347 124.319 269.198 122.98 268.923C119.457 268.208 116.182 266.58 113.484 264.204C112.943 263.777 112.259 263.575 111.573 263.639Z" fill="#263238"/>
<path opacity="0.2" d="M103.466 249.78L103.198 258.849L111.624 258.726L111.884 249.656L103.466 249.78Z" fill="black"/>
<path d="M105.565 184.093C107.94 153.975 105.935 137.732 109.431 122.771L134.692 121.208C134.692 121.208 126.853 165.476 122.517 185.497C118.182 205.518 113.535 254.151 113.535 254.151L101.121 254.303C101.121 254.303 99.6012 207.588 105.565 184.093Z" fill="#1676AD"/>
<path d="M113.484 256.38L101.744 256.561C101.499 256.564 101.263 256.473 101.083 256.308C100.903 256.142 100.792 255.915 100.774 255.671L100.521 251.791C100.513 251.664 100.531 251.536 100.573 251.416C100.615 251.296 100.681 251.185 100.767 251.091C100.852 250.996 100.956 250.92 101.072 250.866C101.187 250.812 101.312 250.782 101.44 250.778L114.23 250.38C114.373 250.376 114.514 250.404 114.645 250.463C114.775 250.521 114.891 250.608 114.983 250.717C115.076 250.826 115.142 250.955 115.179 251.093C115.215 251.231 115.219 251.376 115.192 251.516L114.403 255.606C114.363 255.821 114.25 256.016 114.082 256.157C113.915 256.298 113.703 256.377 113.484 256.38Z" fill="#263238"/>
<path opacity="0.1" d="M113.484 256.38L101.744 256.561C101.499 256.564 101.263 256.473 101.083 256.308C100.903 256.142 100.792 255.915 100.774 255.671L100.521 251.791C100.513 251.664 100.531 251.536 100.573 251.416C100.615 251.296 100.681 251.185 100.767 251.091C100.852 250.996 100.956 250.92 101.072 250.866C101.187 250.812 101.312 250.782 101.44 250.778L114.23 250.38C114.373 250.376 114.514 250.404 114.645 250.463C114.775 250.521 114.891 250.608 114.983 250.717C115.076 250.826 115.142 250.955 115.179 251.093C115.215 251.231 115.219 251.376 115.192 251.516L114.403 255.606C114.363 255.821 114.25 256.016 114.082 256.157C113.915 256.298 113.703 256.377 113.484 256.38Z" fill="white"/>
<path d="M144.456 70.1852L145.904 72.5593L147.503 74.9986C148.538 76.5982 149.617 78.1616 150.695 79.6889C151.774 81.2162 152.917 82.6638 154.068 84.0318C155.091 85.2508 156.236 86.3616 157.485 87.3469L153.945 86.8185C155.382 86.5231 156.785 86.0867 158.136 85.5156C159.62 84.8824 161.069 84.1721 162.479 83.3876C163.927 82.5986 165.374 81.7228 166.822 80.8108C168.27 79.8988 169.717 78.9072 171.085 77.9807L171.201 77.9083C171.696 77.5603 172.3 77.4016 172.902 77.4613C173.505 77.5209 174.066 77.7949 174.483 78.2333C174.901 78.6717 175.147 79.2455 175.177 79.85C175.207 80.4546 175.018 81.0498 174.646 81.5274C173.51 83.0542 172.274 84.5049 170.948 85.8703C169.631 87.2355 168.236 88.5236 166.771 89.7282C165.257 90.9719 163.653 92.1017 161.972 93.1085C160.169 94.2005 158.242 95.0751 156.233 95.7142C155.692 95.8804 155.124 95.9334 154.562 95.8699C154 95.8063 153.458 95.6277 152.968 95.3451L152.693 95.1858C150.617 93.948 148.714 92.4415 147.033 90.7054C146.246 89.914 145.491 89.113 144.767 88.3023C144.043 87.4916 143.356 86.6641 142.704 85.8196C141.373 84.1548 140.149 82.4466 138.984 80.7022C138.405 79.8337 137.833 78.9578 137.29 78.0603C136.747 77.1628 136.226 76.2942 135.676 75.2953C135.152 74.1552 135.07 72.8611 135.445 71.6637C135.82 70.4663 136.627 69.4509 137.708 68.8139C138.789 68.1769 140.068 67.9638 141.297 68.2158C142.527 68.4678 143.619 69.167 144.362 70.1779L144.456 70.1852Z" fill="#FF8B7B"/>
<path d="M105.096 88.1425L103.644 90.5137L102.203 93.0498C101.251 94.7005 100.352 96.3734 99.4846 98.0298C98.6174 99.6862 97.8507 101.364 97.1582 103.012C96.5398 104.478 96.0734 106.004 95.7664 107.565L94.6222 104.174C95.5402 105.317 96.5689 106.368 97.6932 107.309C98.9334 108.341 100.227 109.307 101.568 110.203C102.93 111.132 104.37 112.021 105.842 112.893C107.314 113.765 108.856 114.601 110.305 115.396L110.422 115.466C110.958 115.748 111.374 116.213 111.596 116.776C111.818 117.34 111.83 117.964 111.63 118.535C111.43 119.106 111.032 119.587 110.508 119.89C109.983 120.192 109.368 120.296 108.773 120.183C106.896 119.868 105.041 119.43 103.221 118.872C101.406 118.323 99.6232 117.67 97.8829 116.915C96.0856 116.135 94.3485 115.223 92.6859 114.186C90.8914 113.079 89.2342 111.764 87.749 110.267C87.3546 109.862 87.0481 109.38 86.8484 108.851C86.6487 108.322 86.5603 107.758 86.5885 107.193L86.6048 106.876C86.7596 104.464 87.2321 102.083 88.0102 99.7953C88.3557 98.7344 88.7241 97.6969 89.1154 96.683C89.5067 95.6691 89.9295 94.6797 90.3839 93.7148C91.2579 91.7703 92.2202 89.9026 93.241 88.0698C93.7499 87.1584 94.2685 86.25 94.8196 85.3575C95.3707 84.465 95.906 83.6051 96.5439 82.6599C97.3196 81.6735 98.4336 81.01 99.6704 80.7979C100.907 80.5858 102.179 80.8401 103.239 81.5117C104.299 82.1833 105.072 83.2243 105.408 84.4332C105.745 85.6421 105.62 86.9328 105.06 88.0555L105.096 88.1425Z" fill="#FF8B7B"/>
<path d="M133.483 60.5232C143.291 61.6379 150.71 76.8235 150.71 76.8235L140.577 87.5867C140.577 87.5867 136.075 82.216 131.232 75.4193C125.97 68.0364 125.724 59.6474 133.483 60.5232Z" fill="#263238"/>
<path d="M132.709 62.8168C128.937 61.4778 117.125 63.4827 117.125 63.4827C120.433 67.7171 122.633 102.793 122.915 122.966C126.498 123.458 135.01 123.393 138.202 122.655C137.804 114.736 135.198 76.8951 132.709 62.8168Z" fill="white"/>
<path d="M145.593 73.4429C145.148 69.7948 143.379 66.4368 140.623 64.006C137.866 61.5751 134.314 60.2404 130.639 60.255C123.581 60.3139 116.548 61.09 109.648 62.5712C108.577 62.8032 107.563 63.2468 106.666 63.8758C105.769 64.5049 105.006 65.3068 104.423 66.2344C103.84 67.1621 103.448 68.197 103.27 69.2782C103.092 70.3594 103.132 71.4653 103.387 72.5309C108.584 94.3395 107.216 115.026 108.606 124.646C114.269 126.056 120.091 126.725 125.927 126.636C125.927 126.636 125.717 123.958 125.456 119.622C125.362 117.929 123.183 67.1602 119.789 62.7956C119.789 62.7956 127.07 62.0718 130.841 63.3891C133.642 79.1973 136.263 126.658 136.263 126.665C142.22 126.238 146.396 122.764 146.316 121.772C147.504 102.367 146.924 84.7996 145.593 73.4429Z" fill="#263238"/>
<path d="M115.909 44.946C117.016 49.2093 118.312 56.7081 116.278 60.8049C116.07 61.2042 116.006 61.6635 116.099 62.1043C116.191 62.5451 116.433 62.9402 116.785 63.2224C119.397 65.2419 122.756 67.1165 127.642 66.8415C132.774 66.5302 132.39 63.4613 131.087 61.4129C130.954 61.1959 130.778 61.0083 130.571 60.8615C130.363 60.7146 130.127 60.6116 129.878 60.5588C125.029 59.5599 124.971 55.702 125.666 51.996L115.909 44.946Z" fill="#FF8B7B"/>
<path opacity="0.2" d="M119.883 47.812L125.673 51.9667C125.491 52.8631 125.39 53.7739 125.369 54.6883C123.277 54.5942 120.302 52.5964 119.94 50.4467C119.763 49.5791 119.743 48.6866 119.883 47.812Z" fill="black"/>
<path d="M131.919 39.532C133.229 38.6634 133.924 32.6774 131.919 30.7376C133.989 28.9136 132.795 24.853 129.958 24.1653C127.12 23.4777 125.036 25.3452 121.381 23C120.751 23.8541 121.113 24.9471 122.206 25.584C123.784 26.5033 131.919 39.532 131.919 39.532Z" fill="#263238"/>
<path d="M114.128 37.7071C115.113 44.2215 115.351 48.1228 118.971 51.1773C124.421 55.7736 132.274 51.9735 133.266 45.2565C134.163 39.2126 132.405 29.5352 125.738 27.5375C124.261 27.0955 122.695 27.0358 121.188 27.3638C119.681 27.6919 118.282 28.397 117.122 29.4132C115.962 30.4294 115.079 31.7233 114.555 33.1739C114.032 34.6245 113.885 36.1842 114.128 37.7071Z" fill="#FF8B7B"/>
<path d="M116.126 43.2368C117.87 42.4189 116.915 35.4268 116.488 34.0515C121.07 34.6885 133.954 31.2504 129.712 26.2416C126.614 22.6225 117.574 26.7627 113.723 23.6431C112.579 24.8663 114.172 26.3139 114.172 26.3139C114.172 26.3139 108.055 27.7616 110.553 32.1045C105.587 31.8801 108.989 43.9606 116.126 43.2368Z" fill="#263238"/>
<path d="M111.703 29.341C109.293 31.2302 108.345 30.3833 106.948 29.1094C106.615 32.8226 109.568 33.3003 110.936 32.9167C111.834 31.7585 111.703 29.341 111.703 29.341Z" fill="#263238"/>
<path d="M111.986 43.7159C112.791 45.0763 114.086 46.0781 115.605 46.5171C117.523 47.0165 118.247 45.0694 117.516 43.1513C116.857 41.3924 115.062 39.0183 113.231 39.3875C111.399 39.7566 110.943 41.9932 111.986 43.7159Z" fill="#FF8B7B"/>
<path d="M123.118 38.2871C123.169 38.8228 123.487 39.2281 123.842 39.1919C124.197 39.1557 124.436 38.6997 124.385 38.1641C124.334 37.6285 124.016 37.2231 123.661 37.2593C123.306 37.2955 123.075 37.7515 123.118 38.2871Z" fill="#263238"/>
<path d="M129.147 37.252C129.198 37.7876 129.516 38.193 129.871 38.164C130.226 38.135 130.465 37.6646 130.414 37.1289C130.363 36.5933 130.045 36.188 129.69 36.2242C129.336 36.2604 129.104 36.7164 129.147 37.252Z" fill="#263238"/>
<path d="M126.998 37.8816C126.998 37.8816 128.489 40.8565 129.958 42.2245C129.089 43.2016 127.439 42.9483 127.439 42.9483L126.998 37.8816Z" fill="#FF5652"/>
<path d="M125.789 45.5549C125.189 45.6051 124.585 45.5301 124.016 45.3344C123.446 45.1388 122.924 44.8269 122.481 44.4185C122.462 44.4051 122.446 44.3876 122.434 44.3672C122.422 44.3468 122.415 44.3241 122.413 44.3006C122.411 44.2771 122.414 44.2534 122.423 44.2314C122.431 44.2093 122.444 44.1894 122.461 44.173C122.478 44.1566 122.498 44.1442 122.52 44.1366C122.543 44.129 122.567 44.1265 122.59 44.1292C122.613 44.1319 122.636 44.1398 122.656 44.1523C122.676 44.1648 122.693 44.1815 122.706 44.2014C123.207 44.6416 123.805 44.9575 124.452 45.1235C125.098 45.2895 125.774 45.3009 126.426 45.1568C126.467 45.1482 126.51 45.1564 126.546 45.1794C126.581 45.2025 126.606 45.2386 126.614 45.2799C126.621 45.3219 126.611 45.3649 126.587 45.3999C126.562 45.4349 126.526 45.4593 126.484 45.468C126.254 45.5103 126.022 45.5393 125.789 45.5549Z" fill="#263238"/>
<path d="M120.86 37.4027C120.807 37.4172 120.752 37.4172 120.7 37.4027C120.624 37.3678 120.564 37.3046 120.532 37.2263C120.501 37.148 120.502 37.0608 120.534 36.9829C120.726 36.5168 121.027 36.1031 121.411 35.7759C121.795 35.4488 122.251 35.2174 122.741 35.1009C122.782 35.0937 122.824 35.0948 122.865 35.104C122.905 35.1133 122.944 35.1306 122.977 35.1548C123.011 35.1791 123.04 35.2099 123.061 35.2454C123.083 35.2809 123.097 35.3204 123.103 35.3615C123.116 35.4448 123.096 35.5298 123.047 35.5986C122.999 35.6674 122.926 35.7148 122.843 35.7306C122.456 35.8268 122.097 36.0134 121.797 36.2751C121.496 36.5369 121.261 36.8662 121.113 37.2362C121.088 37.2832 121.052 37.3232 121.008 37.3524C120.963 37.3815 120.912 37.3988 120.86 37.4027Z" fill="#263238"/>
<path d="M131.442 34.3799C131.392 34.3922 131.34 34.3927 131.289 34.3814C131.239 34.3701 131.192 34.3473 131.152 34.3148C130.864 34.0495 130.517 33.8566 130.139 33.7522C129.761 33.6477 129.364 33.6346 128.981 33.714C128.9 33.7364 128.814 33.7262 128.741 33.6855C128.668 33.6449 128.613 33.5771 128.59 33.4969C128.569 33.4163 128.58 33.3309 128.621 33.2583C128.661 33.1856 128.728 33.1311 128.807 33.106C129.294 32.9952 129.801 33.003 130.285 33.129C130.769 33.255 131.215 33.4953 131.587 33.8298C131.644 33.8903 131.676 33.9707 131.676 34.0542C131.676 34.1377 131.644 34.218 131.587 34.2786C131.547 34.3234 131.497 34.3581 131.442 34.3799Z" fill="#263238"/>
<path d="M108.808 62.8023C97.8711 65.5601 94.8311 79.5442 94.8311 79.5442L108.417 89.2868C108.417 89.2868 111.783 85.7618 112.796 77.4886C113.281 73.551 111.023 62.6937 108.808 62.8023Z" fill="#263238"/>
<path d="M107.137 113.711L113.456 116.071L108.621 122.585C108.621 122.585 103.156 119.755 104.184 116.607L107.137 113.711Z" fill="#FF8B7B"/>
<path d="M116.395 122.419L114.317 124.41C113.917 124.793 113.394 125.021 112.841 125.054C112.289 125.087 111.742 124.923 111.299 124.591L108.599 122.557L113.434 116.042L116.438 119.054C116.662 119.274 116.84 119.538 116.959 119.828C117.079 120.119 117.139 120.431 117.135 120.746C117.131 121.06 117.063 121.371 116.936 121.658C116.809 121.946 116.624 122.205 116.395 122.419Z" fill="#FF8B7B"/>
<path d="M178.939 80.2979L178.164 76.7657C178.083 76.4013 177.873 76.0787 177.572 75.8578C177.271 75.6368 176.9 75.5325 176.528 75.5642C175.406 75.6589 174.32 76.0052 173.351 76.5775L169.008 79.1543L169.391 83.2511C171.194 86.0305 176.825 83.5406 176.825 83.5406L177.288 83.3597C177.884 83.1305 178.377 82.6958 178.68 82.1342C178.983 81.5727 179.075 80.9213 178.939 80.2979Z" fill="#FF8B7B"/>
<path d="M168.45 80.732C168.183 79.3495 168.783 78.2348 168.646 76.932C168.53 75.7956 168.834 74.5217 168.472 72.9727C168.906 72.2489 170.477 72.8424 170.499 74.7605C170.984 76.7293 173.148 76.447 174.009 76.2081C174.009 76.2299 171.085 81.3183 168.45 80.732Z" fill="#FF8B7B"/>
</svg>
