<svg width="101" height="250" viewBox="0 0 101 250" fill="none" xmlns="http://www.w3.org/2000/svg">
<path d="M71.2549 227.365L75.6123 244.418L83.7841 242.413L79.4195 225.353L71.2549 227.365Z" fill="#FF8B7B"/>
<path d="M83.9794 238.931L74.7218 240.914C74.5779 240.942 74.4498 241.023 74.3628 241.141C74.2757 241.259 74.2359 241.405 74.2513 241.551L74.8883 248.326C74.9085 248.496 74.9642 248.661 75.0517 248.808C75.1392 248.956 75.2566 249.083 75.3963 249.183C75.536 249.282 75.695 249.352 75.863 249.386C76.0311 249.42 76.2045 249.419 76.3721 249.383C79.2673 248.659 80.1432 248.268 83.8057 247.472C88.0907 246.531 89.5962 246.784 94.6629 245.684C97.703 245.018 97.5582 241.833 96.2047 241.826C92.6025 241.831 89.0626 240.888 85.9409 239.09C85.3318 238.787 84.6294 238.73 83.9794 238.931Z" fill="#263238"/>
<path opacity="0.2" d="M71.2478 227.373L73.4989 236.16L81.6708 234.155L79.4197 225.361L71.2478 227.373Z" fill="black"/>
<path d="M56.6916 161.672C46.9635 133.045 39.2549 99.2787 39.2549 99.2787L67.0133 97.5271C67.0133 97.5271 71.1028 141.361 73.2381 161.57C75.453 182.561 82.3509 230.007 82.3509 230.007L69.8289 232.548C69.8289 232.548 58.0813 187.867 56.6916 161.672Z" fill="#1676AD"/>
<path opacity="0.2" d="M52.0595 115.188L45.3208 123.519C47.0362 129.947 49.0485 137.171 51.2489 144.561C52.5142 134.823 52.7858 124.981 52.0595 115.188Z" fill="black"/>
<path d="M82.1631 231.767L70.6834 234.286C70.4547 234.334 70.2162 234.297 70.0124 234.183C69.8087 234.068 69.6535 233.884 69.576 233.663L68.3093 229.957C68.2675 229.832 68.2522 229.699 68.2643 229.568C68.2764 229.436 68.3156 229.308 68.3796 229.193C68.4435 229.077 68.5307 228.976 68.6358 228.896C68.7408 228.815 68.8613 228.758 68.9897 228.727L81.4538 225.795C81.5881 225.763 81.7276 225.761 81.8628 225.789C81.998 225.816 82.1256 225.873 82.2365 225.955C82.3475 226.037 82.4392 226.142 82.5053 226.264C82.5714 226.385 82.6102 226.519 82.6191 226.657L82.9087 230.775C82.9258 231.003 82.8596 231.229 82.7225 231.411C82.5853 231.594 82.3865 231.72 82.1631 231.767Z" fill="#263238"/>
<path opacity="0.1" d="M82.1631 231.767L70.6834 234.286C70.4547 234.334 70.2162 234.297 70.0124 234.183C69.8087 234.068 69.6535 233.884 69.576 233.663L68.3093 229.957C68.2675 229.832 68.2522 229.699 68.2643 229.568C68.2764 229.436 68.3156 229.308 68.3796 229.193C68.4435 229.077 68.5307 228.976 68.6358 228.896C68.7408 228.815 68.8613 228.758 68.9897 228.727L81.4538 225.795C81.5881 225.763 81.7276 225.761 81.8628 225.789C81.998 225.816 82.1256 225.873 82.2365 225.955C82.3475 226.037 82.4392 226.142 82.5053 226.264C82.5714 226.385 82.6102 226.519 82.6191 226.657L82.9087 230.775C82.9258 231.003 82.8596 231.229 82.7225 231.411C82.5853 231.594 82.3865 231.72 82.1631 231.767Z" fill="white"/>
<path d="M25.4665 226.772L24.9526 244.368L33.3706 244.252L33.8845 226.656L25.4665 226.772Z" fill="#FF8B7B"/>
<path d="M33.573 240.639L24.6267 240.77C24.4807 240.769 24.3397 240.823 24.2313 240.92C24.1229 241.018 24.0548 241.153 24.0404 241.298L23.3166 248.066C23.3035 248.236 23.3261 248.408 23.3829 248.57C23.4397 248.732 23.5295 248.88 23.6465 249.005C23.7636 249.13 23.9053 249.23 24.0628 249.297C24.2203 249.365 24.3902 249.399 24.5615 249.397C27.5364 249.303 28.4774 249.057 32.2268 248.999C36.6131 248.927 37.5613 249.477 42.7004 249.397C45.8128 249.347 46.3195 246.198 44.9804 245.923C41.4566 245.208 38.1822 243.58 35.4839 241.204C34.9433 240.777 34.2589 240.575 33.573 240.639Z" fill="#263238"/>
<path opacity="0.2" d="M25.4663 226.78L25.1985 235.849L33.6237 235.726L33.8843 226.656L25.4663 226.78Z" fill="black"/>
<path d="M27.5655 161.093C29.9396 130.975 27.9346 114.732 31.4307 99.771L56.6919 98.2075C56.6919 98.2075 48.8529 142.476 44.5173 162.497C40.1816 182.518 35.5347 231.151 35.5347 231.151L23.1213 231.303C23.1213 231.303 21.6012 184.588 27.5655 161.093Z" fill="#1676AD"/>
<path d="M35.4841 233.38L23.7438 233.561C23.4993 233.564 23.263 233.473 23.0829 233.308C22.9028 233.142 22.7923 232.915 22.7739 232.671L22.5206 228.791C22.5128 228.664 22.5305 228.536 22.5728 228.416C22.615 228.296 22.6809 228.185 22.7666 228.091C22.8522 227.996 22.956 227.92 23.0716 227.866C23.1872 227.812 23.3124 227.782 23.4398 227.778L36.2297 227.38C36.3725 227.376 36.5144 227.404 36.6448 227.463C36.7752 227.521 36.8909 227.608 36.9833 227.717C37.0757 227.826 37.1424 227.955 37.1786 228.093C37.2148 228.231 37.2195 228.376 37.1923 228.516L36.4034 232.606C36.3633 232.821 36.2498 233.016 36.0822 233.157C35.9146 233.298 35.7033 233.377 35.4841 233.38Z" fill="#263238"/>
<path opacity="0.1" d="M35.4841 233.38L23.7438 233.561C23.4993 233.564 23.263 233.473 23.0829 233.308C22.9028 233.142 22.7923 232.915 22.7739 232.671L22.5206 228.791C22.5128 228.664 22.5305 228.536 22.5728 228.416C22.615 228.296 22.6809 228.185 22.7666 228.091C22.8522 227.996 22.956 227.92 23.0716 227.866C23.1872 227.812 23.3124 227.782 23.4398 227.778L36.2297 227.38C36.3725 227.376 36.5144 227.404 36.6448 227.463C36.7752 227.521 36.8909 227.608 36.9833 227.717C37.0757 227.826 37.1424 227.955 37.1786 228.093C37.2148 228.231 37.2195 228.376 37.1923 228.516L36.4034 232.606C36.3633 232.821 36.2498 233.016 36.0822 233.157C35.9146 233.298 35.7033 233.377 35.4841 233.38Z" fill="white"/>
<path d="M66.4561 47.1852L67.9037 49.5593L69.5033 51.9986C70.5384 53.5982 71.6169 55.1616 72.6954 56.6889C73.7738 58.2162 74.9175 59.6638 76.0683 61.0318C77.0908 62.2508 78.2356 63.3616 79.4848 64.3469L75.9453 63.8185C77.3817 63.5231 78.7855 63.0867 80.1362 62.5156C81.6199 61.8824 83.0695 61.1721 84.4791 60.3876C85.9267 59.5986 87.3744 58.7228 88.822 57.8108C90.2696 56.8988 91.7172 55.9072 93.0853 54.9807L93.2011 54.9083C93.6963 54.5603 94.3001 54.4016 94.9025 54.4613C95.5048 54.5209 96.0658 54.7949 96.4831 55.2333C96.9005 55.6717 97.1466 56.2455 97.1766 56.85C97.2065 57.4546 97.0184 58.0498 96.6464 58.5274C95.5096 60.0542 94.2741 61.5049 92.9478 62.8703C91.6309 64.2355 90.2364 65.5236 88.7713 66.7282C87.2573 67.9719 85.6533 69.1017 83.9724 70.1085C82.1686 71.2005 80.2419 72.0751 78.2325 72.7142C77.6923 72.8804 77.1235 72.9334 76.5619 72.8699C76.0002 72.8063 75.4576 72.6277 74.9681 72.3451L74.6931 72.1858C72.6174 70.948 70.7142 69.4415 69.0328 67.7054C68.2463 66.914 67.4911 66.113 66.7673 65.3023C66.0435 64.4916 65.3559 63.6641 64.7044 62.8196C63.3726 61.1548 62.1494 59.4466 60.984 57.7022C60.405 56.8337 59.8331 55.9578 59.2903 55.0603C58.7474 54.1628 58.2263 53.2942 57.6762 52.2953C57.1521 51.1552 57.0698 49.8611 57.4451 48.6637C57.8205 47.4663 58.6268 46.4509 59.7079 45.8139C60.789 45.1769 62.0681 44.9638 63.2974 45.2158C64.5266 45.4678 65.6187 46.167 66.362 47.1779L66.4561 47.1852Z" fill="#FF8B7B"/>
<path d="M27.0962 65.1425L25.6438 67.5137L24.2026 70.0498C23.2512 71.7005 22.3518 73.3734 21.4846 75.0298C20.6174 76.6862 19.8507 78.3642 19.1582 80.0124C18.5398 81.4782 18.0734 83.0037 17.7664 84.5648L16.6222 81.1739C17.5402 82.3175 18.5689 83.3677 19.6932 84.3092C20.9334 85.3407 22.2267 86.3068 23.5678 87.2034C24.9302 88.1318 26.3699 89.0206 27.8418 89.8929C29.3137 90.7652 30.8565 91.6012 32.3049 92.396L32.4222 92.4661C32.9578 92.748 33.3744 93.213 33.596 93.7763C33.8177 94.3395 33.8297 94.9637 33.63 95.5351C33.4302 96.1065 33.0319 96.5871 32.5075 96.8896C31.9831 97.192 31.3676 97.2961 30.773 97.1829C28.8957 96.8676 27.0411 96.4298 25.2211 95.8722C23.4056 95.323 21.6232 94.6696 19.8829 93.9152C18.0856 93.1351 16.3485 92.223 14.6859 91.1864C12.8914 90.0792 11.2342 88.7636 9.74896 87.2669C9.35464 86.8619 9.04807 86.3799 8.8484 85.8511C8.64874 85.3223 8.56026 84.758 8.58851 84.1934L8.60477 83.876C8.75956 81.4642 9.23214 79.0834 10.0102 76.7953C10.3557 75.7344 10.7241 74.6969 11.1154 73.683C11.5067 72.6691 11.9295 71.6797 12.3839 70.7148C13.2579 68.7703 14.2202 66.9026 15.241 65.0698C15.7499 64.1584 16.2685 63.25 16.8196 62.3575C17.3707 61.465 17.906 60.6051 18.5439 59.6599C19.3196 58.6735 20.4336 58.01 21.6704 57.7979C22.9072 57.5858 24.1787 57.8401 25.2386 58.5117C26.2986 59.1833 27.0717 60.2243 27.4081 61.4332C27.7445 62.6421 27.6204 63.9328 27.0598 65.0555L27.0962 65.1425Z" fill="#FF8B7B"/>
<path d="M55.4833 37.5232C65.291 38.6379 72.7101 53.8235 72.7101 53.8235L62.5767 64.5867C62.5767 64.5867 58.0745 59.216 53.2322 52.4193C47.97 45.0364 47.7239 36.6474 55.4833 37.5232Z" fill="#263238"/>
<path d="M54.7085 39.8168C50.9374 38.4778 39.1248 40.4827 39.1248 40.4827C42.4326 44.7171 44.633 79.7932 44.9153 99.966C48.4982 100.458 57.0103 100.393 60.2023 99.6547C59.8042 91.7362 57.1985 53.8951 54.7085 39.8168Z" fill="white"/>
<path d="M67.5926 50.4429C67.1477 46.7948 65.3793 43.4368 62.6229 41.006C59.8665 38.5751 56.3138 37.2404 52.6386 37.255C45.5813 37.3139 38.5483 38.09 31.6479 39.5712C30.577 39.8032 29.5632 40.2468 28.666 40.8758C27.7687 41.5049 27.0062 42.3068 26.423 43.2344C25.8398 44.1621 25.4478 45.197 25.2699 46.2782C25.0919 47.3594 25.1317 48.4653 25.3869 49.5309C30.5839 71.3395 29.2159 92.0262 30.6056 101.646C36.2688 103.056 42.0911 103.725 47.9266 103.636C47.9266 103.636 47.7167 100.958 47.4561 96.6224C47.362 94.9287 45.1833 44.1602 41.7886 39.7956C41.7886 39.7956 49.0702 39.0718 52.8413 40.3891C55.6425 56.1973 58.2627 103.658 58.2627 103.665C64.2197 103.238 68.3961 99.7638 68.3165 98.7722C69.5035 79.3667 68.9245 61.7996 67.5926 50.4429Z" fill="#263238"/>
<path d="M37.9087 21.946C39.0161 26.2093 40.3117 33.7081 38.2778 37.8049C38.0696 38.2042 38.0064 38.6635 38.0987 39.1043C38.1911 39.5451 38.4335 39.9402 38.7845 40.2224C41.3975 42.2419 44.756 44.1165 49.6418 43.8415C54.7736 43.5302 54.39 40.4613 53.0871 38.4129C52.9542 38.1959 52.7784 38.0083 52.5706 37.8615C52.3628 37.7146 52.1272 37.6116 51.8783 37.5588C47.0288 36.5599 46.9709 32.702 47.6657 28.996L37.9087 21.946Z" fill="#FF8B7B"/>
<path opacity="0.2" d="M41.8826 24.812L47.6731 28.9667C47.4914 29.8631 47.3896 30.7739 47.3691 31.6883C45.2773 31.5942 42.3024 29.5964 41.9405 27.4467C41.7627 26.5791 41.7431 25.6866 41.8826 24.812Z" fill="black"/>
<path d="M53.9194 16.532C55.2295 15.6634 55.9244 9.67742 53.9194 7.73759C55.9895 5.91358 54.7952 1.85297 51.9578 1.16534C49.1205 0.477714 47.0359 2.34517 43.3806 0C42.7509 0.854103 43.1128 1.94707 44.2058 2.58402C45.7837 3.50327 53.9194 16.532 53.9194 16.532Z" fill="#263238"/>
<path d="M36.1283 14.7071C37.1126 21.2215 37.3515 25.1228 40.9706 28.1773C46.4209 32.7736 54.2743 28.9735 55.2659 22.2565C56.1635 16.2126 54.4046 6.53522 47.7383 4.53748C46.2607 4.09553 44.6952 4.03578 43.1883 4.36383C41.6814 4.69189 40.2824 5.39702 39.1223 6.41319C37.9622 7.42935 37.079 8.72331 36.5553 10.1739C36.0317 11.6245 35.8847 13.1842 36.1283 14.7071Z" fill="#FF8B7B"/>
<path d="M38.1259 20.2368C39.8703 19.4189 38.9149 12.4268 38.4878 11.0515C43.0696 11.6885 55.9535 8.25038 51.7119 3.24156C48.614 -0.377518 39.5735 3.76272 35.7228 0.643066C34.5792 1.86632 36.1716 3.31395 36.1716 3.31395C36.1716 3.31395 30.0554 4.76158 32.5525 9.10448C27.5871 8.88009 30.9891 20.9606 38.1259 20.2368Z" fill="#263238"/>
<path d="M33.7033 6.341C31.293 8.23016 30.3448 7.38329 28.9478 6.10938C28.6149 9.82255 31.5681 10.3003 32.9361 9.91665C33.8336 8.75854 33.7033 6.341 33.7033 6.341Z" fill="#263238"/>
<path d="M33.9856 20.7159C34.7914 22.0763 36.0857 23.0781 37.6047 23.5171C39.5228 24.0165 40.2466 22.0694 39.5156 20.1513C38.8569 18.3924 37.0618 16.0183 35.2306 16.3875C33.3993 16.7566 32.9433 18.9932 33.9856 20.7159Z" fill="#FF8B7B"/>
<path d="M45.1183 15.2871C45.1689 15.8228 45.4874 16.2281 45.8421 16.1919C46.1967 16.1557 46.4356 15.6997 46.3849 15.1641C46.3343 14.6285 46.0158 14.2231 45.6611 14.2593C45.3064 14.2955 45.0748 14.7515 45.1183 15.2871Z" fill="#263238"/>
<path d="M51.1473 14.252C51.198 14.7876 51.5165 15.193 51.8711 15.164C52.2258 15.135 52.4647 14.6646 52.414 14.1289C52.3633 13.5933 52.0448 13.188 51.6902 13.2242C51.3355 13.2604 51.1039 13.7164 51.1473 14.252Z" fill="#263238"/>
<path d="M48.9976 14.8816C48.9976 14.8816 50.4886 17.8565 51.958 19.2245C51.0894 20.2016 49.4391 19.9483 49.4391 19.9483L48.9976 14.8816Z" fill="#FF5652"/>
<path d="M47.789 22.5549C47.189 22.6051 46.5851 22.5301 46.0157 22.3344C45.4462 22.1388 44.9237 21.8269 44.4812 21.4185C44.4618 21.4051 44.4456 21.3876 44.4338 21.3672C44.422 21.3468 44.4148 21.3241 44.4129 21.3006C44.4109 21.2771 44.4143 21.2534 44.4225 21.2314C44.4308 21.2093 44.4439 21.1894 44.4609 21.173C44.4778 21.1566 44.4982 21.1442 44.5205 21.1366C44.5428 21.129 44.5665 21.1265 44.5899 21.1292C44.6134 21.1319 44.6359 21.1398 44.6559 21.1523C44.6759 21.1648 44.6928 21.1815 44.7056 21.2014C45.2071 21.6416 45.8053 21.9575 46.4517 22.1235C47.098 22.2895 47.7744 22.3009 48.426 22.1568C48.4673 22.1482 48.5103 22.1564 48.5455 22.1794C48.5808 22.2025 48.6055 22.2386 48.6142 22.2799C48.6207 22.3219 48.6108 22.3649 48.5865 22.3999C48.5623 22.4349 48.5256 22.4593 48.4839 22.468C48.2541 22.5103 48.0221 22.5393 47.789 22.5549Z" fill="#263238"/>
<path d="M42.8595 14.4027C42.8074 14.4172 42.7524 14.4172 42.7003 14.4027C42.6236 14.3678 42.5635 14.3046 42.5325 14.2263C42.5014 14.148 42.5019 14.0608 42.5338 13.9829C42.7265 13.5168 43.0271 13.1031 43.4109 12.7759C43.7947 12.4488 44.2507 12.2174 44.7414 12.1009C44.7824 12.0937 44.8243 12.0948 44.8649 12.104C44.9054 12.1133 44.9436 12.1306 44.9774 12.1548C45.0111 12.1791 45.0396 12.2099 45.0613 12.2454C45.0829 12.2809 45.0972 12.3204 45.1034 12.3615C45.1161 12.4448 45.0961 12.5298 45.0475 12.5986C44.9989 12.6674 44.9255 12.7148 44.8428 12.7306C44.4558 12.8268 44.0973 13.0134 43.7965 13.2751C43.4958 13.5369 43.2615 13.8662 43.1129 14.2362C43.0883 14.2832 43.0522 14.3232 43.0078 14.3524C42.9635 14.3815 42.9124 14.3988 42.8595 14.4027Z" fill="#263238"/>
<path d="M53.4417 11.3799C53.3917 11.3922 53.3396 11.3927 53.2893 11.3814C53.2391 11.3701 53.1922 11.3473 53.1522 11.3148C52.8639 11.0495 52.5166 10.8566 52.139 10.7522C51.7615 10.6477 51.3644 10.6346 50.9808 10.714C50.9002 10.7364 50.814 10.7262 50.7408 10.6855C50.6677 10.6449 50.6135 10.5771 50.5899 10.4969C50.5694 10.4163 50.5805 10.3309 50.6208 10.2583C50.6612 10.1856 50.7278 10.1311 50.8071 10.106C51.2945 9.99515 51.8013 10.003 52.285 10.129C52.7687 10.255 53.2151 10.4953 53.5865 10.8298C53.6441 10.8903 53.6761 10.9707 53.6761 11.0542C53.6761 11.1377 53.6441 11.218 53.5865 11.2786C53.547 11.3234 53.4974 11.3581 53.4417 11.3799Z" fill="#263238"/>
<path d="M30.808 39.8023C19.8711 42.5601 16.8311 56.5442 16.8311 56.5442L30.4171 66.2868C30.4171 66.2868 33.7828 62.7618 34.7962 54.4886C35.2811 50.551 33.0228 39.6937 30.808 39.8023Z" fill="#263238"/>
<path d="M29.1368 90.7114L35.4557 93.0711L30.6207 99.5854C30.6207 99.5854 25.1558 96.7553 26.1837 93.6067L29.1368 90.7114Z" fill="#FF8B7B"/>
<path d="M38.3946 99.4193L36.3173 101.41C35.9171 101.793 35.394 102.021 34.8413 102.054C34.2886 102.087 33.742 101.923 33.2989 101.591L30.5991 99.5568L35.4342 93.0425L38.438 96.0536C38.6623 96.274 38.8396 96.5376 38.9593 96.8284C39.0791 97.1192 39.1387 97.4312 39.1346 97.7457C39.1306 98.0602 39.0629 98.3705 38.9358 98.6582C38.8086 98.9458 38.6245 99.2047 38.3946 99.4193Z" fill="#FF8B7B"/>
<path d="M100.939 57.2979L100.164 53.7657C100.083 53.4013 99.8726 53.0787 99.5718 52.8578C99.271 52.6368 98.9002 52.5325 98.5283 52.5642C97.4064 52.6589 96.3203 53.0052 95.3507 53.5775L91.0078 56.1543L91.3914 60.2511C93.1937 63.0305 98.825 60.5406 98.825 60.5406L99.2883 60.3597C99.8837 60.1305 100.377 59.6958 100.68 59.1342C100.983 58.5727 101.075 57.9213 100.939 57.2979Z" fill="#FF8B7B"/>
<path d="M90.4505 57.732C90.1827 56.3495 90.7834 55.2348 90.6459 53.932C90.5301 52.7956 90.8341 51.5217 90.4722 49.9727C90.9065 49.2489 92.4772 49.8424 92.4989 51.7605C92.9838 53.7293 95.1481 53.447 96.0094 53.2081C96.0094 53.2299 93.0852 58.3183 90.4505 57.732Z" fill="#FF8B7B"/>
</svg>
