<svg width="68" height="115" viewBox="0 0 68 115" fill="none" xmlns="http://www.w3.org/2000/svg">
<ellipse cx="32.4696" cy="32.2907" rx="31.4696" ry="32.2907" fill="#14577D"/>
<rect x="1" y="25.5454" width="17.2575" height="69.3327" rx="8.62875" fill="#146898"/>
<path d="M40.0832 20.0718C37.2069 17.9432 29.3226 14.3241 18.7651 16.8785C8.20766 19.4328 2.52279 27.9778 1 31.931H18.2575C20.2878 15.8751 33.4847 17.335 40.0832 20.0718Z" fill="#146898"/>
<rect width="17.9634" height="69.5856" rx="8.98169" transform="matrix(0.689104 -0.724663 0.727469 0.68614 5 51.0903)" fill="#1676AD"/>
<path d="M7.83019 35.4728C4.43471 45.7197 7.4765 52.7217 9.42183 54.9419L10.483 55.9665L24.2771 44.6949C20.8816 41.006 19.6791 35.9851 19.5022 33.9357C19.5022 19.9999 31.1742 17.8823 37.0102 18.5655C33.6147 17.3359 27.8141 18.3947 25.3382 19.0778C20.917 20.2733 11.2257 25.2259 7.83019 35.4728Z" fill="#1676AD"/>
<path d="M3.10379 109.22V110.938C3.10379 111.355 3.00586 111.669 2.80999 111.879C2.61412 112.085 2.36551 112.188 2.06417 112.188C1.76786 112.188 1.52427 112.083 1.33343 111.872C1.14258 111.661 1.04715 111.35 1.04715 110.938V105.212C1.04715 104.288 1.38114 103.826 2.04911 103.826C2.39063 103.826 2.63672 103.934 2.78739 104.15C2.93806 104.366 3.02093 104.685 3.03599 105.107C3.28209 104.685 3.5332 104.366 3.78934 104.15C4.0505 103.934 4.39704 103.826 4.82896 103.826C5.26088 103.826 5.68025 103.934 6.08705 104.15C6.49386 104.366 6.69727 104.652 6.69727 105.009C6.69727 105.26 6.60938 105.468 6.43359 105.634C6.26283 105.795 6.07701 105.875 5.87612 105.875C5.80078 105.875 5.61747 105.83 5.32617 105.74C5.0399 105.644 4.78627 105.597 4.56529 105.597C4.26395 105.597 4.01786 105.677 3.82701 105.838C3.63616 105.993 3.488 106.227 3.38253 106.538C3.27706 106.85 3.20424 107.221 3.16406 107.653C3.12388 108.08 3.10379 108.602 3.10379 109.22ZM13.1761 108.512H9.15318C9.1582 108.979 9.25112 109.391 9.43192 109.747C9.61775 110.104 9.86133 110.373 10.1627 110.554C10.469 110.734 10.8055 110.825 11.1722 110.825C11.4182 110.825 11.6417 110.797 11.8426 110.742C12.0485 110.682 12.2469 110.591 12.4378 110.471C12.6286 110.345 12.8044 110.212 12.9651 110.071C13.1258 109.931 13.3343 109.74 13.5904 109.499C13.6959 109.408 13.8465 109.363 14.0424 109.363C14.2533 109.363 14.4241 109.421 14.5547 109.537C14.6853 109.652 14.7506 109.815 14.7506 110.026C14.7506 110.212 14.6777 110.431 14.5321 110.682C14.3864 110.928 14.1655 111.166 13.8691 111.397C13.5778 111.623 13.2087 111.812 12.7617 111.962C12.3198 112.113 11.81 112.188 11.2324 112.188C9.91155 112.188 8.88449 111.812 8.15123 111.058C7.41797 110.305 7.05134 109.283 7.05134 107.992C7.05134 107.384 7.14174 106.822 7.32255 106.305C7.50335 105.782 7.76702 105.335 8.11356 104.964C8.4601 104.592 8.887 104.308 9.39425 104.112C9.90151 103.912 10.464 103.811 11.0818 103.811C11.8853 103.811 12.5734 103.982 13.1459 104.323C13.7235 104.66 14.1554 105.097 14.4417 105.634C14.728 106.172 14.8711 106.719 14.8711 107.277C14.8711 107.794 14.7229 108.13 14.4266 108.286C14.1303 108.437 13.7134 108.512 13.1761 108.512ZM9.15318 107.344H12.8823C12.832 106.641 12.6412 106.116 12.3097 105.77C11.9833 105.418 11.5513 105.242 11.014 105.242C10.5017 105.242 10.0798 105.421 9.74833 105.777C9.42188 106.129 9.22349 106.651 9.15318 107.344ZM18.4796 104.964V105.212C18.8412 104.735 19.2355 104.386 19.6624 104.165C20.0943 103.939 20.589 103.826 21.1465 103.826C21.6889 103.826 22.1735 103.944 22.6004 104.18C23.0273 104.416 23.3463 104.75 23.5572 105.182C23.6928 105.433 23.7807 105.705 23.8209 105.996C23.861 106.287 23.8811 106.659 23.8811 107.111V110.938C23.8811 111.35 23.7857 111.661 23.5949 111.872C23.409 112.083 23.1655 112.188 22.8641 112.188C22.5578 112.188 22.3092 112.08 22.1183 111.864C21.9275 111.648 21.832 111.34 21.832 110.938V107.51C21.832 106.832 21.7366 106.315 21.5458 105.958C21.3599 105.597 20.9858 105.416 20.4233 105.416C20.0566 105.416 19.7227 105.526 19.4213 105.747C19.12 105.963 18.899 106.262 18.7584 106.644C18.6579 106.95 18.6077 107.523 18.6077 108.361V110.938C18.6077 111.355 18.5098 111.669 18.3139 111.879C18.123 112.085 17.8744 112.188 17.5681 112.188C17.2718 112.188 17.0282 112.08 16.8373 111.864C16.6465 111.648 16.5511 111.34 16.5511 110.938V104.994C16.5511 104.602 16.6364 104.311 16.8072 104.12C16.978 103.924 17.2115 103.826 17.5078 103.826C17.6886 103.826 17.8518 103.869 17.9975 103.954C18.1431 104.04 18.2587 104.168 18.344 104.338C18.4344 104.509 18.4796 104.718 18.4796 104.964ZM26.0508 104.007H26.2768V102.771C26.2768 102.44 26.2843 102.181 26.2994 101.996C26.3195 101.805 26.3697 101.641 26.4501 101.506C26.5304 101.365 26.6459 101.252 26.7966 101.167C26.9473 101.076 27.1155 101.031 27.3013 101.031C27.5625 101.031 27.7985 101.129 28.0095 101.325C28.1501 101.456 28.238 101.616 28.2732 101.807C28.3133 101.993 28.3334 102.259 28.3334 102.606V104.007H29.0868C29.3781 104.007 29.5991 104.077 29.7497 104.218C29.9054 104.354 29.9833 104.529 29.9833 104.745C29.9833 105.021 29.8728 105.215 29.6518 105.325C29.4358 105.436 29.1244 105.491 28.7176 105.491H28.3334V109.273C28.3334 109.594 28.3435 109.843 28.3636 110.019C28.3887 110.189 28.4489 110.33 28.5444 110.441C28.6448 110.546 28.8055 110.599 29.0265 110.599C29.147 110.599 29.3103 110.579 29.5162 110.539C29.7221 110.493 29.8828 110.471 29.9983 110.471C30.1641 110.471 30.3122 110.539 30.4428 110.674C30.5784 110.805 30.6462 110.968 30.6462 111.164C30.6462 111.495 30.4654 111.749 30.1038 111.925C29.7422 112.1 29.2224 112.188 28.5444 112.188C27.9015 112.188 27.4143 112.08 27.0829 111.864C26.7514 111.648 26.5329 111.35 26.4275 110.968C26.327 110.586 26.2768 110.076 26.2768 109.439V105.491H26.0056C25.7093 105.491 25.4833 105.421 25.3276 105.28C25.1719 105.14 25.094 104.961 25.094 104.745C25.094 104.529 25.1744 104.354 25.3351 104.218C25.5008 104.077 25.7394 104.007 26.0508 104.007ZM36.6052 111.028C36.108 111.415 35.6258 111.706 35.1588 111.902C34.6967 112.093 34.1769 112.188 33.5993 112.188C33.072 112.188 32.6074 112.085 32.2056 111.879C31.8089 111.669 31.5025 111.385 31.2866 111.028C31.0706 110.672 30.9626 110.285 30.9626 109.868C30.9626 109.306 31.1409 108.826 31.4975 108.429C31.8541 108.032 32.3438 107.766 32.9665 107.631C33.0971 107.6 33.421 107.533 33.9383 107.427C34.4556 107.322 34.8976 107.226 35.2642 107.141C35.6359 107.051 36.0377 106.943 36.4696 106.817C36.4445 106.275 36.334 105.878 36.1381 105.627C35.9473 105.371 35.548 105.242 34.9403 105.242C34.418 105.242 34.0237 105.315 33.7575 105.461C33.4964 105.607 33.2704 105.825 33.0795 106.116C32.8937 106.408 32.7606 106.601 32.6802 106.696C32.6049 106.787 32.4392 106.832 32.183 106.832C31.952 106.832 31.7511 106.759 31.5804 106.614C31.4146 106.463 31.3318 106.272 31.3318 106.041C31.3318 105.679 31.4598 105.328 31.716 104.986C31.9721 104.645 32.3714 104.364 32.9138 104.143C33.4562 103.922 34.1317 103.811 34.9403 103.811C35.8443 103.811 36.555 103.919 37.0723 104.135C37.5896 104.346 37.9537 104.682 38.1646 105.145C38.3806 105.607 38.4886 106.219 38.4886 106.983C38.4886 107.465 38.4861 107.874 38.481 108.211C38.481 108.547 38.4785 108.921 38.4735 109.333C38.4735 109.72 38.5363 110.124 38.6618 110.546C38.7924 110.963 38.8577 111.232 38.8577 111.352C38.8577 111.563 38.7573 111.756 38.5564 111.932C38.3605 112.103 38.137 112.188 37.8859 112.188C37.6749 112.188 37.4665 112.09 37.2606 111.895C37.0547 111.694 36.8362 111.405 36.6052 111.028ZM36.4696 108.052C36.1682 108.163 35.7288 108.281 35.1512 108.407C34.5787 108.527 34.1819 108.617 33.9609 108.678C33.74 108.733 33.529 108.846 33.3281 109.017C33.1272 109.182 33.0268 109.416 33.0268 109.717C33.0268 110.029 33.1448 110.295 33.3809 110.516C33.6169 110.732 33.9258 110.84 34.3075 110.84C34.7143 110.84 35.0885 110.752 35.43 110.576C35.7765 110.395 36.0301 110.164 36.1908 109.883C36.3767 109.572 36.4696 109.059 36.4696 108.346V108.052ZM40.5829 110.938V102.018C40.5829 101.606 40.6733 101.295 40.8541 101.084C41.0399 100.873 41.2885 100.768 41.5999 100.768C41.9113 100.768 42.1624 100.873 42.3532 101.084C42.5441 101.29 42.6395 101.601 42.6395 102.018V110.938C42.6395 111.355 42.5416 111.669 42.3457 111.879C42.1549 112.085 41.9063 112.188 41.5999 112.188C41.2986 112.188 41.0525 112.08 40.8616 111.864C40.6758 111.648 40.5829 111.34 40.5829 110.938ZM46.135 112.188C45.8237 112.188 45.555 112.088 45.329 111.887C45.103 111.686 44.99 111.405 44.99 111.043C44.99 110.737 45.0979 110.473 45.3139 110.252C45.5299 110.031 45.796 109.921 46.1124 109.921C46.4288 109.921 46.6975 110.031 46.9185 110.252C47.1445 110.468 47.2575 110.732 47.2575 111.043C47.2575 111.4 47.1445 111.681 46.9185 111.887C46.6975 112.088 46.4364 112.188 46.135 112.188Z" fill="#1676AD"/>
<rect x="50" y="100" width="14" height="12" rx="1.47222" fill="#1676AD"/>
<path d="M53.8301 105.643V111.036C53.8301 111.41 53.7412 111.692 53.5635 111.884C53.3857 112.075 53.1602 112.171 52.8867 112.171C52.6133 112.171 52.39 112.073 52.2168 111.877C52.0482 111.681 51.9639 111.401 51.9639 111.036V105.697C51.9639 105.328 52.0482 105.05 52.2168 104.863C52.39 104.676 52.6133 104.583 52.8867 104.583C53.1602 104.583 53.3857 104.676 53.5635 104.863C53.7412 105.05 53.8301 105.31 53.8301 105.643ZM52.9072 103.715C52.6475 103.715 52.4242 103.635 52.2373 103.476C52.055 103.316 51.9639 103.09 51.9639 102.799C51.9639 102.535 52.0573 102.318 52.2441 102.149C52.4355 101.976 52.6566 101.89 52.9072 101.89C53.1488 101.89 53.363 101.967 53.5498 102.122C53.7367 102.277 53.8301 102.503 53.8301 102.799C53.8301 103.086 53.7389 103.312 53.5566 103.476C53.3743 103.635 53.1579 103.715 52.9072 103.715ZM60.8779 111.104V110.92C60.6273 111.207 60.3789 111.442 60.1328 111.624C59.8913 111.802 59.627 111.936 59.3398 112.027C59.0573 112.123 58.7474 112.171 58.4102 112.171C57.9635 112.171 57.5488 112.077 57.166 111.891C56.7878 111.699 56.4596 111.428 56.1816 111.077C55.9036 110.726 55.6917 110.314 55.5459 109.84C55.4046 109.366 55.334 108.853 55.334 108.302C55.334 107.135 55.6188 106.226 56.1885 105.574C56.7581 104.923 57.5078 104.597 58.4375 104.597C58.9753 104.597 59.4287 104.69 59.7979 104.877C60.167 105.059 60.527 105.342 60.8779 105.725V102.97C60.8779 102.587 60.9531 102.298 61.1035 102.102C61.2585 101.906 61.4772 101.808 61.7598 101.808C62.0423 101.808 62.2588 101.899 62.4092 102.081C62.5641 102.259 62.6416 102.523 62.6416 102.874V111.104C62.6416 111.46 62.5596 111.727 62.3955 111.904C62.2314 112.082 62.0195 112.171 61.7598 112.171C61.5046 112.171 61.2926 112.08 61.124 111.897C60.96 111.711 60.8779 111.446 60.8779 111.104ZM57.207 108.363C57.207 108.869 57.2845 109.3 57.4395 109.655C57.599 110.011 57.8154 110.28 58.0889 110.462C58.3623 110.64 58.6608 110.729 58.9844 110.729C59.3125 110.729 59.611 110.644 59.8799 110.476C60.1533 110.302 60.3698 110.04 60.5293 109.689C60.6934 109.334 60.7754 108.892 60.7754 108.363C60.7754 107.867 60.6934 107.44 60.5293 107.085C60.3698 106.725 60.151 106.451 59.873 106.265C59.5996 106.073 59.2988 105.978 58.9707 105.978C58.6289 105.978 58.3236 106.076 58.0547 106.271C57.7858 106.463 57.5762 106.741 57.4258 107.105C57.2799 107.465 57.207 107.885 57.207 108.363Z" fill="white"/>
<ellipse cx="32.5" cy="31.8784" rx="14.5" ry="14.8784" fill="white"/>
<ellipse cx="32.0151" cy="32.0091" rx="1.01515" ry="1.00909" fill="#0386D0"/>
<path d="M26.3497 28.573L32.4913 31.8032L31.8006 32.927L26.3497 28.573Z" fill="#0386D0"/>
<path d="M39.3075 26.5968L31.9688 32.8813L31 31.6717L39.3075 26.5968Z" fill="#0386D0"/>
</svg>
